<svg width="74" height="74" viewBox="0 0 74 74" fill="none" xmlns="http://www.w3.org/2000/svg">
<rect width="74" height="74" rx="13" fill="#282A3B"/>
<path d="M37.5523 25.913C37.2001 25.7621 36.8015 25.7621 36.4493 25.913L26.6493 30.113C26.1345 30.3336 25.8008 30.8398 25.8008 31.3998C25.8008 31.9598 26.1345 32.466 26.6493 32.6866L30.3513 34.2732C30.4859 34.1207 30.6547 33.9964 30.8493 33.913L36.4493 31.513C37.16 31.2084 37.983 31.5377 38.2876 32.2483C38.5922 32.959 38.2629 33.782 37.5523 34.0866L33.7341 35.723L36.4493 36.8866C36.8015 37.0375 37.2001 37.0375 37.5523 36.8866L47.3523 32.6866C47.867 32.466 48.2008 31.9598 48.2008 31.3998C48.2008 30.8398 47.867 30.3336 47.3523 30.113L37.5523 25.913Z" fill="url(#paint0_linear_141_1320)"/>
<path d="M27.6348 36.1552L30.0008 37.1692V42.9115C29.5209 42.8027 29.0307 42.7212 28.5318 42.6689C27.8741 42.6 27.3544 42.0802 27.2854 41.4225C27.2294 40.8888 27.2008 40.3473 27.2008 39.7996C27.2008 38.5444 27.3512 37.3239 27.6348 36.1552Z" fill="url(#paint1_linear_141_1320)"/>
<path d="M36.0207 46.2013C35.0787 45.2778 33.9931 44.5016 32.8008 43.9089V38.3692L35.3463 39.4601C36.4028 39.9129 37.5987 39.9129 38.6552 39.4601L46.3667 36.1552C46.6504 37.3239 46.8008 38.5444 46.8008 39.7996C46.8008 40.3473 46.7721 40.8888 46.7162 41.4225C46.6472 42.0802 46.1275 42.6 45.4698 42.6689C42.5678 42.9732 39.9581 44.2629 37.9808 46.2013C37.4364 46.735 36.5651 46.735 36.0207 46.2013Z" fill="url(#paint2_linear_141_1320)"/>
<path d="M31.4008 48.1998C32.174 48.1998 32.8008 47.573 32.8008 46.7998V43.9089C31.9207 43.4715 30.9824 43.1342 30.0008 42.9115V46.7998C30.0008 47.573 30.6276 48.1998 31.4008 48.1998Z" fill="url(#paint3_linear_141_1320)"/>
<defs>
<linearGradient id="paint0_linear_141_1320" x1="37.0008" y1="25.7998" x2="37.0008" y2="48.1998" gradientUnits="userSpaceOnUse">
<stop stop-color="#F02E65"/>
<stop offset="1" stop-color="#F02E65" stop-opacity="0.4"/>
</linearGradient>
<linearGradient id="paint1_linear_141_1320" x1="37.0008" y1="25.7998" x2="37.0008" y2="48.1998" gradientUnits="userSpaceOnUse">
<stop stop-color="#F02E65"/>
<stop offset="1" stop-color="#F02E65" stop-opacity="0.4"/>
</linearGradient>
<linearGradient id="paint2_linear_141_1320" x1="37.0008" y1="25.7998" x2="37.0008" y2="48.1998" gradientUnits="userSpaceOnUse">
<stop stop-color="#F02E65"/>
<stop offset="1" stop-color="#F02E65" stop-opacity="0.4"/>
</linearGradient>
<linearGradient id="paint3_linear_141_1320" x1="37.0008" y1="25.7998" x2="37.0008" y2="48.1998" gradientUnits="userSpaceOnUse">
<stop stop-color="#F02E65"/>
<stop offset="1" stop-color="#F02E65" stop-opacity="0.4"/>
</linearGradient>
</defs>
</svg>
