<svg width="270" height="143" viewBox="0 0 270 143" fill="none" xmlns="http://www.w3.org/2000/svg">
<path d="M40.232 39.3229C37.4423 35.0155 33.1525 32.4143 29.0606 31.1598C24.9686 29.9053 20.5193 31.2558 20.5193 31.2558C20.7778 32.6167 21.8302 36.1127 23.9717 39.2095C26.6485 43.0805 30.2407 46.5288 33.3044 48.1118C35.7554 49.3782 40.6101 50.3983 42.2055 49.3655C43.6482 46.9598 43.0216 43.6303 40.232 39.3229Z" fill="#3349C2"/>
<path d="M56.6932 41.0659C60.2226 37.3404 64.9153 35.5665 69.1675 35.0803C73.4198 34.5942 77.5476 36.7346 77.5476 36.7346C77.0449 38.0254 75.3718 41.2705 72.7007 43.9241C69.362 47.241 65.2004 49.9753 61.8991 50.9722C59.2581 51.7697 54.2987 51.886 52.9188 50.5792C51.9397 47.9505 53.1639 44.7914 56.6932 41.0659Z" fill="#3349C2"/>
<path d="M38.2989 67.9663C36.8626 64.2128 33.9995 61.5224 31.0689 59.8958C28.1384 58.2691 24.5103 58.58 24.5103 58.58C24.4869 59.6646 24.7244 62.5139 25.8612 65.2345C27.2821 68.6353 29.473 71.8612 31.5625 73.5722C33.234 74.941 36.787 76.5121 38.1772 75.9804C39.6737 74.3723 39.7353 71.7197 38.2989 67.9663Z" fill="#3349C2"/>
<path d="M51.6731 67.4561C54.2493 65.049 57.5416 64.0289 60.4779 63.8735C63.4142 63.7181 66.1553 65.3586 66.1553 65.3586C65.7565 66.2228 64.4734 68.378 62.5307 70.0859C60.1023 72.2208 57.134 73.9217 54.8285 74.4672C52.984 74.9035 49.5783 74.7758 48.6867 73.8218C48.1253 71.9783 49.0969 69.8631 51.6731 67.4561Z" fill="#3349C2"/>
<circle r="6" transform="matrix(-0.687211 -0.726458 -0.726458 0.687211 47.6815 52.915)" fill="white" stroke="#F02E65" stroke-width="2"/>
<path d="M59.1257 25.1047C58.972 22.2995 56.2947 14.3792 54.9753 10.7697C52.828 12.9849 47.9459 18.2802 45.5957 21.7397C42.6578 26.0641 42.7453 26.9934 43.4147 30.5092C43.8467 32.7778 47.0757 37.1842 48.9984 39.0813C50.6463 38.1609 54.5426 35.8308 56.9448 33.8741C59.9475 31.4283 59.3179 28.6112 59.1257 25.1047Z" fill="#3349C2"/>
<path d="M46.0915 59.2372C43.6571 70.4877 42.3908 77.88 46.4159 85.7729C50.441 93.6658 56.8292 98.7439 59.5028 100.115" stroke="#3349C2" stroke-width="2"/>
<path d="M238.028 41.7637C242.372 39.032 247.358 38.4796 251.598 39.0653C255.838 39.6509 259.304 42.7499 259.304 42.7499C258.497 43.8753 256.07 46.6028 252.823 48.5095C248.765 50.8929 244.054 52.5074 240.609 52.6528C237.853 52.769 233.02 51.6495 232.008 50.0408C231.713 47.2513 233.683 44.4954 238.028 41.7637Z" fill="#3349C2"/>
<path d="M222.364 36.4112C220.732 31.5457 217.223 27.9602 213.571 25.7283C209.919 23.4964 205.274 23.6991 205.274 23.6991C205.186 25.0816 205.337 28.7294 206.642 32.2612C208.273 36.6759 210.895 40.9086 213.47 43.2032C215.529 45.0389 219.978 47.2332 221.78 46.6291C223.775 44.6574 223.996 41.2766 222.364 36.4112Z" fill="#3349C2"/>
<path d="M227.717 68.5568C230.601 65.7575 234.331 64.5232 237.674 64.2822C241.017 64.0412 244.176 65.8513 244.176 65.8513C243.741 66.8448 242.325 69.329 240.148 71.3178C237.427 73.8037 234.081 75.8067 231.466 76.4785C229.373 77.0159 225.489 76.9444 224.452 75.8766C223.772 73.7878 224.833 71.3561 227.717 68.5568Z" fill="#3349C2"/>
<path d="M215.802 62.4606C214.479 59.1924 211.923 56.8805 209.325 55.5028C206.727 54.1251 203.55 54.4585 203.55 54.4585C203.548 55.4102 203.804 57.9054 204.846 60.2727C206.15 63.2318 208.125 66.0247 209.987 67.4904C211.476 68.6631 214.619 69.9817 215.829 69.492C217.115 68.0564 217.124 65.7288 215.802 62.4606Z" fill="#3349C2"/>
<circle cx="225.546" cy="50.9535" r="6" transform="rotate(-21.6805 225.546 50.9535)" fill="white" stroke="#F02E65" stroke-width="2"/>
<path d="M226.88 20.9102C228.201 18.4307 233.965 12.3749 236.682 9.65695C237.697 12.5705 239.894 19.4294 240.569 23.557C241.412 28.7165 240.941 29.5225 238.853 32.4293C237.506 34.3049 232.721 36.9414 230.179 37.8522C229.072 36.3233 226.519 32.5689 225.165 29.7825C223.471 26.2994 225.229 24.0095 226.88 20.9102Z" fill="#3349C2"/>
<path d="M224.326 57.3574C221.795 68.5866 217.741 77.4612 212.855 81.2879" stroke="#3349C2" stroke-width="2"/>
<path d="M112.991 27.7236L118.171 50.6423C118.828 53.5482 120.527 56.2991 123.118 58.6512L123.188 58.7145C126.598 61.8094 128.442 65.5736 128.442 69.4421V127.637C128.442 129.59 127.302 131.463 125.274 132.843C123.246 134.224 120.495 135 117.626 135H89.815C86.9465 135 84.1956 134.224 82.1673 132.843C80.139 131.463 78.9995 129.59 78.9995 127.637V69.4421C78.9995 65.5736 80.8428 61.8094 84.2527 58.7145L84.3227 58.6512C86.9142 56.2991 88.6136 53.5482 89.2703 50.6423L94.4502 27.7236L112.991 27.7236Z" fill="#F02E65"/>
<path d="M87.4409 131.265C86.9231 131.021 86.9095 129.553 87.6544 129.459C88.3993 129.365 88.6732 130.126 88.4081 130.828C88.3749 130.922 88.3231 131.007 88.256 131.08C88.1889 131.153 88.1077 131.212 88.0174 131.253C87.9271 131.293 87.8295 131.315 87.7305 131.318C87.6314 131.32 87.5329 131.302 87.4409 131.265Z" fill="#A4133C"/>
<path d="M87.7729 125.319C87.0258 125.229 87.2772 123.437 88.1447 123.709C89.0122 123.982 88.3167 125.378 87.7729 125.319Z" fill="#A4133C"/>
<path d="M80.8559 126.137C79.912 126.215 79.8579 125.289 80.4186 125.169C80.9793 125.049 82.0461 125.357 81.9868 125.901C81.9274 126.445 80.8559 126.137 80.8559 126.137Z" fill="#A4133C"/>
<path d="M95.6229 133.94C96.1839 132.739 96.5663 133.867 96.6677 134.428C96.7692 134.988 95.1354 134.985 95.6229 133.94Z" fill="#A4133C"/>
<path d="M90.16 130.324C90.721 129.123 91.1034 130.251 91.2049 130.812C91.3063 131.372 89.6725 131.369 90.16 130.324Z" fill="#A4133C"/>
<path d="M93.1683 132.276C93.7293 131.074 94.1117 132.203 94.2132 132.764C94.3146 133.324 92.6808 133.321 93.1683 132.276Z" fill="#A4133C"/>
<path d="M83.958 126.925C83.4403 126.681 83.4266 125.212 84.1715 125.113C84.9163 125.014 85.1903 125.785 84.9299 126.487C84.8962 126.581 84.844 126.667 84.7764 126.74C84.7089 126.813 84.6273 126.871 84.5366 126.912C84.4459 126.953 84.348 126.975 84.2486 126.977C84.1491 126.979 84.0503 126.961 83.958 126.925Z" fill="#A4133C"/>
<path d="M83.2774 128.176C83.8385 126.98 84.2208 128.103 84.3175 128.664C84.4142 129.225 82.7852 129.221 83.2774 128.176Z" fill="#A4133C"/>
<path d="M95.6004 124.087C96.3297 124.262 95.8796 126.025 95.039 125.638C94.1984 125.252 95.0698 123.948 95.6004 124.087Z" fill="#A4133C"/>
<path d="M91.4321 127.71C90.7331 128.834 90.4873 127.675 90.4565 127.099C90.4257 126.524 92.0432 126.735 91.4321 127.71Z" fill="#A4133C"/>
<path d="M80.038 114.583C79.3391 115.706 79.0932 114.547 79.0624 113.972C79.0316 113.396 80.6491 113.607 80.038 114.583Z" fill="#A4133C"/>
<path d="M83.2747 130.946C84.004 131.121 83.5539 132.887 82.7133 132.497C81.8726 132.106 82.7443 130.82 83.2747 130.946Z" fill="#A4133C"/>
<path d="M91.5056 123.592C92.4504 123.627 92.3959 124.553 91.8251 124.603C91.2544 124.653 90.2291 124.222 90.3593 123.677C90.4894 123.132 91.5056 123.592 91.5056 123.592Z" fill="#A4133C"/>
<path d="M93.0809 133.673C92.382 134.796 92.1361 133.638 92.1289 133.062C92.1217 132.486 93.7109 132.697 93.0809 133.673Z" fill="#A4133C"/>
<path d="M88.5052 127.87C87.8063 128.993 87.5604 127.835 87.5532 127.259C87.5461 126.683 89.1352 126.894 88.5052 127.87Z" fill="#A4133C"/>
<path d="M96.4764 131.045C95.7775 132.168 95.5316 131.009 95.5244 130.433C95.5172 129.857 97.1064 130.069 96.4764 131.045Z" fill="#A4133C"/>
<path d="M98.4882 121.084C98.7533 120.382 100.447 121.06 99.9565 121.831C99.4657 122.602 98.2963 121.597 98.4882 121.084Z" fill="#A4133C"/>
<path d="M81.7333 122.2C81.318 122.597 79.9423 122.09 80.1173 121.356C80.2923 120.622 81.1047 120.64 81.6681 121.138C81.7439 121.203 81.8059 121.281 81.8505 121.37C81.895 121.459 81.9211 121.556 81.9272 121.655C81.9333 121.754 81.9193 121.854 81.8859 121.947C81.8526 122.041 81.8007 122.127 81.7333 122.2Z" fill="#A4133C"/>
<path d="M93.801 120.638C92.8781 119.705 94.059 119.747 94.6268 119.839C95.1946 119.931 94.5999 121.468 93.801 120.638Z" fill="#A4133C"/>
<path d="M86.7388 121.697C86.4808 122.588 85.5899 122.33 85.6772 121.762C85.7646 121.194 86.4334 120.308 86.9182 120.561C87.403 120.815 86.7388 121.697 86.7388 121.697Z" fill="#A4133C"/>
<path d="M88.3736 133.763C88.1155 134.654 87.2246 134.396 87.312 133.828C87.3993 133.26 88.0682 132.374 88.553 132.627C89.0378 132.881 88.3736 133.763 88.3736 133.763Z" fill="#A4133C"/>
<path d="M85.6592 132.459C85.5178 131.72 87.3129 131.409 87.3009 132.34C87.2889 133.27 85.7555 132.982 85.6592 132.459Z" fill="#A4133C"/>
<path d="M94.9636 129.006C94.5484 129.408 93.1727 128.896 93.3477 128.167C93.5227 127.438 94.3351 127.451 94.8984 127.949C94.9741 128.013 95.0361 128.092 95.0806 128.18C95.125 128.269 95.1511 128.365 95.1572 128.464C95.1633 128.563 95.1493 128.662 95.116 128.755C95.0827 128.848 95.0308 128.934 94.9636 129.006Z" fill="#A4133C"/>
<path d="M98.1375 129.499C98.5002 129.051 99.9305 129.397 99.8453 130.139C99.7601 130.882 98.9491 130.972 98.3299 130.545C98.247 130.491 98.1759 130.42 98.121 130.337C98.0661 130.254 98.0286 130.161 98.0106 130.063C97.9926 129.966 97.9946 129.865 98.0164 129.769C98.0382 129.672 98.0794 129.58 98.1375 129.499Z" fill="#A4133C"/>
<path d="M94.5327 130.388C95.3779 130.77 94.9966 131.615 94.4467 131.447C93.8969 131.279 93.1131 130.52 93.4329 130.043C93.7528 129.567 94.5327 130.388 94.5327 130.388Z" fill="#A4133C"/>
<path d="M82.7736 117.546C83.7992 118.383 82.6198 118.463 82.0482 118.442C81.4766 118.421 81.8768 116.82 82.7736 117.546Z" fill="#A4133C"/>
<path d="M91.0473 133.472C91.6571 133.909 90.5988 135.367 89.9484 134.704C89.2979 134.042 90.6042 133.157 91.0473 133.472Z" fill="#A4133C"/>
<path d="M80.9858 128.301C81.1348 127.383 82.048 127.532 82.0269 128.109C82.0058 128.685 81.4511 129.641 80.9387 129.449C80.4264 129.257 80.9858 128.301 80.9858 128.301Z" fill="#A4133C"/>
<path d="M86.0082 134.263C85.5977 134.665 84.2172 134.153 84.3923 133.424C84.5673 132.694 85.3843 132.703 85.943 133.201C86.0188 133.265 86.0808 133.344 86.1254 133.433C86.1699 133.522 86.196 133.619 86.2021 133.718C86.2082 133.817 86.1941 133.917 86.1608 134.01C86.1275 134.104 86.0756 134.19 86.0082 134.263Z" fill="#A4133C"/>
<path d="M103.08 133.068C102.526 132.565 103.77 131.236 104.318 131.985C104.866 132.734 103.481 133.44 103.08 133.068Z" fill="#A4133C"/>
<path d="M81.0901 131.932C80.5676 131.688 80.554 130.22 81.2989 130.126C82.0437 130.031 82.3224 130.793 82.0573 131.495C82.0241 131.588 81.9724 131.674 81.9052 131.747C81.8381 131.82 81.757 131.878 81.6666 131.919C81.5763 131.96 81.4787 131.982 81.3797 131.984C81.2806 131.986 81.1821 131.969 81.0901 131.932Z" fill="#A4133C"/>
<path d="M99.0118 133.046C99.5042 134.278 98.4196 133.784 97.9414 133.475C97.4631 133.165 98.5834 131.976 99.0118 133.046Z" fill="#A4133C"/>
<path d="M96.4461 127.356C97.0072 126.154 97.3895 127.282 97.491 127.843C97.5924 128.404 95.9586 128.4 96.4461 127.356Z" fill="#A4133C"/>
<path d="M105.414 134.106C105.272 133.367 107.067 133.056 107.055 133.986C107.043 134.917 105.51 134.629 105.414 134.106Z" fill="#A4133C"/>
<path d="M80.163 120.893C80.3121 119.975 81.2253 120.124 81.2041 120.701C81.183 121.277 80.6283 122.233 80.116 122.041C79.6036 121.849 80.163 120.893 80.163 120.893Z" fill="#A4133C"/>
<path d="M85.1854 126.855C84.7749 127.257 83.3945 126.745 83.5695 126.016C83.7445 125.286 84.5615 125.295 85.1202 125.793C85.196 125.857 85.2581 125.936 85.3026 126.025C85.3471 126.114 85.3732 126.211 85.3793 126.31C85.3854 126.409 85.3714 126.509 85.338 126.602C85.3047 126.696 85.2528 126.782 85.1854 126.855Z" fill="#A4133C"/>
<path d="M102.257 125.66C101.703 125.156 102.947 123.828 103.495 124.577C104.042 125.326 102.658 126.032 102.257 125.66Z" fill="#A4133C"/>
<path d="M80.2668 124.524C79.7444 124.28 79.7308 122.812 80.4756 122.717C81.2205 122.623 81.4992 123.385 81.2341 124.087C81.2008 124.18 81.1491 124.266 81.082 124.339C81.0149 124.412 80.9337 124.47 80.8434 124.511C80.7531 124.552 80.6555 124.574 80.5564 124.576C80.4574 124.578 80.3589 124.561 80.2668 124.524Z" fill="#A4133C"/>
<path d="M115.292 132.461C115.15 131.722 116.945 131.411 116.933 132.342C116.921 133.272 115.388 132.984 115.292 132.461Z" fill="#A4133C"/>
<path d="M86.7475 116.778C86.8966 115.86 87.8097 116.009 87.7886 116.586C87.7675 117.162 87.2128 118.118 86.7004 117.926C86.1881 117.734 86.7475 116.778 86.7475 116.778Z" fill="#A4133C"/>
<path d="M95.0628 125.209C94.6523 125.611 93.2719 125.099 93.4469 124.37C93.622 123.641 94.439 123.649 94.9977 124.147C95.0735 124.212 95.1355 124.291 95.18 124.379C95.2246 124.468 95.2507 124.565 95.2568 124.664C95.2629 124.764 95.2488 124.863 95.2155 124.957C95.1822 125.05 95.1302 125.136 95.0628 125.209Z" fill="#A4133C"/>
<path d="M112.134 124.014C111.58 123.511 112.824 122.183 113.372 122.931C113.92 123.68 112.536 124.386 112.134 124.014Z" fill="#A4133C"/>
<path d="M100.845 131.932C100.323 131.689 100.309 130.22 101.054 130.126C101.799 130.032 102.077 130.793 101.812 131.495C101.779 131.589 101.727 131.674 101.66 131.747C101.593 131.82 101.512 131.879 101.422 131.92C101.331 131.96 101.234 131.983 101.135 131.985C101.035 131.987 100.937 131.969 100.845 131.932Z" fill="#A4133C"/>
<path d="M98.1891 125.638C98.6814 126.87 97.5969 126.377 97.1186 126.067C96.6404 125.757 97.7606 124.568 98.1891 125.638Z" fill="#A4133C"/>
<path d="M95.6229 119.948C96.1839 118.746 96.5663 119.874 96.6677 120.435C96.7692 120.996 95.1354 120.992 95.6229 119.948Z" fill="#A4133C"/>
<path d="M104.59 126.698C104.449 125.959 106.244 125.648 106.232 126.578C106.22 127.509 104.687 127.221 104.59 126.698Z" fill="#A4133C"/>
<path d="M88.6568 132.221C88.5153 131.481 90.3105 131.171 90.2985 132.101C90.2865 133.031 88.753 132.743 88.6568 132.221Z" fill="#A4133C"/>
<path d="M92.2226 131.163C92.8324 131.599 91.7741 133.057 91.1236 132.395C90.4732 131.732 91.7795 130.847 92.2226 131.163Z" fill="#A4133C"/>
<path d="M84.8537 131.298C84.3313 131.054 84.3177 129.585 85.0626 129.491C85.8074 129.397 86.0861 130.158 85.821 130.86C85.7878 130.954 85.736 131.04 85.6689 131.112C85.6018 131.185 85.5206 131.244 85.4303 131.285C85.34 131.326 85.2424 131.348 85.1433 131.35C85.0443 131.352 84.9458 131.334 84.8537 131.298Z" fill="#A4133C"/>
<path d="M101.376 126.531C101.937 125.334 102.32 126.457 102.421 127.018C102.523 127.579 100.917 127.575 101.376 126.531Z" fill="#A4133C"/>
<path d="M101.354 134.18C101.296 132.859 102.156 133.678 102.506 134.127C102.855 134.577 101.431 135.318 101.354 134.18Z" fill="#A4133C"/>
<path d="M82.8334 111.495C83.3094 111.8 83.1576 113.261 82.3833 113.266C81.609 113.271 81.4292 112.48 81.7939 111.815C81.8382 111.723 81.901 111.641 81.9784 111.574C82.0558 111.507 82.1461 111.458 82.2437 111.428C82.3413 111.398 82.4441 111.388 82.5456 111.4C82.647 111.411 82.745 111.443 82.8334 111.495Z" fill="#A4133C"/>
<path d="M95.6774 111.497C96.4067 111.672 95.9613 113.439 95.116 113.048C94.2706 112.657 95.147 111.371 95.6774 111.497Z" fill="#A4133C"/>
<path d="M90.5979 120.496C91.5427 120.532 91.4929 121.458 90.9175 121.507C90.342 121.557 89.3262 121.126 89.4516 120.581C89.577 120.037 90.5979 120.496 90.5979 120.496Z" fill="#A4133C"/>
<path d="M112.405 30.2902C112.899 30.4963 112.973 31.8671 112.281 31.9863C111.589 32.1054 111.302 31.4056 111.52 30.7387C111.547 30.6502 111.592 30.5679 111.652 30.497C111.711 30.4261 111.785 30.368 111.867 30.3262C111.95 30.2843 112.04 30.2595 112.133 30.2533C112.225 30.2471 112.318 30.2597 112.405 30.2902Z" fill="white" fill-opacity="0.6"/>
<path d="M112.343 35.8547C113.045 35.9075 112.885 37.5923 112.063 37.374C111.242 37.1557 111.833 35.822 112.343 35.8547Z" fill="white" fill-opacity="0.6"/>
<path d="M104.656 28.1345C104.182 29.2802 103.778 28.2422 103.659 27.7228C103.541 27.2034 105.067 27.1383 104.656 28.1345Z" fill="white" fill-opacity="0.6"/>
<path d="M109.906 31.2825C109.432 32.4282 109.028 31.3901 108.91 30.8708C108.792 30.3514 110.318 30.2862 109.906 31.2825Z" fill="white" fill-opacity="0.6"/>
<path d="M107.017 29.5859C106.543 30.7316 106.138 29.6936 106.02 29.1742C105.902 28.6548 107.428 28.5897 107.017 29.5859Z" fill="white" fill-opacity="0.6"/>
<path d="M105.087 37.3319C104.398 37.1988 104.745 35.5342 105.546 35.8598C106.348 36.1854 105.588 37.4403 105.087 37.3319Z" fill="white" fill-opacity="0.6"/>
<path d="M108.827 33.7754C109.433 32.6973 109.711 33.7691 109.764 34.3055C109.817 34.8418 108.297 34.7121 108.827 33.7754Z" fill="white" fill-opacity="0.6"/>
<path d="M108.931 37.6233C108.047 37.6296 108.059 36.7624 108.59 36.6922C109.121 36.6221 110.097 36.9819 109.998 37.496C109.899 38.0101 108.931 37.6233 108.931 37.6233Z" fill="white" fill-opacity="0.6"/>
<path d="M107.039 28.278C107.645 27.1999 107.923 28.2717 107.954 28.8094C107.985 29.347 106.492 29.2157 107.039 28.278Z" fill="white" fill-opacity="0.6"/>
<path d="M111.553 33.5041C112.159 32.426 112.437 33.4978 112.468 34.0354C112.498 34.5731 111.005 34.4418 111.553 33.5041Z" fill="white" fill-opacity="0.6"/>
<path d="M103.979 30.8728C104.585 29.7947 104.863 30.8664 104.894 31.4041C104.925 31.9417 103.432 31.8105 103.979 30.8728Z" fill="white" fill-opacity="0.6"/>
<path d="M102.517 40.2553C102.299 40.9222 100.688 40.3599 101.114 39.6192C101.541 38.8786 102.675 39.7688 102.517 40.2553Z" fill="white" fill-opacity="0.6"/>
<path d="M106.911 40.4764C107.812 41.3092 106.707 41.3193 106.173 41.257C105.639 41.1947 106.13 39.734 106.911 40.4764Z" fill="white" fill-opacity="0.6"/>
<path d="M113.459 39.1937C113.663 38.3508 114.506 38.5547 114.448 39.0885C114.39 39.6224 113.803 40.4784 113.339 40.2617C112.876 40.045 113.459 39.1937 113.459 39.1937Z" fill="white" fill-opacity="0.6"/>
<path d="M111.43 27.9979C111.634 27.155 112.477 27.3589 112.419 27.8927C112.361 28.4266 111.773 29.2826 111.31 29.0659C110.847 28.8492 111.43 27.9979 111.43 27.9979Z" fill="white" fill-opacity="0.6"/>
<path d="M114.019 29.1015C114.182 29.7863 112.518 30.1511 112.491 29.2817C112.463 28.4123 113.907 28.6171 114.019 29.1015Z" fill="white" fill-opacity="0.6"/>
<path d="M105.476 32.7129C105.847 32.3203 107.154 32.7408 107.021 33.4293C106.887 34.1178 106.128 34.1391 105.581 33.6973C105.508 33.6408 105.447 33.5701 105.402 33.4893C105.356 33.4086 105.328 33.3195 105.318 33.2275C105.308 33.1355 105.317 33.0424 105.344 32.954C105.372 32.8655 105.417 32.7835 105.476 32.7129Z" fill="white" fill-opacity="0.6"/>
<path d="M102.494 32.3851C102.174 32.819 100.823 32.5558 100.872 31.8588C100.921 31.1619 101.674 31.0436 102.27 31.4163C102.35 31.4639 102.419 31.5271 102.474 31.6022C102.529 31.6772 102.568 31.7625 102.589 31.8531C102.61 31.9436 102.612 32.0373 102.596 32.1288C102.579 32.2202 102.545 32.3074 102.494 32.3851Z" fill="white" fill-opacity="0.6"/>
<path d="M105.821 31.4048C105.016 31.0839 105.337 30.2786 105.858 30.4124C106.378 30.5462 107.142 31.2232 106.863 31.6813C106.584 32.1394 105.821 31.4048 105.821 31.4048Z" fill="white" fill-opacity="0.6"/>
<path d="M108.946 28.3811C108.358 27.9991 109.286 26.5931 109.921 27.1846C110.556 27.7762 109.373 28.6574 108.946 28.3811Z" fill="white" fill-opacity="0.6"/>
<path d="M113.617 27.4323C113.984 27.04 115.295 27.4602 115.162 28.1487C115.028 28.8372 114.265 28.8632 113.722 28.4211C113.649 28.3643 113.588 28.2932 113.542 28.2121C113.497 28.131 113.469 28.0416 113.459 27.9492C113.449 27.8568 113.458 27.7634 113.485 27.6746C113.512 27.5857 113.557 27.5033 113.617 27.4323Z" fill="white" fill-opacity="0.6"/>
<path d="M97.7313 29.2597C98.2697 29.7064 97.1631 30.9988 96.6204 30.3224C96.0777 29.646 97.341 28.9283 97.7313 29.2597Z" fill="white" fill-opacity="0.6"/>
<path d="M101.528 29.11C101.017 27.9805 102.05 28.396 102.51 28.6652C102.969 28.9345 101.973 30.0919 101.528 29.11Z" fill="white" fill-opacity="0.6"/>
<path d="M104.162 34.3159C103.688 35.4616 103.284 34.4236 103.166 33.9042C103.048 33.3848 104.574 33.3197 104.162 34.3159Z" fill="white" fill-opacity="0.6"/>
<path d="M95.5097 28.3878C95.6726 29.0727 94.0089 29.4375 93.9813 28.5681C93.9537 27.6986 95.398 27.9034 95.5097 28.3878Z" fill="white" fill-opacity="0.6"/>
<path d="M98.8085 36.141C99.3469 36.5877 98.2403 37.8801 97.6976 37.2037C97.1548 36.5274 98.4181 35.8096 98.8085 36.141Z" fill="white" fill-opacity="0.6"/>
<path d="M86.3573 30.3358C86.5203 31.0207 84.8566 31.3855 84.829 30.5161C84.8014 29.6466 86.2456 29.8514 86.3573 30.3358Z" fill="white"/>
<path d="M113.656 43.7858C113.555 44.6493 112.696 44.5481 112.692 44.0089C112.688 43.4698 113.166 42.5537 113.652 42.7116C114.139 42.8695 113.656 43.7858 113.656 43.7858Z" fill="white" fill-opacity="0.6"/>
<path d="M105.543 36.2617C105.909 35.8693 107.22 36.2896 107.087 36.9781C106.954 37.6666 106.19 37.6925 105.648 37.2505C105.574 37.1937 105.513 37.1226 105.468 37.0415C105.422 36.9603 105.394 36.8709 105.384 36.7785C105.374 36.6862 105.383 36.5927 105.411 36.5039C105.438 36.4151 105.483 36.3327 105.543 36.2617Z" fill="white" fill-opacity="0.6"/>
<path d="M89.6561 38.089C90.1945 38.5357 89.0879 39.8281 88.5452 39.1517C88.0025 38.4754 89.2658 37.7576 89.6561 38.089Z" fill="white" fill-opacity="0.6"/>
<path d="M99.8645 30.2265C100.363 30.4323 100.437 31.8032 99.7448 31.9223C99.053 32.0414 98.761 31.3419 98.9793 30.675C99.0065 30.5864 99.0512 30.5043 99.1109 30.4334C99.1705 30.3625 99.2438 30.3043 99.3265 30.2625C99.4091 30.2206 99.4994 30.1958 99.5918 30.1896C99.6843 30.1835 99.777 30.196 99.8645 30.2265Z" fill="white" fill-opacity="0.6"/>
<path d="M102.605 35.9911C102.094 34.8616 103.127 35.2771 103.587 35.5463C104.047 35.8156 103.05 36.973 102.605 35.9911Z" fill="white" fill-opacity="0.6"/>
<path d="M105.239 41.197C104.765 42.3427 104.361 41.3047 104.243 40.7853C104.125 40.2659 105.651 40.2008 105.239 41.197Z" fill="white" fill-opacity="0.6"/>
<path d="M96.5868 35.2689C96.7498 35.9538 95.0861 36.3186 95.0585 35.4492C95.0309 34.5798 96.4751 34.7846 96.5868 35.2689Z" fill="white" fill-opacity="0.6"/>
<path d="M111.23 29.4494C111.393 30.1342 109.73 30.499 109.702 29.6296C109.674 28.7602 111.119 28.965 111.23 29.4494Z" fill="white" fill-opacity="0.6"/>
<path d="M107.945 30.5859C107.357 30.2039 108.285 28.798 108.92 29.3895C109.555 29.981 108.372 30.8622 107.945 30.5859Z" fill="white" fill-opacity="0.6"/>
<path d="M114.819 30.1523C115.317 30.3581 115.391 31.7289 114.699 31.8481C114.008 31.9672 113.716 31.2677 113.934 30.6008C113.961 30.5122 114.006 30.43 114.065 30.3591C114.125 30.2882 114.198 30.2301 114.281 30.1882C114.364 30.1464 114.454 30.1216 114.546 30.1154C114.639 30.1092 114.732 30.1218 114.819 30.1523Z" fill="white" fill-opacity="0.6"/>
<path d="M99.5943 35.2912C99.1201 36.4325 98.7161 35.3989 98.598 34.8795C98.4799 34.3601 99.9795 34.2965 99.5943 35.2912Z" fill="white" fill-opacity="0.6"/>
<path d="M99.2956 28.1497C99.4046 29.3807 98.5675 28.6522 98.222 28.2468C97.8766 27.8414 99.1758 27.0897 99.2956 28.1497Z" fill="white" fill-opacity="0.6"/>
<path d="M105.54 49.0883C104.852 48.9552 105.194 47.2865 106 47.6162C106.806 47.946 106.041 49.1835 105.54 49.0883Z" fill="white" fill-opacity="0.6"/>
<path d="M109.907 40.4753C109.023 40.4816 109.031 39.6146 109.566 39.5442C110.102 39.4738 111.069 39.8341 110.974 40.3479C110.88 40.8618 109.907 40.4753 109.907 40.4753Z" fill="white" fill-opacity="0.6"/>
<path d="M104 112C113.389 112 121 104.389 121 95C121 85.6112 113.389 78 104 78C94.6112 78 87 85.6112 87 95C87 104.389 94.6112 112 104 112Z" fill="white"/>
<path d="M159.969 22.0919L172.614 41.8958C174.218 44.4068 176.749 46.4184 179.985 47.7523L180.072 47.7882C184.33 49.5432 187.34 52.4593 188.652 56.0986L208.387 110.845C209.05 112.682 208.613 114.83 207.173 116.817C205.733 118.804 203.408 120.466 200.71 121.439L174.546 130.87C171.848 131.843 168.997 132.046 166.621 131.435C164.244 130.824 162.537 129.449 161.875 127.612L142.14 72.8655C140.828 69.2262 141.285 65.0599 143.444 60.9921L143.488 60.9088C145.128 57.8172 145.794 54.6531 145.427 51.6966L142.527 28.3795L159.969 22.0919Z" fill="#F02E65"/>
<path d="M144.907 27.3143C145.109 26.8369 146.438 26.7724 146.55 27.4435C146.662 28.1146 145.982 28.3897 145.337 28.1745C145.251 28.1478 145.171 28.104 145.103 28.0458C145.035 27.9876 144.979 27.9162 144.939 27.8359C144.898 27.7556 144.875 27.668 144.869 27.5784C144.864 27.4887 144.876 27.3989 144.907 27.3143Z" fill="white" fill-opacity="0.6"/>
<path d="M150.299 27.404C150.354 26.7243 151.986 26.8884 151.77 27.6835C151.554 28.4787 150.265 27.8985 150.299 27.404Z" fill="white" fill-opacity="0.6"/>
<path d="M149.314 21.1738C149.21 20.3224 150.045 20.2406 150.174 20.7437C150.303 21.2469 150.062 22.2232 149.568 22.1888C149.073 22.1544 149.314 21.1738 149.314 21.1738Z" fill="white" fill-opacity="0.6"/>
<path d="M142.776 34.814C143.884 35.2793 142.876 35.6656 142.372 35.7774C141.868 35.8891 141.813 34.4097 142.776 34.814Z" fill="white" fill-opacity="0.6"/>
<path d="M145.855 29.7417C146.963 30.2071 145.954 30.5934 145.45 30.7051C144.946 30.8169 144.891 29.3374 145.855 29.7417Z" fill="white" fill-opacity="0.6"/>
<path d="M144.195 32.5337C145.303 32.9991 144.295 33.3854 143.791 33.4971C143.287 33.6088 143.232 32.1294 144.195 32.5337Z" fill="white" fill-opacity="0.6"/>
<path d="M148.711 24.0088C148.913 23.5314 150.242 23.467 150.358 24.1378C150.474 24.8087 149.786 25.0842 149.141 24.8733C149.055 24.8461 148.976 24.8019 148.907 24.7433C148.839 24.6847 148.783 24.613 148.743 24.5323C148.702 24.4517 148.679 24.3637 148.674 24.2738C148.668 24.1839 148.681 24.0938 148.711 24.0088Z" fill="white" fill-opacity="0.6"/>
<path d="M147.554 23.4372C148.658 23.9028 147.654 24.2889 147.15 24.3964C146.645 24.5038 146.591 23.0287 147.554 23.4372Z" fill="white" fill-opacity="0.6"/>
<path d="M151.692 34.4445C151.56 35.1111 149.948 34.766 150.268 33.9912C150.588 33.2164 151.8 33.9591 151.692 34.4445Z" fill="white" fill-opacity="0.6"/>
<path d="M148.265 30.8006C147.224 30.2075 148.264 29.9438 148.784 29.8955C149.304 29.8472 149.17 31.3192 148.265 30.8006Z" fill="white" fill-opacity="0.6"/>
<path d="M159.741 20.0239C158.699 19.4309 159.739 19.1672 160.26 19.1189C160.78 19.0706 160.646 20.5426 159.741 20.0239Z" fill="white" fill-opacity="0.6"/>
<path d="M145.049 23.5333C144.916 24.1999 143.3 23.855 143.624 23.08C143.948 22.305 145.144 23.0486 145.049 23.5333Z" fill="white" fill-opacity="0.6"/>
<path d="M151.995 30.7207C151.997 31.5774 151.156 31.5609 151.091 31.0459C151.026 30.531 151.38 29.5873 151.877 29.6858C152.375 29.7843 151.995 30.7207 151.995 30.7207Z" fill="white" fill-opacity="0.6"/>
<path d="M142.928 32.5043C141.886 31.9113 142.926 31.6476 143.448 31.6206C143.969 31.5936 143.834 33.0401 142.928 32.5043Z" fill="white" fill-opacity="0.6"/>
<path d="M148.017 28.1576C146.975 27.5646 148.015 27.3009 148.537 27.2739C149.058 27.247 148.923 28.6934 148.017 28.1576Z" fill="white" fill-opacity="0.6"/>
<path d="M145.426 35.484C144.385 34.891 145.425 34.6273 145.946 34.6003C146.467 34.5734 146.332 36.0198 145.426 35.484Z" fill="white" fill-opacity="0.6"/>
<path d="M154.512 36.9504C155.157 37.1655 154.604 38.7236 153.888 38.3065C153.173 37.8894 154.041 36.7949 154.512 36.9504Z" fill="white" fill-opacity="0.6"/>
<path d="M152.908 21.8282C152.534 21.4662 152.944 20.2027 153.615 20.335C154.286 20.4674 154.298 21.2036 153.867 21.7315C153.811 21.8024 153.742 21.8614 153.663 21.9048C153.584 21.9483 153.498 21.9754 153.408 21.9844C153.318 21.9935 153.228 21.9843 153.142 21.9574C153.056 21.9306 152.976 21.8866 152.908 21.8282Z" fill="white" fill-opacity="0.6"/>
<path d="M154.75 32.6933C155.562 31.8245 155.566 32.8953 155.503 33.4126C155.44 33.93 154.026 33.4461 154.75 32.6933Z" fill="white" fill-opacity="0.6"/>
<path d="M153.541 26.3399C152.725 26.1379 152.927 25.322 153.444 25.381C153.962 25.4399 154.788 26.0141 154.576 26.462C154.363 26.91 153.541 26.3399 153.541 26.3399Z" fill="white" fill-opacity="0.6"/>
<path d="M142.68 28.2476C141.864 28.0456 142.066 27.2298 142.583 27.2887C143.1 27.3476 143.927 27.9218 143.714 28.3697C143.502 28.8177 142.68 28.2476 142.68 28.2476Z" fill="white" fill-opacity="0.6"/>
<path d="M143.762 25.744C144.427 25.5897 144.772 27.204 143.929 27.2262C143.086 27.2484 143.292 25.8497 143.762 25.744Z" fill="white" fill-opacity="0.6"/>
<path d="M147.218 34.0427C146.839 33.681 147.254 32.4173 147.92 32.5499C148.587 32.6825 148.604 33.4184 148.173 33.9462C148.117 34.017 148.049 34.0759 147.97 34.1193C147.892 34.1627 147.805 34.1898 147.716 34.1988C147.627 34.2078 147.536 34.1986 147.451 34.1718C147.365 34.145 147.286 34.1011 147.218 34.0427Z" fill="white" fill-opacity="0.6"/>
<path d="M146.884 36.9315C147.303 37.244 147.041 38.5513 146.366 38.5006C145.69 38.4498 145.58 37.7187 145.944 37.1429C145.991 37.0659 146.052 36.999 146.125 36.9464C146.198 36.8937 146.281 36.8564 146.369 36.8367C146.457 36.8169 146.548 36.8151 146.636 36.8314C146.725 36.8477 146.809 36.8818 146.884 36.9315Z" fill="white" fill-opacity="0.6"/>
<path d="M145.952 33.7012C145.636 34.4801 144.858 34.1648 144.99 33.661C145.122 33.1572 145.783 32.4205 146.225 32.6932C146.668 32.9659 145.952 33.7012 145.952 33.7012Z" fill="white" fill-opacity="0.6"/>
<path d="M157.157 22.604C156.436 23.5624 156.321 22.4973 156.32 21.979C156.319 21.4607 157.782 21.7663 157.157 22.604Z" fill="white" fill-opacity="0.6"/>
<path d="M143.038 30.657C142.664 31.2247 141.307 30.3182 141.883 29.7057C142.46 29.0933 143.308 30.2447 143.038 30.657Z" fill="white" fill-opacity="0.6"/>
<path d="M147.36 21.3679C148.197 21.4703 148.094 22.3024 147.571 22.3037C147.049 22.3051 146.164 21.8368 146.319 21.366C146.475 20.8953 147.36 21.3679 147.36 21.3679Z" fill="white" fill-opacity="0.6"/>
<path d="M142.143 26.1249C141.764 25.7675 142.179 24.4994 142.845 24.632C143.512 24.7646 143.533 25.5047 143.102 26.0282C143.046 26.0992 142.977 26.1581 142.898 26.2016C142.819 26.2451 142.732 26.2722 142.643 26.2812C142.553 26.2902 142.463 26.281 142.377 26.2542C142.291 26.2273 142.211 26.1834 142.143 26.1249Z" fill="white" fill-opacity="0.6"/>
<path d="M143.83 41.5314C144.266 41.0119 145.513 42.0912 144.854 42.6137C144.196 43.1361 143.507 41.9079 143.83 41.5314Z" fill="white" fill-opacity="0.6"/>
<path d="M144.078 21.5909C144.28 21.1092 145.609 21.0447 145.721 21.7158C145.833 22.3869 145.153 22.6662 144.508 22.4511C144.422 22.4244 144.343 22.3806 144.274 22.3224C144.206 22.2642 144.15 22.1928 144.11 22.1125C144.07 22.0322 144.046 21.9446 144.041 21.8549C144.035 21.7653 144.048 21.6755 144.078 21.5909Z" fill="white" fill-opacity="0.6"/>
<path d="M143.705 37.8504C142.608 38.34 143.016 37.3404 143.279 36.8964C143.543 36.4524 144.659 37.4245 143.705 37.8504Z" fill="white" fill-opacity="0.6"/>
<path d="M148.764 35.3252C149.872 35.7906 148.864 36.1769 148.36 36.2886C147.856 36.4004 147.801 34.9209 148.764 35.3252Z" fill="white" fill-opacity="0.6"/>
<path d="M142.973 43.68C143.638 43.5257 143.983 45.1401 143.14 45.1623C142.297 45.1844 142.503 43.7857 142.973 43.68Z" fill="white" fill-opacity="0.6"/>
<path d="M154.035 20.3601C154.871 20.4625 154.769 21.2946 154.246 21.2959C153.724 21.2973 152.838 20.8289 152.994 20.3582C153.15 19.8875 154.035 20.3601 154.035 20.3601Z" fill="white" fill-opacity="0.6"/>
<path d="M148.817 25.1171C148.439 24.7597 148.853 23.4916 149.52 23.6242C150.187 23.7568 150.208 24.4969 149.776 25.0204C149.721 25.0914 149.652 25.1503 149.573 25.1938C149.494 25.2373 149.407 25.2643 149.318 25.2734C149.228 25.2824 149.137 25.2732 149.052 25.2464C148.966 25.2195 148.886 25.1756 148.817 25.1171Z" fill="white" fill-opacity="0.6"/>
<path d="M150.505 40.5236C150.941 40.0041 152.187 41.0834 151.529 41.6059C150.871 42.1283 150.182 40.9001 150.505 40.5236Z" fill="white" fill-opacity="0.6"/>
<path d="M150.753 20.5831C150.955 20.1014 152.284 20.0369 152.396 20.708C152.508 21.3791 151.828 21.6584 151.183 21.4433C151.097 21.4166 151.018 21.3728 150.949 21.3146C150.881 21.2564 150.825 21.185 150.785 21.1047C150.745 21.0243 150.721 20.9368 150.716 20.8471C150.71 20.7575 150.723 20.6677 150.753 20.5831Z" fill="white" fill-opacity="0.6"/>
<path d="M144.813 52.5607C145.478 52.4063 145.823 54.0207 144.98 54.0429C144.137 54.065 144.343 52.6664 144.813 52.5607Z" fill="white" fill-opacity="0.6"/>
<path d="M157.993 26.1731C158.829 26.2755 158.726 27.1076 158.204 27.1089C157.681 27.1102 156.796 26.6419 156.952 26.1712C157.107 25.7005 157.993 26.1731 157.993 26.1731Z" fill="white" fill-opacity="0.6"/>
<path d="M150.658 33.9977C150.279 33.6403 150.694 32.3722 151.36 32.5048C152.027 32.6374 152.048 33.3775 151.617 33.901C151.561 33.972 151.492 34.0309 151.413 34.0744C151.334 34.1179 151.248 34.145 151.158 34.154C151.068 34.163 150.978 34.1538 150.892 34.127C150.806 34.1001 150.726 34.0562 150.658 33.9977Z" fill="white" fill-opacity="0.6"/>
<path d="M152.345 49.4039C152.781 48.8844 154.028 49.9638 153.369 50.4862C152.711 51.0087 152.022 49.7805 152.345 49.4039Z" fill="white" fill-opacity="0.6"/>
<path d="M144.778 39.4686C144.98 38.9869 146.309 38.9224 146.421 39.5935C146.533 40.2646 145.853 40.5439 145.208 40.3288C145.122 40.3021 145.043 40.2583 144.975 40.2001C144.906 40.1419 144.85 40.0705 144.81 39.9902C144.77 39.9098 144.746 39.8223 144.741 39.7326C144.735 39.643 144.748 39.5532 144.778 39.4686Z" fill="white" fill-opacity="0.6"/>
<path d="M150.38 36.8426C149.282 37.3322 149.691 36.3326 149.954 35.8886C150.217 35.4446 151.334 36.4167 150.38 36.8426Z" fill="white" fill-opacity="0.6"/>
<path d="M155.439 34.3174C156.547 34.7827 155.539 35.169 155.035 35.2808C154.531 35.3925 154.476 33.9131 155.439 34.3174Z" fill="white" fill-opacity="0.6"/>
<path d="M149.648 42.6722C150.313 42.5179 150.658 44.1323 149.815 44.1544C148.972 44.1766 149.178 42.7779 149.648 42.6722Z" fill="white" fill-opacity="0.6"/>
<path d="M144.085 28.4486C144.75 28.2943 145.095 29.9086 144.252 29.9308C143.409 29.953 143.615 28.5543 144.085 28.4486Z" fill="white" fill-opacity="0.6"/>
<path d="M145.17 31.6387C144.796 32.2064 143.438 31.2999 144.015 30.6874C144.592 30.075 145.44 31.2264 145.17 31.6387Z" fill="white" fill-opacity="0.6"/>
<path d="M144.785 24.9744C144.988 24.4927 146.317 24.4283 146.428 25.0994C146.54 25.7704 145.861 26.0498 145.216 25.8347C145.13 25.8079 145.05 25.7641 144.982 25.7059C144.914 25.6477 144.858 25.5763 144.817 25.496C144.777 25.4157 144.754 25.3281 144.748 25.2385C144.743 25.1489 144.755 25.059 144.785 24.9744Z" fill="white" fill-opacity="0.6"/>
<path d="M149.686 39.7573C150.789 40.2229 149.786 40.6089 149.281 40.7207C148.777 40.8324 148.724 39.3786 149.686 39.7573Z" fill="white" fill-opacity="0.6"/>
<path d="M142.762 40.0089C143.956 39.9097 143.246 40.7172 142.851 41.0499C142.456 41.3826 141.734 40.1194 142.762 40.0089Z" fill="white" fill-opacity="0.6"/>
<path d="M162.635 22.4437C162.376 22.8855 161.047 22.8 161.015 22.0991C160.983 21.3981 161.693 21.2072 162.309 21.5138C162.394 21.5507 162.47 21.6046 162.533 21.6724C162.596 21.7401 162.645 21.8201 162.675 21.9074C162.706 21.9947 162.718 22.0874 162.711 22.1797C162.705 22.272 162.679 22.3619 162.635 22.4437Z" fill="white" fill-opacity="0.6"/>
<path d="M163.089 34.0672C162.957 34.7338 161.341 34.3932 161.665 33.6139C161.989 32.8346 163.184 33.5825 163.089 34.0672Z" fill="white" fill-opacity="0.6"/>
<path d="M154.765 29.7895C154.766 30.6463 153.926 30.6341 153.86 30.1148C153.795 29.5955 154.149 28.6604 154.647 28.7546C155.144 28.8488 154.765 29.7895 154.765 29.7895Z" fill="white" fill-opacity="0.6"/>
<path d="M172.865 128.119C172.324 128.268 171.378 127.183 171.872 126.638C172.367 126.092 173.056 126.485 173.307 127.177C173.342 127.268 173.358 127.364 173.354 127.461C173.351 127.559 173.328 127.654 173.287 127.742C173.245 127.83 173.187 127.909 173.114 127.973C173.042 128.038 172.957 128.088 172.865 128.119Z" fill="#A4133C"/>
<path d="M167.607 121.77C166.994 122.18 166.037 120.685 166.857 120.334C167.677 119.984 168.05 121.468 167.607 121.77Z" fill="#A4133C"/>
<path d="M163.783 126.749C163.13 127.409 162.5 126.755 162.841 126.308C163.181 125.861 164.172 125.41 164.474 125.853C164.777 126.295 163.783 126.749 163.783 126.749Z" fill="#A4133C"/>
<path d="M177.926 124.461C177.578 123.208 178.582 123.805 179.015 124.158C179.449 124.51 178.23 125.55 177.926 124.461Z" fill="#A4133C"/>
<path d="M172.574 123.973C172.225 122.721 173.23 123.317 173.663 123.67C174.096 124.023 172.877 125.062 172.574 123.973Z" fill="#A4133C"/>
<path d="M176.057 123.508C175.709 122.256 176.713 122.852 177.146 123.205C177.579 123.558 176.361 124.597 176.057 123.508Z" fill="#A4133C"/>
<path d="M165.791 125.397C165.25 125.546 164.303 124.461 164.795 123.912C165.286 123.363 165.982 123.763 166.236 124.451C166.271 124.543 166.286 124.64 166.283 124.737C166.279 124.835 166.256 124.93 166.214 125.019C166.173 125.107 166.114 125.186 166.041 125.251C165.968 125.316 165.883 125.365 165.791 125.397Z" fill="#A4133C"/>
<path d="M168.319 125.385C167.973 124.136 168.975 124.729 169.404 125.085C169.834 125.441 168.619 126.477 168.319 125.385Z" fill="#A4133C"/>
<path d="M172.648 115.862C173.303 115.528 174.091 117.127 173.219 117.376C172.347 117.624 172.164 116.097 172.648 115.862Z" fill="#A4133C"/>
<path d="M171.855 121.217C172.051 122.499 171.129 121.793 170.739 121.384C170.349 120.975 171.688 120.101 171.855 121.217Z" fill="#A4133C"/>
<path d="M167.021 127.077C167.676 126.742 168.468 128.345 167.592 128.59C166.717 128.835 166.546 127.322 167.021 127.077Z" fill="#A4133C"/>
<path d="M164.341 118.632C165.067 118.055 165.617 118.78 165.224 119.181C164.831 119.582 163.792 119.915 163.542 119.426C163.291 118.938 164.341 118.632 164.341 118.632Z" fill="#A4133C"/>
<path d="M175.957 126.069C176.152 127.351 175.23 126.645 174.858 126.221C174.485 125.797 175.803 124.94 175.957 126.069Z" fill="#A4133C"/>
<path d="M169.778 123.202C169.974 124.484 169.052 123.778 168.679 123.353C168.307 122.929 169.625 122.073 169.778 123.202Z" fill="#A4133C"/>
<path d="M183.732 120.851C183.481 120.159 185.175 119.583 185.301 120.47C185.428 121.357 183.916 121.355 183.732 120.851Z" fill="#A4133C"/>
<path d="M163.87 122.431C163.814 122.992 162.466 123.492 162.128 122.834C161.79 122.175 162.407 121.671 163.144 121.682C163.242 121.682 163.338 121.701 163.428 121.739C163.518 121.777 163.599 121.832 163.667 121.902C163.735 121.972 163.788 122.055 163.823 122.146C163.857 122.237 163.874 122.334 163.87 122.431Z" fill="#A4133C"/>
<path d="M169.109 114.443C167.827 114.337 168.733 113.615 169.215 113.321C169.696 113.028 170.234 114.552 169.109 114.443Z" fill="#A4133C"/>
<path d="M161.688 119.129C162.064 119.957 161.236 120.333 160.939 119.854C160.642 119.376 160.575 118.289 161.098 118.169C161.62 118.048 161.688 119.129 161.688 119.129Z" fill="#A4133C"/>
<path d="M175.401 129.615C175.777 130.443 174.949 130.819 174.652 130.34C174.355 129.862 174.287 128.775 174.81 128.655C175.333 128.535 175.401 129.615 175.401 129.615Z" fill="#A4133C"/>
<path d="M171.071 130.882C170.494 130.421 171.633 129.045 172.217 129.746C172.802 130.446 171.476 131.21 171.071 130.882Z" fill="#A4133C"/>
<path d="M175.31 119.93C175.257 120.494 173.906 120.991 173.571 120.336C173.236 119.681 173.85 119.173 174.587 119.185C174.684 119.184 174.781 119.203 174.87 119.24C174.96 119.278 175.041 119.333 175.108 119.403C175.176 119.472 175.228 119.555 175.263 119.646C175.298 119.736 175.314 119.833 175.31 119.93Z" fill="#A4133C"/>
<path d="M187.793 124.106C187.778 123.541 189.063 122.886 189.473 123.494C189.883 124.101 189.337 124.685 188.604 124.762C188.507 124.775 188.409 124.767 188.315 124.741C188.222 124.714 188.134 124.669 188.059 124.607C187.983 124.546 187.92 124.47 187.875 124.384C187.829 124.298 187.802 124.203 187.793 124.106Z" fill="#A4133C"/>
<path d="M179.073 119.514C179.946 119.259 180.201 120.132 179.684 120.358C179.168 120.583 178.099 120.518 178.034 119.959C177.968 119.4 179.073 119.514 179.073 119.514Z" fill="#A4133C"/>
<path d="M160.997 116.002C162.295 115.971 161.468 116.784 161.029 117.133C160.59 117.481 159.867 116.034 160.997 116.002Z" fill="#A4133C"/>
<path d="M178.069 127.06C178.801 126.996 178.943 128.757 178.036 128.679C177.129 128.6 177.538 127.108 178.069 127.06Z" fill="#A4133C"/>
<path d="M165.691 127.292C165.216 126.514 165.992 126.042 166.343 126.485C166.695 126.928 166.892 127.993 166.388 128.177C165.884 128.361 165.691 127.292 165.691 127.292Z" fill="#A4133C"/>
<path d="M169.514 130.495C169.464 131.056 168.11 131.555 167.775 130.901C167.44 130.246 168.054 129.731 168.788 129.746C168.885 129.745 168.982 129.765 169.072 129.802C169.162 129.84 169.243 129.896 169.311 129.966C169.378 130.036 169.431 130.119 169.466 130.21C169.501 130.3 169.517 130.398 169.514 130.495Z" fill="#A4133C"/>
<path d="M175.279 117.651C174.546 117.63 174.625 115.847 175.511 116.055C176.396 116.264 175.816 117.673 175.279 117.651Z" fill="#A4133C"/>
<path d="M165.609 130.538C165.064 130.69 164.117 129.605 164.612 129.06C165.107 128.514 165.8 128.904 166.05 129.596C166.085 129.686 166.101 129.783 166.098 129.88C166.094 129.977 166.071 130.073 166.03 130.161C165.989 130.249 165.93 130.328 165.858 130.392C165.785 130.457 165.701 130.507 165.609 130.538Z" fill="#A4133C"/>
<path d="M180.713 123.117C180.364 121.865 181.369 122.461 181.802 122.814C182.235 123.167 181.016 124.206 180.713 123.117Z" fill="#A4133C"/>
<path d="M169.634 129.005C169.057 128.544 170.196 127.168 170.78 127.869C171.365 128.569 170.039 129.333 169.634 129.005Z" fill="#A4133C"/>
<path d="M172.664 126.343C172.087 125.883 173.226 124.507 173.81 125.207C174.395 125.908 173.069 126.671 172.664 126.343Z" fill="#A4133C"/>
<path d="M174.644 123.282C175.376 123.218 175.518 124.979 174.611 124.9C173.704 124.822 174.113 123.33 174.644 123.282Z" fill="#A4133C"/>
<path d="M169.642 120.053C169.097 120.204 168.151 119.119 168.645 118.574C169.14 118.029 169.833 118.418 170.083 119.11C170.118 119.201 170.134 119.298 170.131 119.395C170.127 119.492 170.104 119.587 170.063 119.675C170.022 119.763 169.963 119.842 169.891 119.907C169.819 119.972 169.734 120.021 169.642 120.053Z" fill="#A4133C"/>
<path d="M170.858 108.728C170.512 107.478 171.514 108.071 171.947 108.424C172.38 108.777 171.182 109.798 170.858 108.728Z" fill="#A4133C"/>
<path d="M180.472 125.528C181.021 125.452 181.84 126.637 181.267 127.134C180.693 127.632 180.055 127.157 179.902 126.429C179.876 126.332 179.871 126.231 179.886 126.132C179.901 126.033 179.936 125.939 179.99 125.854C180.043 125.769 180.114 125.697 180.197 125.641C180.28 125.584 180.373 125.546 180.472 125.528Z" fill="#A4133C"/>
<path d="M184.217 123.908C184.872 123.573 185.667 125.173 184.788 125.421C183.91 125.669 183.742 124.153 184.217 123.908Z" fill="#A4133C"/>
<path d="M166.635 116.379C167.361 115.803 167.915 116.524 167.518 116.928C167.121 117.332 166.09 117.659 165.836 117.174C165.582 116.688 166.635 116.379 166.635 116.379Z" fill="#A4133C"/>
<path d="M180.522 103.751C189.354 100.567 193.933 90.8255 190.749 81.993C187.565 73.1605 177.824 68.5815 168.992 71.7654C160.159 74.9494 155.58 84.6907 158.764 93.5231C161.948 102.356 171.689 106.935 180.522 103.751Z" fill="white"/>
<path d="M173.319 11.7423L177.832 1.69823" stroke="#3349C2" stroke-width="2" stroke-linecap="round"/>
<path d="M180.999 24.2429L192.239 16.587" stroke="#3349C2" stroke-width="2" stroke-linecap="round"/>
<path d="M116 21.9993L113 27.9993H94.9995L91.9995 21.9993L94.9995 15.9993H113L116 21.9993Z" fill="#3349C2"/>
<path d="M95.7495 7.99927H112.25C113.244 7.99927 114.198 8.35046 114.901 8.97558C115.604 9.6007 116 10.4485 116 11.3326V12.9993H91.9995V11.3326C91.9995 10.4485 92.3946 9.6007 93.0979 8.97558C93.8011 8.35046 94.7549 7.99927 95.7495 7.99927Z" fill="#F02E65"/>
<path d="M160.35 16.1462L159.595 22.8119L142.693 29.0001L137.813 24.3972L138.567 17.7316L155.47 11.5433L160.35 16.1462Z" fill="#3349C2"/>
<path d="M136.521 9.96103L152.015 4.28846C152.949 3.94654 153.966 3.94841 154.841 4.29365C155.716 4.63889 156.379 5.29923 156.683 6.1294L157.287 7.51161L134.75 15.7626L134.145 14.3804C133.842 13.5502 133.921 12.6182 134.367 11.7894C134.812 10.9606 135.587 10.3029 136.521 9.96103Z" fill="#F02E65"/>
<rect x="91.9995" y="12.9993" width="24" height="3" fill="white"/>
<path d="M107 90L98 94.5L107 99" stroke="#F02E65" stroke-width="2" stroke-linecap="round" stroke-linejoin="round"/>
<path d="M173 82.7758L182.949 84.2806L175.776 91.3371" stroke="#F02E65" stroke-width="2" stroke-linecap="round" stroke-linejoin="round"/>
<path d="M167.5 80.5L169.5 98" stroke="#F02E65" stroke-width="2" stroke-linecap="round" stroke-linejoin="round"/>
</svg>
