<svg width="81" height="38" viewBox="0 0 81 38" fill="none" xmlns="http://www.w3.org/2000/svg">
<g clip-path="url(#clip0_998_11722)">
<path d="M81.0079 19.4375H70.9766V37.9445H81.0079V19.4375Z" fill="#FB3640"></path>
<path d="M43.7891 19.4367C43.7891 21.123 43.7891 22.458 43.7891 23.4557C44.1475 33.105 49.6655 37.9297 60.343 37.9297H75.9065V30.0041H60.6684C59.7783 30.0773 58.8824 29.9747 58.0324 29.7021C57.1825 29.4296 56.3953 28.9925 55.7164 28.4162C54.5413 27.0177 53.9356 25.2332 54.0185 23.4135C53.9478 22.3877 53.9053 21.0668 53.9053 19.4508C53.9053 17.8347 53.9053 16.5279 54.0185 15.5442C53.9737 14.6306 54.1134 13.7174 54.4292 12.8583C54.7451 11.9991 55.2309 11.2114 55.8578 10.5415C57.2738 9.3653 59.0966 8.78536 60.9372 8.92551H75.9913V0.929688H60.6684C55.4192 0.929688 51.3303 2.1663 48.4298 4.65358C46.9342 6.00511 45.7503 7.66164 44.9591 9.50979C44.1679 11.3579 43.7881 13.3541 43.8457 15.3615C43.8174 16.3873 43.7891 17.7926 43.7891 19.4367Z" fill="#FB3640"></path>
<path d="M0.913933 19.4375H10.9453L10.9453 0.930473H0.913933L0.913933 19.4375Z" fill="#FB3640"></path>
<path d="M38.0817 15.3615C37.9261 10.7664 36.4122 7.14085 33.4551 4.65358C30.498 2.1663 26.5081 0.929688 21.259 0.929688H5.92188V8.85525H20.9902C22.8307 8.7151 24.6535 9.29504 26.0695 10.4713C26.6939 11.143 27.1779 11.9309 27.4936 12.7896C27.8094 13.6483 27.9505 14.5607 27.9088 15.4739C27.9796 16.4576 28.022 17.7504 28.022 19.3805C28.022 21.0106 28.022 22.3175 27.9088 23.3433C28.0116 25.1894 27.399 27.0045 26.1969 28.4162C25.5209 28.9928 24.7362 29.4301 23.8885 29.7027C23.0408 29.9753 22.1469 30.0778 21.259 30.0041H5.92188V37.9297H21.4854C32.1534 37.9297 37.6714 33.105 38.0393 23.4557C38.0393 22.458 38.0393 21.123 38.0393 19.4367C38.0393 17.7504 38.11 16.3873 38.0817 15.3615Z" fill="#FB3640"></path>
</g>
<defs>
<clipPath id="clip0_998_11722">
<rect width="80" height="37" fill="white" transform="translate(0.914062 0.929688)"></rect>
</clipPath>
</defs>
</svg>