<?xml version="1.0" encoding="UTF-8" standalone="no"?>
<!DOCTYPE svg PUBLIC "-//W3C//DTD SVG 1.1//EN" "http://www.w3.org/Graphics/SVG/1.1/DTD/svg11.dtd">
<svg width="100%" height="100%" viewBox="0 0 856 671" version="1.1" xmlns="http://www.w3.org/2000/svg" xmlns:xlink="http://www.w3.org/1999/xlink" xml:space="preserve" xmlns:serif="http://www.serif.com/" style="fill-rule:evenodd;clip-rule:evenodd;stroke-linejoin:round;stroke-miterlimit:2;">
    <g transform="matrix(3.70775,-2.29226,2.09086,3.6332,-567.725,276.439)">
        <g id="Layer-1" serif:id="Layer 1">
        </g>
    </g>
    <g id="Layer-11" serif:id="Layer 1" transform="matrix(4.16667,0,0,4.16667,0,0)">
        <g transform="matrix(0.889859,-0.550143,0.501807,0.871968,-136.254,66.3453)">
            <g transform="matrix(0.857947,0.513738,-0.513738,0.857947,462.368,884.254)">
                <path d="M-543,-497.9C-552.6,-503.5 -592.8,-494.9 -601.5,-501.8C-620.1,-516.5 -645.1,-525.1 -667.9,-515C-677.5,-510.8 -685.8,-504 -692.5,-496C-694.7,-493.4 -696.8,-490.6 -698.7,-487.8C-699.1,-487.2 -700.6,-484.7 -700.7,-484.5C-679.3,-493.2 -655.5,-486.8 -640.2,-470.1C-627.4,-456.2 -612.6,-446.2 -593.4,-443.6C-567.4,-440 -533.8,-460 -537.1,-495.8" style="fill:rgb(237,114,81);fill-rule:nonzero;"/>
            </g>
            <g transform="matrix(0.857947,0.513738,-0.513738,0.857947,98.5223,610.675)">
                <path d="M-215.3,-467.3C-224.9,-463.1 -233.2,-456.3 -239.9,-448.3C-242.1,-445.7 -244.214,-443.096 -246.114,-440.296C-246.514,-439.696 -247.889,-436.814 -247.989,-436.614C-238.354,-440.115 -228.7,-441.5 -219.2,-439.9C-214.1,-444.4 -209.2,-446.3 -207.4,-447.1C-203.1,-449.1 -195.3,-449.8 -195.3,-449.8C-196.3,-450.7 -197.7,-451.2 -198.9,-451.5C-200.4,-451.9 -201.9,-452.2 -203.4,-452.4C-206.6,-452.8 -209.8,-452.5 -212.8,-451.4C-210.1,-453.9 -207.6,-455.8 -204.4,-457.7C-195.2,-463.1 -188.8,-461.5 -189.1,-461.7C-191.9,-464 -195.6,-464.9 -199.1,-465C-201.1,-465.1 -203.1,-464.9 -205,-464.4C-199.5,-467.7 -193.3,-469.9 -187,-471.1C-196.5,-472.4 -206.1,-471.4 -215.3,-467.3" style="fill:rgb(249,238,222);fill-rule:nonzero;"/>
            </g>
        </g>
        <g transform="matrix(1,0,0,1,802.004,466.647)">
            <path d="M-618.5,-381.8C-618.5,-381.8 -621.6,-388.1 -627.2,-395.7C-623.5,-402.5 -622.2,-408.8 -624.8,-414.4L-644.9,-414.4C-651.4,-419.3 -658.9,-422.7 -666.9,-422.7C-675,-422.7 -682.4,-419.3 -688.9,-414.4L-709,-414.4C-711.6,-408.8 -710.3,-402.5 -706.6,-395.7C-712.1,-388.1 -715.3,-381.8 -715.3,-381.8C-715.3,-381.8 -701.1,-377.3 -687.9,-372.1C-681.1,-364.9 -673.6,-357.6 -667,-350.5L-666.9,-350.6L-666.8,-350.5C-660.2,-357.6 -652.8,-364.9 -645.9,-372.1C-632.7,-377.3 -618.5,-381.8 -618.5,-381.8" style="fill:rgb(249,238,222);fill-rule:nonzero;"/>
        </g>
        <g transform="matrix(0,-1,-1,0,692.925,478.986)">
            <path d="M397.1,532.6C395.1,532.6 393.5,534.2 393.5,536.2C393.5,538.2 395.1,539.8 397.1,539.8C399.1,539.8 400.7,538.2 400.7,536.2C400.7,534.2 399.1,532.6 397.1,532.6" style="fill:rgb(65,64,66);fill-rule:nonzero;"/>
        </g>
        <g transform="matrix(0,-1,-1,0,517.609,478.986)">
            <path d="M397.1,400.4C395.1,400.4 393.5,402 393.5,404C393.5,406 395.1,407.6 397.1,407.6C399.1,407.6 400.7,406 400.7,404C400.7,402 399.1,400.4 397.1,400.4" style="fill:rgb(65,64,66);fill-rule:nonzero;"/>
        </g>
        <path d="M170.7,45.4C170.8,35.1 166.7,25.2 158.4,17C155.5,24 148.5,31.4 143.5,38.7C140.7,38.5 137.9,38.5 135.2,38.5C132.5,38.5 129.7,38.6 126.9,38.7C121.8,31.3 114.8,23.9 112,17C103.7,25.2 99.6,35.1 99.7,45.4C93.6,49.2 90.3,54.9 92.4,63.3C110.8,68 123,70.9 135.2,116.2C147.4,71 159.6,68 178,63.3C180.1,54.8 176.8,49.1 170.7,45.4Z" style="fill:rgb(237,114,81);fill-rule:nonzero;"/>
        <g transform="matrix(0.75362,0.65731,0.65731,-0.75362,478.873,320.887)">
            <path d="M-461.3,-36.4C-464.6,-32.6 -466.8,-28.1 -467.9,-23.1C-465.7,-23.6 -463.5,-24 -461.3,-24.5C-459.1,-24.9 -456.9,-25.4 -454.8,-25.9L-461.3,-36.4Z" style="fill:rgb(153,68,51);fill-rule:nonzero;"/>
        </g>
        <g transform="matrix(0.75361,-0.657322,-0.657322,-0.75361,731.661,320.886)">
            <path d="M-247.3,581.7C-244,585.5 -241.8,590 -240.7,595C-242.9,594.5 -245.1,594.1 -247.3,593.6C-249.5,593.2 -251.7,592.7 -253.8,592.2L-247.3,581.7Z" style="fill:rgb(153,68,51);fill-rule:nonzero;"/>
        </g>
        <g transform="matrix(1,0,0,1,609.954,611.016)">
            <path d="M-473.7,-495.5L-471.5,-498.4C-470.9,-499.2 -471.3,-500.4 -472.3,-500.7C-474,-501.1 -475.7,-501.1 -477.4,-500.7C-478.4,-500.5 -478.8,-499.3 -478.2,-498.4L-476,-495.5C-475.4,-494.7 -474.2,-494.7 -473.7,-495.5" style="fill:rgb(65,64,66);fill-rule:nonzero;"/>
        </g>
    </g>
    <path d="M159,400C229.3,411.9 279.6,437.7 324.9,481.8C381.4,536.7 438,590.7 519.5,600C654.6,618.4 772,504.4 765,354.6C765,354.6 761.6,421.6 696.4,472.1C668.3,493.9 602.1,527.3 514.8,505.1C473.3,494.5 425.6,455.2 395.2,428.3C366.1,402.5 307.9,375.5 273,376C222.4,376.6 199.2,385.1 159,400Z" style="fill:rgb(50,71,91);fill-rule:nonzero;"/>
    <g>
        <g transform="matrix(1.02589,0.000945926,-0.000971612,1.05375,-4.18442,-18.9823)">
            <path d="M334.6,407.9C334.8,407.7 334.4,407.7 334.6,407.9L345.8,416C346,416.2 346.1,416.5 345.9,416.7L344.1,419C343.9,419.2 343.6,419.3 343.4,419.1L335.6,413.5C335.4,413.4 335.7,413.3 335.6,413.5L328.7,422.4C328.6,422.6 328.6,422.7 328.8,422.8L335.2,427.8C335.4,428 335.5,428.3 335.3,428.5L333.5,430.8C333.3,431 333,431.1 332.8,430.9L326.4,425.9C326.2,425.8 326.1,425.8 326,426L316.9,437.7C316.7,437.9 316.4,438 316.2,437.8L313.7,435.9C313.5,435.7 313.4,435.4 313.6,435.2L334.6,407.9Z" style="fill:rgb(249,238,222);fill-rule:nonzero;"/>
        </g>
        <g transform="matrix(1.08558,-0.0335517,0.031291,1.01244,-42.1325,7.27634)">
            <path d="M340.7,462C340.4,461.8 340.4,461.6 340.5,461.3L347.4,445.9C347,445.6 346.5,445.2 346.2,444.9L344.4,443.4C344.2,443.3 344.1,443.3 343.9,443.4L333.7,455.2C333.5,455.5 333.2,455.5 332.9,455.3L330.3,453C330,452.8 330,452.5 330.2,452.2L354.8,423.9C355,423.6 355.3,423.6 355.6,423.8L360.7,428.2C365.9,432.7 366.7,437.3 361.3,443.5C357.9,447.4 354.6,448.7 351.3,447.8L344.2,464.3C344.1,464.6 343.8,464.7 343.6,464.5L340.7,462ZM357.9,440.5C361.3,436.5 361.1,434.2 358,431.5L356.2,429.9C356,429.8 355.9,429.8 355.7,429.9L347.1,439.8C347,440 347,440.1 347.1,440.3L348.9,441.9C352,444.5 354.4,444.5 357.9,440.5Z" style="fill:rgb(249,238,222);fill-rule:nonzero;"/>
        </g>
        <path d="M352.9,467.2C353.7,465.3 354.7,464 363.2,454.6C371.7,445.3 372.9,444.2 374.7,443.2C378.6,441 382.6,441.5 386.3,444.9C390,448.3 390.9,452.3 389,456.3C388.2,458.2 387.2,459.5 378.7,468.9C370.2,478.2 369,479.3 367.2,480.3C363.4,482.6 359.3,482 355.6,478.6C351.9,475.3 351,471.3 352.9,467.2ZM364.6,475.9C365.8,475.2 366.5,474.6 374.9,465.4C383.3,456.2 383.8,455.4 384.4,454.2C385.3,452.3 384.8,450.3 383,448.7C381.3,447.1 379.3,446.8 377.5,447.9C376.3,448.6 375.5,449.2 367.2,458.4C358.8,467.6 358.3,468.4 357.7,469.7C356.8,471.6 357.3,473.6 359,475.1C360.7,476.6 362.7,476.9 364.6,475.9Z" style="fill:rgb(249,238,222);fill-rule:nonzero;"/>
        <path d="M399.2,460.2C399.5,459.9 399.9,459.9 400.1,460.2L403.5,463.8C403.9,464.2 403.9,464.6 403.7,465L386.3,495.1L386.5,495.3L410.7,472.4C411,472.1 411.4,472.1 411.6,472.4L414,474.9C414.3,475.2 414.3,475.6 414,475.8L382.7,505.5C382.4,505.8 382,505.8 381.8,505.5L378.6,502.1C378.2,501.7 378.2,501.3 378.4,500.9L395.6,470.6L395.4,470.4L371.2,493.3C370.9,493.6 370.5,493.6 370.3,493.3L367.9,490.8C367.6,490.5 367.6,490.1 367.9,489.9L399.2,460.2Z" style="fill:rgb(249,238,222);fill-rule:nonzero;"/>
        <path d="M393.4,516.8C393.1,516.5 393.1,516.2 393.4,515.9L419.8,487.9C420,487.7 420,487.5 419.8,487.3L414.5,482.3C414.2,482 414.2,481.7 414.5,481.4L417,478.8C417.3,478.5 417.6,478.5 417.9,478.8L433,493C433.3,493.3 433.3,493.6 433,493.9L430.5,496.5C430.2,496.8 429.9,496.8 429.6,496.5L424.3,491.5C424.1,491.3 423.9,491.3 423.7,491.5L397.3,519.5C397,519.8 396.7,519.8 396.4,519.5L393.4,516.8Z" style="fill:rgb(249,238,222);fill-rule:nonzero;"/>
        <path d="M412.9,513.7L415.1,511.1C415.4,510.8 415.7,510.8 416,511L427.7,520.7C428,521 428,521.3 427.8,521.6L425.6,524.2C425.3,524.5 425,524.5 424.7,524.3L413,514.6C412.7,514.3 412.7,514 412.9,513.7Z" style="fill:rgb(249,238,222);fill-rule:nonzero;"/>
        <path d="M447.5,505.6C447.7,505.3 448.1,505.2 448.4,505.4L462.4,514.6C462.7,514.8 462.8,515.2 462.6,515.5L460.6,518.5C460.4,518.8 460,518.9 459.7,518.7L449.9,512.2C449.7,512.1 449.5,512.1 449.4,512.3L441.8,523.9C441.7,524.1 441.7,524.3 441.9,524.4L450.4,530C450.7,530.2 450.8,530.6 450.6,530.9L448.6,533.9C448.4,534.2 448,534.3 447.7,534.1L439.2,528.5C439,528.4 438.8,528.4 438.7,528.6L430.8,540.6C430.7,540.8 430.7,541 430.9,541.1L440.7,547.6C441,547.8 441.1,548.2 440.9,548.5L438.9,551.5C438.7,551.8 438.3,551.9 438,551.7L424,542.5C423.7,542.3 423.6,541.9 423.8,541.6L447.5,505.6Z" style="fill:rgb(249,238,222);fill-rule:nonzero;"/>
        <path d="M465.1,517.1C465.2,516.7 465.6,516.6 466,516.7L470.5,518.6C471,518.8 471.2,519.1 471.2,519.6L467.7,554.2L467.9,554.3L480.6,523.5C480.7,523.1 481.1,523 481.5,523.1L484.7,524.4C485.1,524.5 485.2,524.9 485.1,525.3L468.7,565.2C468.6,565.6 468.2,565.7 467.8,565.6L463.5,563.8C463,563.6 462.8,563.3 462.8,562.8L466.1,528.1L465.8,528L453.1,558.8C453,559.2 452.6,559.3 452.2,559.2L449,557.9C448.6,557.8 448.5,557.4 448.6,557L465.1,517.1Z" style="fill:rgb(249,238,222);fill-rule:nonzero;"/>
        <path d="M489.9,526.2C490,525.8 490.3,525.6 490.7,525.7L499.7,527.6C505.2,528.7 507.9,531.7 508.3,536.5C508.6,539 508.2,542 506.2,551.7C504.2,561.4 503.3,564.3 502.1,566.5C499.8,570.7 496.2,572.3 490.7,571.2L481.7,569.3C481.3,569.2 481.1,568.9 481.2,568.5L489.9,526.2ZM487.6,565.4L491.2,566.1C494.1,566.7 496,565.9 497.5,563.5C498.4,561.8 499.2,559.5 501.1,550.4C503,541.3 503.2,538.9 503,537C502.6,534.3 501.2,532.8 498.3,532.2L494.7,531.5C494.4,531.4 494.3,531.5 494.2,531.8L487.4,565C487.3,565.2 487.4,565.4 487.6,565.4Z" style="fill:rgb(249,238,222);fill-rule:nonzero;"/>
        <path d="M528.1,532.8C528.1,532.4 528.4,532.2 528.8,532.2L545.5,533.5C545.9,533.5 546.1,533.8 546.1,534.2L545.8,537.8C545.8,538.2 545.5,538.4 545.1,538.4L533.4,537.5C533.1,537.5 533,537.6 533,537.9L531.9,552C531.9,552.3 532,552.4 532.3,552.4L542.5,553.2C542.9,553.2 543.1,553.5 543.1,553.9L542.8,557.5C542.8,557.9 542.5,558.1 542.1,558.1L531.9,557.3C531.6,557.3 531.5,557.4 531.5,557.7L530,576.3C530,576.7 529.7,576.9 529.3,576.9L525.3,576.6C524.9,576.6 524.7,576.3 524.7,575.9L528.1,532.8Z" style="fill:rgb(249,238,222);fill-rule:nonzero;"/>
        <path d="M551.1,572.1C550.4,570.2 550.2,568.5 549.9,555.9C549.7,543.3 549.8,541.7 550.4,539.7C551.7,535.4 555,533 560,532.9C565,532.8 568.5,535.1 569.9,539.3C570.6,541.2 570.8,542.9 571.1,555.5C571.3,568.1 571.2,569.7 570.6,571.7C569.4,576 566,578.4 561,578.5C556,578.7 552.6,576.4 551.1,572.1ZM565.5,570.4C565.9,569.1 566,568.1 565.7,555.7C565.5,543.3 565.3,542.3 564.9,541C564.2,539 562.5,537.9 560.1,538C557.7,538 556.1,539.2 555.5,541.2C555.1,542.5 555,543.5 555.2,555.9C555.4,568.3 555.6,569.3 556.1,570.6C556.8,572.6 558.4,573.7 560.8,573.6C563.3,573.6 564.9,572.4 565.5,570.4Z" style="fill:rgb(249,238,222);fill-rule:nonzero;"/>
        <path d="M595.6,572.9C595.2,572.9 595,572.7 594.8,572.4L587.5,558.9L587.4,558.9L584,573.9C583.9,574.3 583.8,574.5 583.4,574.6L579.6,575.1C579.2,575.1 579,574.9 579.1,574.6L584.1,553.3L574.4,535.7C574.2,535.4 574.4,535.1 574.7,535.1L578.3,534.6C578.7,534.6 578.9,534.8 579.1,535.1L585.6,547.3L585.7,547.3L588.6,533.8C588.7,533.4 588.9,533.2 589.2,533.1L592.9,532.6C593.3,532.6 593.5,532.8 593.4,533.1L588.8,552.6L599.4,571.7C599.6,572 599.4,572.3 599.1,572.3L595.6,572.9Z" style="fill:rgb(249,238,222);fill-rule:nonzero;"/>
        <path d="M600,532.3C599.9,532 600.1,531.7 600.4,531.6L614.5,527.6C614.8,527.5 615.1,527.7 615.2,528L616.1,531C616.2,531.3 616,531.6 615.7,531.7L605.8,534.5C605.6,534.6 605.5,534.7 605.6,534.9L608.9,546.6C609,546.8 609.1,546.9 609.3,546.8L617.9,544.4C618.2,544.3 618.5,544.5 618.6,544.8L619.5,547.8C619.6,548.1 619.4,548.4 619.1,548.5L610.5,550.9C610.3,551 610.2,551.1 610.3,551.3L613.7,563.4C613.8,563.6 613.9,563.7 614.1,563.6L624,560.8C624.3,560.7 624.6,560.9 624.7,561.2L625.6,564.2C625.7,564.5 625.5,564.8 625.2,564.9L611.1,568.9C610.8,569 610.5,568.8 610.4,568.5L600,532.3Z" style="fill:rgb(249,238,222);fill-rule:nonzero;"/>
        <path d="M644.3,556.9C639.2,559.4 635.2,557.7 632.2,552C632.1,551.7 632.1,551.5 632.3,551.3L635,549.3C635.3,549.1 635.6,549.2 635.8,549.5C638,553.6 640.1,554.4 642.7,553.2C645.3,552 645.9,550.1 643.7,545.6C641.8,541.7 640.4,540.6 637.2,540.9L634.8,541.1C629.3,541.5 626.9,539.8 624.4,534.6C621.6,528.8 622.7,524.6 627.8,522.2C632.9,519.8 636.6,521.4 639.3,526.6C639.4,526.9 639.4,527.2 639.1,527.4L636.5,529.2C636.2,529.4 635.9,529.4 635.8,529.1C634.1,525.8 632.2,524.7 629.6,525.9C627.1,527.1 626.6,529.2 628.3,532.6C630,536.1 631.3,536.9 634.6,536.6L637,536.4C642.2,536.1 644.8,537.6 647.5,543.2C650.6,550 650,554.2 644.3,556.9Z" style="fill:rgb(249,238,222);fill-rule:nonzero;"/>
    </g>
</svg>
