<?xml version="1.0" encoding="utf-8"?>
<!-- Generator: Adobe Illustrator 19.2.1, SVG Export Plug-In . SVG Version: 6.00 Build 0)  -->
<svg version="1.1" id="layer" xmlns="http://www.w3.org/2000/svg" xmlns:xlink="http://www.w3.org/1999/xlink" x="0px" y="0px"
	 viewBox="0 220 652 210" style="enable-background:new 0 0 652 652;" xml:space="preserve">
<style type="text/css">
	.st0{fill:#EC432D;}
	.st1{fill:#52C7EA;}
</style>
<path fill="#e3e6e7" d="M349,333.3c4.3-4.2,10.2-6.6,16.2-6.5c5.2-0.1,10.2,1.6,14.3,4.8l0.8,0.7l6.6-7.9l-0.8-0.6c-2.9-2.3-6.1-4.1-9.6-5.4
	c-3.6-1.3-7.5-1.9-11.3-1.9c-4.4,0-8.9,0.8-13,2.6c-3.9,1.7-7.5,4-10.6,7c-6.2,6.1-9.7,14.5-9.7,23.3c0,4.4,0.8,8.7,2.6,12.7
	c1.7,3.9,4.1,7.4,7.1,10.3c3.1,2.9,6.6,5.4,10.5,7c4.1,1.7,8.5,2.6,13,2.6c3.8,0,7.6-0.6,11.2-1.9c3.5-1.2,6.7-3.1,9.5-5.4l0.8-0.7
	l-6.5-7.8l-0.8,0.6c-4,3.2-8.8,4.8-14.3,4.8c-3.1,0-6.1-0.5-9-1.7c-5.4-2.2-9.7-6.6-12-12c-1.2-2.8-1.7-5.7-1.7-8.7
	c0-3.1,0.5-6.1,1.7-9C345.4,337.7,347,335.3,349,333.3z M434.5,333.8c3.5-3.4,7.2-6.9,11-10.4l0.8-0.7l-6.5-6.7l-0.7,0.7
	c-5.7,5.4-11.2,10.5-16.5,15.5c-4.7,4.4-9.6,9-14.7,13.7v-77.1h-10.5v112.1h10.5v-22.2l8.7-8.1l22.4,30.3h12.3l-27.2-37.3
	C427.7,340.3,431.2,337,434.5,333.8z M505.6,327.9c-0.5-0.7-1-1.3-1.6-2c-1.6-1.9-3.4-3.4-5.5-4.7c-2.3-1.5-4.7-2.6-7.3-3.4
	c-2.9-0.8-5.8-1.3-8.8-1.3c-4.4,0-8.7,0.8-12.7,2.6c-3.9,1.7-7.5,4.1-10.5,7.2c-3,3.1-5.4,6.7-7.1,10.6c-1.7,4-2.6,8.4-2.6,12.8
	c0,4.3,0.8,8.5,2.5,12.5c1.6,3.8,4,7.3,6.9,10.3c2.9,3,6.5,5.4,10.4,7c4.1,1.7,8.6,2.6,13.1,2.6c3,0,6.1-0.4,9-1.2
	c2.6-0.7,5-1.8,7.3-3.2c2-1.3,3.8-2.8,5.5-4.5c0.4-0.5,0.8-1,1.3-1.5c0,0.7,0,1.3,0,2v7.3h10.5v-62.9H506L505.6,327.9z M498.9,333.3
	c2,2,3.7,4.5,4.8,7.2c1.1,2.8,1.7,5.7,1.7,8.7c0.1,3.1-0.5,6.1-1.7,8.9c-2.3,5.4-6.6,9.7-12,12c-5.8,2.3-12.2,2.3-17.9,0
	c-11.5-4.9-16.8-18.2-12-29.7c1.1-2.6,2.8-5,4.8-7c6.7-6.4,16.6-8.2,25.1-4.7C494.4,329.6,496.8,331.3,498.9,333.3L498.9,333.3z
	 M622,321.8c-3.7-3.5-8.8-5.3-15.1-5.3c-6.2,0.1-11.4,1.7-15.6,4.7c-3.4,2.5-6.3,5.8-8.4,9.5c-1-3.7-3-7-5.9-9.5
	c-3.6-3.1-8.5-4.7-14.4-4.7c-6.3,0.1-11.7,1.8-15.9,5c-3.2,2.5-6,5.5-8,9c-0.1-1.1-0.1-2.3-0.2-3.5c-0.1-1.6-0.2-3.1-0.2-4.5
	c-0.1-1.4-0.1-2.7-0.2-3.7l-0.1-0.9h-9.1v63h10.5v-33.4c0-2.8,0.5-5.7,1.6-8.3c1-2.5,2.5-4.7,4.5-6.5c2-1.9,4.3-3.3,6.8-4.3
	c2.7-1,5.6-1.6,8.5-1.5c4.1,0.2,7.2,1.4,9.2,3.6c2,2.2,3.2,5.1,3.4,8.1v42.2h10.5v-33.8c0.1-2.8,0.7-5.5,1.7-8.1
	c1-2.4,2.5-4.6,4.4-6.4c1.9-1.8,4.2-3.2,6.7-4.2c2.6-1,5.5-1.6,8.4-1.5c4.1,0.2,7.3,1.4,9.3,3.6c2,2.2,3.2,5.1,3.4,8.2V381h10.5
	v-45.1C627.6,330,625.7,325.3,622,321.8z M270.5,279.3c25.5,0,46.2,20.7,46.2,46.2s-20.7,46.2-46.2,46.2s-46.2-20.7-46.2-46.2l0,0
	C224.4,299.9,245,279.3,270.5,279.3L270.5,279.3z M270.5,268.8c-31.3,0-56.6,25.4-56.6,56.6s25.4,56.6,56.6,56.6
	c31.3,0,56.6-25.4,56.6-56.6S301.8,268.8,270.5,268.8L270.5,268.8z"/>
<path class="st0" d="M72.2,259.7c2,0,3.6,1.6,3.6,3.6c0,2-1.6,3.6-3.6,3.6c-2,0-3.6-1.6-3.6-3.6C68.6,261.3,70.2,259.7,72.2,259.7z
	 M72.3,301.2c2,0,3.6,1.6,3.6,3.6s-1.6,3.6-3.6,3.6s-3.6-1.6-3.6-3.6S70.3,301.2,72.3,301.2z M144,384.1c2,0,3.6,1.6,3.6,3.6
	c0,2-1.6,3.6-3.6,3.6c-2,0-3.6-1.6-3.6-3.6C140.4,385.7,142,384.1,144,384.1z M36.4,321.9c2,0,3.6,1.6,3.6,3.6s-1.6,3.6-3.6,3.6
	c-2,0-3.6-1.6-3.6-3.6S34.4,321.9,36.4,321.9z M179.9,321.9c2,0,3.6,1.6,3.6,3.6s-1.6,3.6-3.6,3.6c-2,0-3.6-1.6-3.6-3.6
	S177.9,321.9,179.9,321.9z M144,259.7c2,0,3.6,1.6,3.6,3.6c0,2-1.6,3.6-3.6,3.6c-2,0-3.6-1.6-3.6-3.6
	C140.4,261.3,142,259.7,144,259.7z M144,342.6c2,0,3.6,1.6,3.6,3.6c0,2-1.6,3.6-3.6,3.6c-2,0-3.6-1.6-3.6-3.6
	C140.4,344.2,142,342.6,144,342.6z M72.3,342.6c2,0,3.6,1.6,3.6,3.6s-1.6,3.6-3.6,3.6s-3.6-1.6-3.6-3.6S70.3,342.6,72.3,342.6z
	 M144,301.2c2,0,3.6,1.6,3.6,3.6s-1.6,3.6-3.6,3.6c-2,0-3.6-1.6-3.6-3.6S142,301.2,144,301.2z M108.1,363.3c2,0,3.6,1.6,3.6,3.6
	c0,2-1.6,3.6-3.6,3.6s-3.6-1.6-3.6-3.6C104.5,364.9,106.1,363.3,108.1,363.3z M108.2,280.5c2,0,3.6,1.6,3.6,3.6s-1.6,3.6-3.6,3.6
	s-3.6-1.6-3.6-3.6S106.2,280.5,108.2,280.5z M72.2,384.1c2,0,3.6,1.6,3.6,3.6c0,2-1.6,3.6-3.6,3.6c-2,0-3.6-1.6-3.6-3.6
	C68.6,385.7,70.2,384.1,72.2,384.1z"/>
<path class="st1" d="M78.3,259.7c13.3-16.5,37.5-19.1,54-5.7c2.1,1.7,4,3.6,5.7,5.7c0.6-1,1.4-1.9,2.5-2.5c0.7-0.4,1.4-0.7,2.3-0.8
	c-15.2-19.1-43-22.2-62.1-7c-2.6,2.1-5,4.4-7,7C75.5,256.8,77.3,258,78.3,259.7z M114.2,280.5c5.9-7.3,14.3-12.2,23.6-13.7
	c-1-1.7-1.1-3.8-0.4-5.7c-11,1.6-21,7.4-27.9,16.2C111.5,277.5,113.1,278.7,114.2,280.5z M91.5,271.4c4.1,2.3,7.6,5.5,10.6,9.1
	c0.6-1,1.4-1.9,2.5-2.5c0.7-0.4,1.4-0.7,2.2-0.8c-6.9-8.8-16.9-14.6-27.9-16.2c0.3,0.7,0.4,1.6,0.4,2.3c0,1.2-0.3,2.3-0.9,3.4
	C83,267.5,87.5,269,91.5,271.4z M144,297.8c2,0,4,0.9,5.3,2.5c4.1-10.4,4.1-21.9,0.1-32.3c-0.5,0.6-1.1,1.1-1.9,1.6
	c-1,0.6-2.2,0.9-3.4,0.9C147.6,279.2,147.5,288.9,144,297.8L144,297.8z M138,301.2c1-1.7,2.8-2.9,4.7-3.2
	c-6.9-8.7-16.9-14.5-27.9-16.2c0.7,1.9,0.5,4-0.5,5.8C123.6,289,132,293.9,138,301.2z M154,267.5c20.6,5.5,32.7,26.6,27.2,47.1
	c-0.4,1.3-0.8,2.6-1.3,3.8c1.2,0,2.4,0.3,3.4,0.9c0.7,0.4,1.3,1,1.9,1.6c0.6-1.6,1.1-3.1,1.6-4.7c6.3-23.6-7.7-47.9-31.3-54.3l0,0
	c-1.6-0.4-3.2-0.8-4.9-1c0.7,1.9,0.5,4-0.5,5.8C151.4,266.9,152.7,267.2,154,267.5z M166.2,307.8c-4.8-2.8-10.1-4.6-15.6-5.4
	c0.7,1.9,0.5,4-0.5,5.8c9.3,1.4,17.7,6.3,23.7,13.6c1-1.7,2.8-2.9,4.7-3.2C175.1,314.3,170.9,310.6,166.2,307.8z M151,346.2
	c0,0.8-0.1,1.6-0.4,2.3c11.1-1.6,21-7.4,28-16.1c-2-0.3-3.7-1.5-4.7-3.2c-6,7.3-14.4,12.2-23.7,13.6C150.7,343.8,151,345,151,346.2z
	 M144.1,339.2c2,0.1,3.9,1,5.2,2.5c4.1-10.4,4.1-21.9,0-32.3c-1.3,1.5-3.2,2.4-5.2,2.5C147.5,320.6,147.5,330.4,144.1,339.2
	L144.1,339.2z M144.2,380.6c2,0.1,3.9,1,5.2,2.5c4.1-10.4,4.1-21.9,0-32.3c-1.3,1.6-3.2,2.5-5.2,2.5
	C147.5,362.1,147.5,371.8,144.2,380.6L144.2,380.6z M186.8,334.8c-0.4-1.6-1-3.2-1.6-4.7c-1.3,1.6-3.2,2.5-5.2,2.5
	c0.5,1.2,0.9,2.5,1.3,3.7c5.5,20.6-6.7,41.7-27.2,47.3l0,0c-1.3,0.3-2.5,0.6-3.8,0.8c1,1.7,1.2,3.9,0.5,5.8c1.6-0.2,3.2-0.6,4.9-1
	C179.1,382.7,193.2,358.4,186.8,334.8L186.8,334.8L186.8,334.8z M114.7,369.3c11.1-1.6,21-7.4,28-16.1c-2-0.4-3.7-1.6-4.7-3.2
	c-6,7.3-14.4,12.1-23.7,13.6C115.2,365.3,115.4,367.4,114.7,369.3z M124.7,379.6c-4.1-2.3-7.6-5.5-10.6-9.1c-0.6,1-1.4,1.9-2.5,2.5
	c-0.7,0.4-1.4,0.7-2.2,0.8c6.9,8.8,16.8,14.6,27.9,16.2c-0.7-1.9-0.5-4,0.5-5.7C133.2,383.5,128.8,382,124.7,379.6z M91.5,379.6
	c-4,2.3-8.5,3.9-13.1,4.7c1,1.7,1.1,3.8,0.4,5.7c11.1-1.6,21-7.5,27.9-16.2c-2-0.4-3.7-1.6-4.7-3.2
	C99.1,374.2,95.5,377.3,91.5,379.6z M138,391.3c-13.3,16.5-37.5,19.1-54,5.7c-2.1-1.7-4-3.6-5.7-5.7c-0.6,1-1.4,1.9-2.5,2.5
	c-0.7,0.4-1.4,0.7-2.2,0.8c15.2,19.1,43,22.2,62.1,7c2.6-2.1,5-4.4,7-7C140.7,394.2,139,393,138,391.3z M72.1,353.2
	c-1.2,0-2.4-0.3-3.4-0.9c-0.7-0.4-1.3-0.9-1.8-1.5c-4.1,10.4-4.1,21.9-0.1,32.3c0.5-0.6,1.1-1.1,1.8-1.6c1-0.6,2.2-0.9,3.4-0.9
	C68.7,371.8,68.7,362,72.1,353.2L72.1,353.2z M78.3,349.8c-1,1.7-2.8,2.9-4.7,3.2c6.9,8.7,16.9,14.5,28,16.2c-0.7-1.9-0.5-4,0.5-5.8
	C92.6,362,84.2,357.1,78.3,349.8z M31,320.9c1.3-1.6,3.2-2.4,5.2-2.5c-0.5-1.2-0.9-2.5-1.3-3.7c-5.5-20.6,6.7-41.7,27.2-47.2l0,0
	c1.3-0.3,2.5-0.6,3.8-0.8c-1-1.7-1.2-3.9-0.5-5.8c-1.6,0.2-3.2,0.6-4.8,1c-23.6,6.3-37.6,30.7-31.3,54.3
	C29.9,317.9,30.4,319.4,31,320.9z M50.1,343.2c4.8,2.8,10.1,4.6,15.6,5.4c-0.7-1.9-0.5-4,0.4-5.8c-9.3-1.4-17.7-6.3-23.7-13.6
	c-1,1.7-2.8,2.9-4.7,3.2C41.1,336.7,45.3,340.4,50.1,343.2z M62.2,383.5c-20.6-5.5-32.8-26.6-27.3-47.2l0,0c0.4-1.3,0.8-2.5,1.3-3.7
	c-1.2,0-2.4-0.3-3.4-0.9c-0.7-0.4-1.3-1-1.8-1.6c-0.6,1.5-1.1,3.1-1.6,4.7c-6.3,23.6,7.6,47.9,31.3,54.2c1.6,0.4,3.2,0.8,4.9,1
	c-0.7-1.9-0.5-4,0.5-5.7C64.8,384.1,63.5,383.8,62.2,383.5z M72.1,297.7c-3.4-8.8-3.4-18.5-0.1-27.3c-2-0.1-3.9-1-5.2-2.5
	c-4.1,10.4-4.1,21.9,0.1,32.3C68.2,298.7,70.1,297.7,72.1,297.7z M65.2,304.8c0-0.8,0.2-1.6,0.4-2.3c-11.1,1.6-21,7.4-28,16.1
	c0.8,0.1,1.6,0.4,2.2,0.8c1,0.6,1.9,1.4,2.5,2.5c6-7.3,14.4-12.2,23.8-13.6C65.5,307.2,65.2,306,65.2,304.8z M101.5,281.7
	c-11,1.7-21,7.5-28,16.2c2,0.4,3.7,1.6,4.7,3.3c6-7.3,14.4-12.1,23.7-13.6C101,285.7,100.8,283.6,101.5,281.7z M72.1,311.8
	c-2-0.1-3.9-1-5.2-2.5c-4.1,10.4-4.1,21.9-0.1,32.3c1.3-1.5,3.2-2.5,5.2-2.5C68.7,330.3,68.7,320.6,72.1,311.8L72.1,311.8z"/>
</svg>
