<svg width="105" height="32" viewBox="0 0 105 32" fill="none" xmlns="http://www.w3.org/2000/svg">
<g clip-path="url(#clip0)">
<path d="M15.9917 0C7.1819 0 0 7.20721 0 16.048C0 24.8889 7.1819 32.0961 15.9917 32.0961C24.8015 32.0961 31.9834 24.8889 31.9834 16.048C31.9834 7.20721 24.8015 0 15.9917 0ZM28.8234 22.006C28.8234 22.1982 28.8234 22.3904 28.7276 22.5826C28.5361 22.967 28.1531 23.1592 27.77 23.1592L26.7167 23.2553L23.5566 23.5435C23.1736 23.5435 22.8863 23.4475 22.5991 23.1592L21.45 22.006L20.3008 20.9489C20.2051 20.8529 20.0136 20.7568 19.8221 20.7568C19.5348 20.7568 19.2475 21.045 19.2475 21.3333C19.2475 21.5255 19.2475 21.6216 19.3433 21.7177L21.3542 24.1201L22.0245 24.985C22.5033 25.3694 22.5033 26.042 22.1203 26.5225C22.0245 26.7147 21.833 26.8108 21.6415 26.8108C21.2584 26.9069 20.8754 26.8108 20.5881 26.5225L19.7263 25.8499L16.5663 23.1592C16.279 22.967 15.8959 22.967 15.7044 23.1592L12.6402 26.042L11.8741 26.7147C11.491 27.1952 10.8207 27.1952 10.3419 26.8108C10.1504 26.7147 10.0547 26.5225 10.0547 26.3303C9.95891 25.9459 10.0547 25.5616 10.3419 25.2733L11.0123 24.5045L12.9274 22.006C13.0232 21.9099 13.0232 21.7177 13.0232 21.5255C13.0232 21.2372 12.7359 20.9489 12.3529 20.9489C12.1614 20.9489 11.9698 21.045 11.8741 21.1411L10.725 22.2943L9.57587 23.4474C9.2886 23.7357 9.00132 23.8318 8.61828 23.8318L5.45825 23.7357L4.4049 23.6396C3.83035 23.6396 3.35155 23.1592 3.35155 22.5826C3.35155 22.006 3.83035 21.5255 4.30914 21.5255L5.36249 21.4294L7.75646 21.1411C8.42677 21.045 8.8098 20.4685 8.8098 19.7958L8.71404 12.3964C8.61828 8.45646 11.7783 5.18919 15.7044 5.18919C19.6305 5.18919 22.8863 8.26427 22.8863 12.2042L22.9821 19.6036C22.9821 20.2763 23.4609 20.7568 24.1312 20.8529L26.5252 21.045H27.5785C28.2488 20.9489 28.7276 21.3333 28.8234 22.006Z" fill="white"/>
<path d="M14.1721 13.0688L12.8315 12.204L14.1721 11.3391C14.6509 11.0508 14.7467 10.6664 14.4594 10.2821C14.2679 9.89768 13.7891 9.89768 13.4061 10.186L11.2036 11.6274C10.6291 12.0118 10.6291 12.5884 11.2036 12.9728L13.4061 14.3181C13.8849 14.6064 14.2679 14.5103 14.4594 14.1259C14.6509 13.7415 14.5552 13.3571 14.1721 13.0688Z" fill="white"/>
<path d="M20.7797 11.7239L18.1942 10.0902C17.7154 9.80194 17.2366 10.1863 17.2366 10.7629C17.2366 11.0512 17.4281 11.2434 17.6196 11.3395L19.056 12.3004L17.5239 13.1653C17.2366 13.3575 17.1408 13.7419 17.2366 14.1263C17.4281 14.4145 17.8111 14.6067 18.0984 14.4145L20.6839 12.877C21.1627 12.5887 21.1627 12.0121 20.7797 11.7239Z" fill="white"/>
<path d="M57.2364 12.3969C56.9492 12.1086 56.5661 11.8203 55.9916 11.6281C55.417 11.4359 54.8425 11.3398 54.1721 11.3398C53.5976 11.3398 53.023 11.3398 52.4485 11.532C51.8739 11.6281 51.4909 11.7242 51.2036 11.8203L51.4909 13.6461C51.7782 13.5501 52.0655 13.454 52.5442 13.3579C53.023 13.2618 53.5018 13.2618 53.9806 13.2618C54.3637 13.2618 54.6509 13.3579 54.9382 13.454C55.1297 13.5501 55.417 13.6461 55.5128 13.8383C55.7043 14.0305 55.8 14.2227 55.8 14.4149C55.8958 14.7032 55.8958 14.8954 55.8958 15.1837V15.5681C55.6085 15.472 55.3213 15.3759 55.034 15.3759C54.2679 15.2798 53.5018 15.2798 52.7358 15.472C52.257 15.5681 51.8739 15.7603 51.4909 15.9525C51.1079 16.1446 50.8206 16.529 50.6291 16.9134C50.4376 17.2978 50.3418 17.7783 50.3418 18.3549C50.3418 18.9314 50.4376 19.4119 50.6291 19.7963C50.8206 20.1807 51.1079 20.469 51.3951 20.7573C51.7782 21.0456 52.1612 21.1416 52.64 21.3338C53.1188 21.526 53.5976 21.526 54.2679 21.526C55.034 21.526 55.8 21.526 56.5661 21.3338L58.0983 21.0455V15.1837C58.0983 14.6071 58.0025 14.1266 57.9067 13.6461C57.811 13.1657 57.5237 12.7813 57.2364 12.3969ZM55.9916 19.6041C55.6085 19.7002 55.1297 19.7002 54.4594 19.7002C53.8849 19.7002 53.4061 19.6041 53.1188 19.4119C52.8315 19.2197 52.64 18.8353 52.64 18.3549C52.64 18.0666 52.7358 17.8744 52.8315 17.6822C52.9273 17.49 53.1188 17.3939 53.3103 17.2978C53.5018 17.2017 53.7891 17.1056 53.9806 17.1056C54.2679 17.1056 54.4594 17.0095 54.7467 17.0095C55.2255 17.0095 55.6085 17.1056 56.0873 17.2017V19.6041H55.9916Z" fill="white"/>
<path d="M47.3734 17.0094L46.6073 15.9523C48.331 15.3758 49.1928 14.1265 49.1928 12.3968C49.1928 11.0514 48.714 9.99438 47.7565 9.3217C46.7989 8.64903 45.3625 8.26465 43.5431 8.26465L41.8194 8.36074C41.2449 8.36074 40.5746 8.45684 40 8.64903V21.3337H42.2982V16.5289H43.7346H44.2134L45.7455 18.7391L46.6073 20.0845L47.3734 21.4298H49.8631L49.0971 19.9884C48.6183 18.8352 48.0437 17.8743 47.3734 17.0094ZM46.5116 13.4538C46.3201 13.7421 46.1286 13.9343 45.8413 14.1265C45.554 14.3187 45.171 14.4148 44.7879 14.4148C44.4049 14.5109 43.8303 14.5109 43.2558 14.5109H42.2025V10.3788L43.5431 10.2827C43.9261 10.2827 44.4049 10.2827 44.7879 10.3788C45.171 10.4749 45.4582 10.571 45.7455 10.7631C46.0328 10.9553 46.2243 11.1475 46.4158 11.4358C46.6074 11.7241 46.6073 12.0124 46.6073 12.3968C46.7031 12.8773 46.6074 13.1655 46.5116 13.4538Z" fill="white"/>
<path d="M68.4403 14.3188C68.2488 13.7422 67.8658 13.1657 67.4827 12.6852C67.0039 12.2047 66.5252 11.9164 65.9506 11.7242C65.3761 11.532 64.7057 11.3398 63.9397 11.3398C63.2694 11.3398 62.5033 11.4359 61.833 11.532C61.1627 11.6281 60.5881 11.7242 60.2051 11.9164V24.6972H62.3118V20.9495C62.599 21.1416 62.8863 21.2377 63.2694 21.3338C63.6524 21.4299 64.1312 21.526 64.5142 21.526C65.1845 21.526 65.7591 21.4299 66.3336 21.1416C66.8124 20.9495 67.2912 20.5651 67.6743 20.0846C68.0573 19.6041 68.3446 19.0275 68.5361 18.451C68.7276 17.8744 68.8234 17.2017 68.8234 16.4329C68.7276 15.6642 68.6318 14.9915 68.4403 14.3188ZM66.5252 16.4329C66.5252 17.3939 66.3336 18.1627 65.9506 18.6431C65.5676 19.1236 64.993 19.508 64.2269 19.508C63.8439 19.508 63.5566 19.4119 63.1736 19.3158C62.8863 19.2197 62.599 19.1236 62.4075 18.9314V13.454C62.599 13.3579 62.8863 13.3579 63.0778 13.3579H63.7482C64.7057 13.3579 65.4718 13.6462 65.9506 14.2227C66.2379 14.7032 66.5252 15.472 66.5252 16.4329Z" fill="white"/>
<path d="M100.807 12.2043C100.137 11.7238 99.0833 11.4355 97.7427 11.4355L96.4978 11.5316C96.019 11.5316 95.636 11.6277 95.2529 11.7238V20.9491H96.5936V17.4896H97.6469C98.3172 17.4896 98.8918 17.3935 99.3706 17.2974C99.8493 17.2013 100.328 17.0091 100.711 16.8169C101.094 16.6247 101.381 16.2404 101.573 15.856C101.765 15.4716 101.86 14.9911 101.86 14.5106C101.86 13.4536 101.477 12.6848 100.807 12.2043ZM100.232 15.3755C100.137 15.6638 99.9451 15.856 99.6578 15.9521C99.3706 16.0482 99.0833 16.2404 98.7002 16.2404C98.413 16.3364 97.9342 16.3364 97.5511 16.3364H96.5936V12.6848H97.8384C98.1257 12.6848 98.5087 12.6848 98.796 12.7809C99.0833 12.7809 99.3706 12.9731 99.6578 13.0692C99.8493 13.1653 100.041 13.3575 100.232 13.6458C100.328 13.838 100.424 14.2223 100.424 14.5106C100.424 14.7989 100.424 15.1833 100.232 15.3755Z" fill="white"/>
<path d="M104.541 11.5312H103.201V20.9487H104.541V11.5312Z" fill="white"/>
<path d="M92.1886 15.7595L91.3267 13.5493L90.3692 11.5312H89.1243L88.1667 13.5493L87.3049 15.7595L86.3473 18.1619L85.2939 20.9487H86.6346L87.4964 18.5463H91.7098L92.0928 19.6994L92.5716 20.8526H94.008L92.9546 18.0658L92.1886 15.7595ZM91.4225 17.4892H87.9752L88.837 15.1829L89.6988 13.0688L90.5607 15.1829L91.4225 17.4892Z" fill="white"/>
<path d="M72.2708 11.5312H70.0684V21.237H72.2708V11.5312Z" fill="white"/>
<path d="M80.6976 11.9157C80.4103 11.8196 80.1231 11.6274 79.74 11.5313C79.357 11.4352 78.974 11.3392 78.4952 11.3392C77.8249 11.3392 77.2503 11.4352 76.6758 11.7235C76.197 11.9157 75.7182 12.3001 75.3351 12.7806C74.9521 13.2611 74.6648 13.7416 74.4733 14.4142C74.2818 15.0869 74.186 15.7596 74.186 16.5283C74.186 17.2971 74.2818 17.9698 74.5691 18.6425C74.7606 19.219 75.1436 19.7956 75.5267 20.2761C76.0055 20.7566 76.4842 21.0449 77.0588 21.2371C77.6333 21.4292 78.3037 21.6214 79.0697 21.6214C79.8358 21.6214 80.5061 21.5253 81.1764 21.4292C81.8467 21.3331 82.4213 21.2371 82.8043 21.0449V7.6875H80.6019V11.9157H80.6976ZM80.6976 19.4112L80.1231 19.5073C79.8358 19.5073 79.5485 19.5073 79.1655 19.5073C78.3037 19.5073 77.7291 19.219 77.2503 18.6425C76.7715 18.0659 76.58 17.2971 76.58 16.3361C76.58 15.3752 76.7715 14.6064 77.1546 14.1259C77.5376 13.5494 78.1121 13.2611 78.8782 13.2611C79.2612 13.2611 79.5485 13.3572 79.9316 13.4533C80.2188 13.5494 80.5061 13.7416 80.6976 13.8377V19.4112Z" fill="white"/>
<path d="M71.2176 7.39902C70.8345 7.39902 70.5473 7.49512 70.26 7.78341C69.9727 8.07169 69.877 8.35998 69.877 8.84046C69.877 9.22485 69.9727 9.60923 70.26 9.80142C70.5473 9.99362 70.8345 10.1858 71.2176 10.1858C71.6006 10.1858 71.8879 10.0897 72.1752 9.80142C72.4624 9.51313 72.5582 9.22485 72.5582 8.84046C72.5582 8.35998 72.4624 8.07169 72.1752 7.78341C71.8879 7.49512 71.6006 7.30292 71.2176 7.39902Z" fill="white"/>
</g>
<defs>
<clipPath id="clip0">
<rect width="105" height="32" fill="white"/>
</clipPath>
</defs>
</svg>