<svg width="328" height="179" viewBox="0 0 328 179" fill="none" xmlns="http://www.w3.org/2000/svg">
<path d="M0 120.309H298C314.569 120.309 328 133.74 328 150.309V178.564H20C8.95431 178.564 0 169.609 0 158.564V120.309Z" fill="#677662"/>
<g clip-path="url(#clip0_1343:4524)">
<path d="M121.208 157.851C121.208 160.39 119.134 162.448 116.576 162.448C115.388 162.448 114.304 162.004 113.485 161.274C114.798 160.687 115.712 159.377 115.712 157.855C115.712 156.33 114.796 155.019 113.479 154.433C114.3 153.7 115.386 153.254 116.576 153.254C119.134 153.254 121.208 155.312 121.208 157.851Z" fill="#DBE8D9"/>
<path d="M114.755 154.188C111.92 152.057 107.828 153.777 107.39 157.285C107.187 158.914 107.875 160.528 109.193 161.517C112.03 163.646 116.12 161.922 116.556 158.415C116.758 156.787 116.071 155.176 114.755 154.188V154.188ZM114.241 154.864C116.554 156.6 116.11 160.175 113.442 161.299C112.204 161.821 110.78 161.646 109.707 160.84C107.394 159.104 107.838 155.53 110.506 154.406C111.744 153.884 113.168 154.059 114.241 154.864Z" fill="#DBE8D9"/>
<path d="M126.46 154.491C127.091 154.491 127.628 154.653 128.073 154.979C128.518 155.305 128.823 155.737 128.99 156.275V154.569H129.777V160.779H128.99V159.073C128.823 159.612 128.518 160.044 128.073 160.37C127.628 160.696 127.091 160.859 126.46 160.859C125.897 160.859 125.394 160.73 124.949 160.472C124.504 160.215 124.159 159.845 123.912 159.363C123.665 158.882 123.541 158.319 123.541 157.674C123.541 157.022 123.665 156.456 123.912 155.974C124.159 155.493 124.503 155.126 124.943 154.871C125.384 154.617 125.89 154.491 126.46 154.491ZM126.665 155.195C125.966 155.195 125.405 155.417 124.983 155.861C124.562 156.304 124.351 156.909 124.351 157.674C124.351 158.44 124.562 159.045 124.983 159.488C125.405 159.932 125.966 160.153 126.665 160.153C127.106 160.153 127.503 160.051 127.856 159.846C128.21 159.642 128.487 159.352 128.688 158.977C128.89 158.601 128.99 158.167 128.99 157.674C128.99 157.181 128.89 156.748 128.688 156.373C128.487 155.997 128.21 155.707 127.856 155.502C127.503 155.298 127.106 155.195 126.665 155.195ZM134.839 154.491C135.409 154.491 135.913 154.617 136.35 154.871C136.787 155.126 137.129 155.493 137.376 155.974C137.623 156.456 137.746 157.022 137.746 157.674C137.746 158.319 137.623 158.882 137.376 159.363C137.129 159.845 136.785 160.215 136.344 160.472C135.903 160.73 135.402 160.859 134.839 160.859C134.201 160.859 133.661 160.696 133.22 160.37C132.779 160.044 132.475 159.612 132.308 159.073V163.713H131.51V154.569H132.308V156.275C132.475 155.737 132.779 155.305 133.22 154.979C133.661 154.653 134.201 154.491 134.839 154.491ZM134.623 155.195C134.182 155.195 133.785 155.298 133.431 155.502C133.078 155.707 132.802 155.997 132.605 156.373C132.407 156.748 132.308 157.181 132.308 157.674C132.308 158.167 132.407 158.601 132.605 158.977C132.802 159.352 133.078 159.642 133.431 159.846C133.785 160.051 134.182 160.153 134.623 160.153C135.329 160.153 135.892 159.932 136.31 159.488C136.728 159.045 136.937 158.44 136.937 157.674C136.937 156.909 136.728 156.304 136.31 155.861C135.892 155.417 135.329 155.195 134.623 155.195ZM142.512 154.491C143.082 154.491 143.585 154.617 144.022 154.871C144.459 155.126 144.802 155.493 145.049 155.974C145.296 156.456 145.419 157.022 145.419 157.674C145.419 158.319 145.296 158.882 145.049 159.363C144.802 159.845 144.458 160.215 144.017 160.472C143.576 160.73 143.074 160.859 142.512 160.859C141.873 160.859 141.334 160.696 140.893 160.37C140.452 160.044 140.148 159.612 139.981 159.073V163.713H139.183V154.569H139.981V156.275C140.148 155.737 140.452 155.305 140.893 154.979C141.334 154.653 141.873 154.491 142.512 154.491ZM142.295 155.195C141.854 155.195 141.457 155.298 141.104 155.502C140.75 155.707 140.475 155.997 140.277 156.373C140.08 156.748 139.981 157.181 139.981 157.674C139.981 158.167 140.08 158.601 140.277 158.977C140.475 159.352 140.75 159.642 141.104 159.846C141.457 160.051 141.854 160.153 142.295 160.153C143.002 160.153 143.565 159.932 143.983 159.488C144.401 159.045 144.609 158.44 144.609 157.674C144.609 156.909 144.401 156.304 143.983 155.861C143.565 155.417 143.002 155.195 142.295 155.195ZM154.255 154.479H155.76L154.061 160.779H152.282L150.926 156.196L149.534 160.779H147.756L146.069 154.479H147.677L148.703 159.346L150.104 154.479H151.803L153.217 159.346L154.255 154.479ZM158.165 155.684C158.401 155.283 158.712 154.966 159.1 154.735C159.488 154.504 159.921 154.388 160.399 154.388V156.105H159.932C158.754 156.105 158.165 156.651 158.165 157.743V160.779H156.558V154.479H158.165V155.684ZM161.106 152.67C161.106 152.413 161.198 152.202 161.38 152.04C161.563 151.877 161.802 151.795 162.098 151.795C162.395 151.795 162.634 151.877 162.817 152.04C162.999 152.202 163.09 152.413 163.09 152.67C163.09 152.921 162.999 153.127 162.817 153.291C162.634 153.454 162.395 153.535 162.098 153.535C161.802 153.535 161.563 153.454 161.38 153.291C161.198 153.127 161.106 152.921 161.106 152.67ZM161.289 154.479H162.897V160.779H161.289V154.479ZM167.103 159.403H167.73V160.779H166.886C166.179 160.779 165.638 160.609 165.262 160.268C164.886 159.926 164.697 159.358 164.697 158.562V155.832H163.82V154.479H164.697V152.921H166.305V154.479H167.719V155.832H166.305V158.584C166.305 158.888 166.366 159.1 166.487 159.221C166.609 159.342 166.814 159.403 167.103 159.403ZM174.821 157.39C174.821 157.549 174.802 157.731 174.765 157.936H170.136C170.158 158.497 170.31 158.91 170.592 159.176C170.873 159.441 171.223 159.574 171.641 159.574C172.013 159.574 172.323 159.483 172.569 159.3C172.816 159.119 172.974 158.873 173.043 158.562H174.741C174.658 159.002 174.479 159.396 174.206 159.744C173.932 160.093 173.581 160.366 173.151 160.563C172.722 160.76 172.245 160.859 171.721 160.859C171.105 160.859 170.558 160.728 170.079 160.467C169.6 160.205 169.228 159.832 168.962 159.346C168.695 158.861 168.562 158.289 168.562 157.629C168.562 156.969 168.695 156.395 168.962 155.906C169.228 155.417 169.6 155.044 170.079 154.786C170.558 154.528 171.105 154.4 171.721 154.4C172.344 154.4 172.889 154.528 173.357 154.786C173.824 155.044 174.185 155.398 174.439 155.849C174.694 156.3 174.821 156.814 174.821 157.39ZM173.202 157.231C173.225 156.715 173.091 156.325 172.798 156.06C172.505 155.794 172.146 155.662 171.721 155.662C171.287 155.662 170.922 155.794 170.626 156.06C170.329 156.325 170.166 156.715 170.136 157.231H173.202Z" fill="#DBE8D9"/>
<path d="M112.075 156.29C112.069 156.303 111.999 156.583 111.923 156.914C111.844 157.246 111.72 157.769 111.649 158.078C111.513 158.645 111.432 159.018 111.432 159.067C111.432 159.081 111.516 159.092 111.619 159.092H111.806L111.89 158.714C111.939 158.509 112.048 158.037 112.135 157.667C112.221 157.298 112.327 156.848 112.368 156.668C112.408 156.487 112.449 156.323 112.457 156.303C112.465 156.279 112.419 156.271 112.278 156.271C112.172 156.271 112.08 156.279 112.075 156.29ZM110.618 157.476L110.369 157.75L110.442 157.837C110.483 157.887 110.594 158.01 110.689 158.111L110.863 158.297H111.356L111.123 158.043C110.995 157.906 110.89 157.774 110.89 157.758C110.89 157.739 110.987 157.616 111.107 157.484C111.226 157.35 111.324 157.235 111.324 157.221C111.324 157.21 111.221 157.202 111.096 157.202H110.871L110.618 157.476ZM112.517 157.218C112.517 157.226 112.563 157.278 112.62 157.336C112.832 157.55 112.981 157.731 112.973 157.766C112.967 157.785 112.864 157.914 112.739 158.048L112.514 158.297H112.766L113.019 158.295L113.249 158.04C113.377 157.898 113.48 157.771 113.48 157.755C113.48 157.741 113.371 157.613 113.236 157.468L112.992 157.202H112.756C112.623 157.202 112.517 157.21 112.517 157.218Z" fill="#DBE8D9"/>
</g>
<g clip-path="url(#clip1_1343:4524)">
<path fill-rule="evenodd" clip-rule="evenodd" d="M226.225 152.729V162.942C226.238 162.942 226.707 162.942 226.901 162.955H229.867C231 162.955 231.962 162.698 232.743 162.209C233.524 161.709 234.122 161.079 234.512 160.295C234.91 159.537 235.116 158.696 235.111 157.842C235.111 156.993 234.904 156.171 234.513 155.388C234.123 154.605 233.524 153.962 232.744 153.474C231.949 152.972 231 152.729 229.868 152.729H226.225ZM231.39 155.029H227.695V156.159H231.39C231.542 156.159 231.687 156.1 231.795 155.994C231.902 155.888 231.962 155.744 231.962 155.594C231.962 155.444 231.902 155.3 231.795 155.194C231.687 155.088 231.542 155.029 231.39 155.029ZM227.695 159.499H232.223C232.299 159.497 232.375 159.511 232.446 159.538C232.517 159.566 232.582 159.607 232.637 159.66C232.691 159.712 232.735 159.775 232.764 159.845C232.794 159.914 232.809 159.989 232.809 160.064C232.809 160.14 232.794 160.214 232.764 160.284C232.735 160.353 232.691 160.416 232.637 160.469C232.582 160.522 232.517 160.563 232.446 160.59C232.375 160.618 232.299 160.631 232.223 160.629H227.695V159.499ZM230.258 157.264H227.695V158.395H230.258C230.41 158.395 230.556 158.335 230.663 158.229C230.77 158.123 230.831 157.979 230.831 157.829C230.831 157.679 230.77 157.536 230.663 157.43C230.556 157.324 230.41 157.264 230.258 157.264Z" fill="#DBE8D9"/>
<path d="M244.539 153.352V161.154H243.679L243.642 160.154C243.431 160.507 243.127 160.796 242.763 160.99C242.394 161.178 241.987 161.277 241.573 161.281C240.75 161.281 240.091 161.027 239.561 160.516C239.03 160.006 238.775 159.317 238.775 158.426C238.775 157.535 239.031 156.827 239.562 156.335C240.093 155.825 240.751 155.589 241.573 155.589C241.994 155.586 242.409 155.686 242.781 155.88C243.166 156.08 243.458 156.335 243.641 156.698V153.352H244.539ZM241.63 156.389C241.062 156.389 240.605 156.571 240.239 156.916C239.873 157.262 239.69 157.753 239.69 158.39C239.69 159.008 239.873 159.499 240.239 159.844C240.605 160.208 241.081 160.372 241.63 160.372C242.197 160.372 242.654 160.19 243.039 159.808C243.405 159.445 243.606 158.955 243.606 158.353C243.606 157.771 243.423 157.299 243.039 156.935C242.636 156.59 242.179 156.389 241.63 156.389Z" fill="#DBE8D9"/>
<path d="M251.167 160.297C250.893 160.625 250.545 160.862 250.107 161.026C249.682 161.191 249.23 161.277 248.773 161.281C247.915 161.281 247.202 161.026 246.672 160.497C246.143 159.969 245.869 159.278 245.869 158.401C245.869 157.563 246.143 156.889 246.672 156.342C247.202 155.795 247.895 155.541 248.737 155.541C249.632 155.541 250.343 155.814 250.874 156.377C251.405 156.94 251.605 157.726 251.513 158.783H246.819C246.873 159.275 247.074 159.676 247.458 159.986C247.823 160.296 248.28 160.441 248.828 160.441C249.166 160.443 249.5 160.381 249.815 160.259C250.143 160.131 250.399 159.967 250.583 159.749L251.167 160.297ZM250.638 158.019C250.62 157.49 250.437 157.089 250.108 156.798C249.779 156.506 249.322 156.36 248.774 156.36C248.281 156.36 247.842 156.506 247.477 156.798C247.112 157.089 246.892 157.49 246.82 158L250.638 158.019Z" fill="#DBE8D9"/>
<path d="M257.769 160.297C257.494 160.625 257.147 160.862 256.709 161.026C256.283 161.191 255.831 161.277 255.375 161.281C254.517 161.281 253.804 161.026 253.274 160.497C252.745 159.969 252.471 159.278 252.471 158.401C252.471 157.563 252.745 156.889 253.274 156.342C253.804 155.795 254.497 155.541 255.338 155.541C256.234 155.541 256.945 155.814 257.476 156.377C258.007 156.94 258.206 157.726 258.116 158.783H253.42C253.475 159.275 253.676 159.676 254.06 159.986C254.425 160.296 254.882 160.441 255.43 160.441C255.767 160.443 256.102 160.381 256.417 160.259C256.745 160.131 257.001 159.967 257.185 159.749L257.769 160.297ZM257.239 158.019C257.22 157.49 257.038 157.089 256.709 156.798C256.379 156.506 255.923 156.36 255.375 156.36C254.882 156.36 254.444 156.506 254.078 156.798C253.713 157.089 253.494 157.49 253.42 158L257.239 158.019Z" fill="#DBE8D9"/>
<path d="M259.389 155.698H260.276L260.312 156.747C260.527 156.386 260.841 156.092 261.218 155.897C261.598 155.696 262.023 155.591 262.455 155.589C263.269 155.607 263.935 155.878 264.453 156.385C264.97 156.91 265.231 157.58 265.231 158.412C265.231 159.262 264.972 159.95 264.436 160.475C263.9 161 263.234 161.253 262.383 161.253C261.96 161.254 261.543 161.161 261.162 160.982C260.783 160.804 260.472 160.512 260.274 160.149V163.713H259.368V155.698H259.389ZM263.773 159.878C264.143 159.516 264.328 159.046 264.328 158.431C264.328 157.833 264.143 157.344 263.773 157.001C263.403 156.657 262.941 156.476 262.349 156.476C261.757 156.476 261.295 156.657 260.925 157.037C260.555 157.399 260.389 157.869 260.389 158.449C260.389 159.009 260.573 159.48 260.943 159.842C261.313 160.222 261.776 160.403 262.349 160.421C262.938 160.421 263.401 160.24 263.771 159.878H263.773Z" fill="#DBE8D9"/>
<path d="M270.123 156.909C269.718 156.55 269.202 156.389 268.557 156.389C268.151 156.389 267.82 156.443 267.562 156.586C267.304 156.729 267.174 156.926 267.174 157.177C267.174 157.607 267.654 157.876 268.556 157.983C268.814 158.019 269.035 158.037 269.201 158.073C269.367 158.108 269.57 158.163 269.809 158.234C270.049 158.306 270.232 158.395 270.38 158.521C270.528 158.628 270.639 158.79 270.749 158.969C270.86 159.165 270.896 159.38 270.896 159.649C270.896 160.169 270.657 160.563 270.214 160.848C269.772 161.133 269.219 161.281 268.556 161.281C267.45 161.281 266.621 160.941 266.068 160.26L266.602 159.633C267.063 160.189 267.726 160.475 268.592 160.475C268.929 160.479 269.262 160.412 269.569 160.278C269.846 160.153 269.993 159.938 270.012 159.633C270.012 159.364 269.901 159.167 269.624 159.042C269.347 158.917 268.997 158.827 268.5 158.774C268.227 158.742 267.956 158.694 267.69 158.63C267.454 158.57 267.225 158.486 267.008 158.379C266.791 158.28 266.606 158.125 266.474 157.931C266.345 157.734 266.29 157.501 266.29 157.215C266.29 156.856 266.399 156.534 266.639 156.301C266.879 156.05 267.155 155.871 267.487 155.781C267.819 155.674 268.169 155.638 268.556 155.638C269.422 155.638 270.122 155.871 270.675 156.355L270.123 156.909Z" fill="#DBE8D9"/>
<path d="M272.636 156.342C273.183 155.795 273.857 155.541 274.681 155.541C275.521 155.541 276.215 155.814 276.744 156.342C277.274 156.871 277.547 157.582 277.547 158.438C277.547 159.275 277.273 159.951 276.744 160.48C276.196 161.008 275.522 161.281 274.681 161.281C273.859 161.281 273.165 161.008 272.636 160.48C272.088 159.951 271.833 159.26 271.833 158.438C271.832 157.582 272.088 156.889 272.636 156.342ZM276.105 156.944C275.74 156.56 275.265 156.36 274.699 156.36C274.133 156.36 273.658 156.543 273.293 156.925C272.928 157.308 272.745 157.8 272.745 158.402C272.745 158.985 272.928 159.459 273.293 159.823C273.658 160.188 274.131 160.388 274.699 160.388C275.267 160.388 275.74 160.206 276.105 159.823C276.47 159.459 276.671 158.967 276.671 158.402C276.653 157.818 276.472 157.326 276.105 156.944Z" fill="#DBE8D9"/>
<path d="M283.212 161.19L283.177 160.318C282.704 160.954 282.066 161.263 281.265 161.281C280.554 161.281 279.971 161.045 279.534 160.591C279.097 160.137 278.878 159.519 278.878 158.72V155.687H279.789V158.72C279.789 159.247 279.935 159.664 280.226 159.973C280.518 160.282 280.937 160.427 281.445 160.427C281.937 160.427 282.356 160.246 282.664 159.901C282.972 159.556 283.138 159.137 283.138 158.629V155.687H284.051V161.19H283.212Z" fill="#DBE8D9"/>
<path d="M286.606 155.681L286.679 156.494C287.009 155.898 287.577 155.592 288.383 155.592C288.849 155.568 289.306 155.716 289.667 156.006L289.246 156.783C288.963 156.582 288.623 156.475 288.275 156.476C287.844 156.47 287.429 156.633 287.118 156.927C286.807 157.234 286.642 157.613 286.642 158.101V161.135H285.726V155.68L286.606 155.681Z" fill="#DBE8D9"/>
<path d="M294.988 160.429C294.418 160.991 293.721 161.281 292.913 161.281C292.087 161.281 291.408 161.027 290.838 160.519C290.287 160.012 290.012 159.323 290.012 158.435C290.012 157.548 290.287 156.858 290.838 156.351C291.389 155.844 292.087 155.589 292.913 155.589C293.685 155.589 294.363 155.861 294.932 156.404L294.345 157.006C293.959 156.644 293.502 156.445 292.931 156.445C292.36 156.445 291.885 156.626 291.517 156.988C291.131 157.351 290.948 157.82 290.948 158.42C290.948 159.036 291.132 159.525 291.517 159.869C291.903 160.213 292.362 160.395 292.931 160.395C293.518 160.395 293.996 160.196 294.381 159.815L294.988 160.429Z" fill="#DBE8D9"/>
<path d="M301.024 160.297C300.75 160.625 300.403 160.862 299.965 161.026C299.539 161.191 299.087 161.277 298.631 161.281C297.773 161.281 297.059 161.026 296.53 160.497C296.001 159.969 295.727 159.278 295.727 158.401C295.727 157.563 296.001 156.889 296.53 156.342C297.059 155.795 297.753 155.541 298.595 155.541C299.49 155.541 300.201 155.814 300.732 156.377C301.263 156.94 301.463 157.726 301.371 158.783H296.677C296.731 159.275 296.932 159.676 297.316 159.986C297.681 160.296 298.138 160.441 298.686 160.441C299.023 160.443 299.358 160.381 299.673 160.259C300.001 160.131 300.257 159.967 300.441 159.749L301.024 160.297ZM300.494 158.019C300.476 157.49 300.294 157.089 299.965 156.798C299.636 156.506 299.179 156.36 298.631 156.36C298.138 156.36 297.699 156.506 297.334 156.798C296.969 157.089 296.749 157.49 296.677 158L300.494 158.019Z" fill="#DBE8D9"/>
</g>
<g clip-path="url(#clip2_1343:4524)">
<path d="M188.686 149.511H186.423V151.78H188.686V149.511Z" fill="#DBE8D9"/>
<path d="M188.632 161.332V153.16H186.49V161.332H188.632ZM202.868 161.413V159.41C202.554 159.41 202.288 159.394 202.095 159.362C201.869 159.33 201.7 159.249 201.588 159.136C201.475 159.023 201.402 158.861 201.362 158.651C201.33 158.45 201.314 158.183 201.314 157.86V155.001H202.868V153.16H201.314V149.97H199.164V157.876C199.164 158.546 199.22 159.112 199.333 159.564C199.446 160.008 199.639 160.371 199.905 160.646C200.171 160.921 200.525 161.114 200.952 161.236C201.386 161.357 201.934 161.413 202.586 161.413H202.868ZM215.171 161.332V149.34H213.021V161.332H215.171ZM197.095 153.96C196.499 153.314 195.661 152.991 194.599 152.991C194.083 152.991 193.616 153.096 193.189 153.305C192.771 153.515 192.408 153.806 192.127 154.178L192.006 154.331V154.194V153.16H189.888V161.332H192.022V156.98V157.279C192.022 157.23 192.022 157.182 192.022 157.133C192.046 156.366 192.231 155.801 192.586 155.437C192.964 155.05 193.423 154.856 193.946 154.856C194.566 154.856 195.041 155.05 195.355 155.421C195.661 155.793 195.822 156.318 195.822 156.988V157.004V161.324H197.988V156.689C197.996 155.526 197.691 154.606 197.095 153.96ZM211.91 157.23C211.91 156.641 211.806 156.091 211.604 155.575C211.395 155.066 211.105 154.614 210.743 154.226C210.372 153.838 209.929 153.54 209.414 153.322C208.899 153.104 208.327 152.999 207.707 152.999C207.119 152.999 206.564 153.112 206.048 153.33C205.533 153.556 205.082 153.855 204.704 154.234C204.325 154.614 204.019 155.066 203.802 155.583C203.576 156.1 203.472 156.657 203.472 157.246C203.472 157.836 203.576 158.393 203.786 158.91C203.995 159.427 204.293 159.879 204.663 160.258C205.034 160.638 205.493 160.945 206.024 161.163C206.556 161.389 207.143 161.502 207.772 161.502C209.591 161.502 210.719 160.67 211.395 159.895L209.849 158.716C209.527 159.104 208.754 159.629 207.788 159.629C207.184 159.629 206.685 159.491 206.306 159.209C205.928 158.934 205.67 158.546 205.533 158.07L205.509 157.997H211.91V157.23ZM205.525 156.479C205.525 155.882 206.209 154.84 207.683 154.832C209.156 154.832 209.849 155.873 209.849 156.471L205.525 156.479Z" fill="#DBE8D9"/>
</g>
<g clip-path="url(#clip3_1343:4524)">
<path d="M28.9243 163.709V161.345C31.4629 161.345 33.4211 158.874 32.4424 156.259C32.2643 155.773 31.9803 155.333 31.6106 154.968C31.2409 154.603 30.7944 154.322 30.3028 154.146C29.7322 153.935 29.1183 153.862 28.5132 153.935C27.9081 154.008 27.3298 154.224 26.8276 154.565C26.3254 154.906 25.9142 155.362 25.6289 155.894C25.3436 156.426 25.1927 157.018 25.1891 157.62H22.7954C22.7954 153.68 26.6762 150.563 30.9189 151.853C31.8306 152.136 32.6597 152.632 33.3354 153.3C34.0111 153.967 34.5134 154.786 34.7997 155.686C36.1054 159.877 32.9499 163.709 28.9243 163.709Z" fill="#DBE8D9"/>
<path d="M28.9607 161.344H26.567V159.016H28.9607V161.344ZM26.567 163.171H24.7537V161.344H26.567V163.171ZM24.7537 161.344H23.2324V159.84H24.7537V161.344ZM44.6644 155.076C43.9755 154.61 43.0689 154.357 42.053 154.357H39.8413V161.341H42.0537C43.0693 161.341 43.9398 161.091 44.6652 160.589C45.0613 160.305 45.3741 159.922 45.5718 159.479C45.7903 159.013 45.8981 158.44 45.8981 157.831C45.8981 157.222 45.7896 156.649 45.5718 156.219C45.3533 155.685 45.0635 155.327 44.6644 155.076ZM41.147 155.542H41.836C42.5977 155.542 43.2502 155.685 43.7578 156.008C44.3018 156.33 44.5588 156.942 44.5588 157.835C44.5588 158.727 44.2675 159.375 43.7578 159.733C43.2866 160.021 42.6698 160.199 41.8716 160.199H41.147V155.542ZM47.4572 154.252C47.3564 154.25 47.2561 154.268 47.1626 154.305C47.069 154.342 46.9842 154.397 46.9132 154.468C46.8306 154.531 46.7644 154.613 46.7202 154.706C46.676 154.8 46.655 154.902 46.6591 155.005C46.6591 155.205 46.7393 155.396 46.8822 155.537C47.025 155.678 47.2188 155.757 47.4208 155.757C47.6228 155.757 47.8166 155.678 47.9594 155.537C48.1023 155.396 48.1825 155.205 48.1825 155.005C48.1852 154.906 48.1672 154.807 48.1296 154.714C48.092 154.622 48.0357 154.538 47.9641 154.468C47.8556 154.324 47.6728 154.252 47.4543 154.252H47.4572ZM46.7989 156.402H48.0682V161.309H46.804V156.402H46.7989ZM52.6066 156.833C52.2425 156.511 51.8055 156.296 51.3373 156.296C51.0176 156.289 50.7002 156.35 50.4062 156.474C50.1121 156.598 49.8484 156.782 49.6325 157.015C49.1795 157.489 48.9322 158.119 48.9435 158.77C48.9435 159.451 49.162 160.059 49.599 160.525C50.0359 160.991 50.6141 161.206 51.3038 161.206C51.7475 161.213 52.1811 161.075 52.5367 160.812V160.919C52.5367 161.313 52.4282 161.638 52.2104 161.854C51.9927 162.07 51.7006 162.176 51.3038 162.176C50.7212 162.176 50.3607 161.96 49.9259 161.352L49.0521 162.176L49.0885 162.212C49.2698 162.463 49.5596 162.715 49.9223 162.964C50.285 163.213 50.7561 163.324 51.3001 163.324C52.0619 163.324 52.6423 163.108 53.077 162.643C53.5118 162.178 53.7659 161.604 53.7659 160.852V156.402H52.5345V156.833H52.6073H52.6066ZM52.2811 159.734C52.0626 159.985 51.7713 160.094 51.4072 160.094C51.0431 160.094 50.7518 159.987 50.5333 159.734C50.3148 159.482 50.207 159.159 50.207 158.767C50.207 158.375 50.3228 158.049 50.5413 157.798C50.7598 157.547 51.0511 157.438 51.4152 157.438C51.7793 157.438 52.0706 157.546 52.2891 157.798C52.5075 158.05 52.6153 158.373 52.6153 158.765C52.6153 159.157 52.5068 159.484 52.2891 159.732L52.2811 159.734ZM54.9362 156.401H56.2055V161.308H54.9282V156.402L54.9362 156.401ZM55.545 154.252C55.4443 154.25 55.3441 154.268 55.2506 154.305C55.157 154.342 55.0721 154.397 55.0008 154.467C54.9296 154.538 54.8736 154.621 54.8362 154.714C54.7988 154.806 54.7808 154.905 54.7833 155.005C54.7833 155.204 54.8635 155.395 55.0064 155.536C55.1492 155.677 55.343 155.757 55.545 155.757C55.747 155.757 55.9408 155.677 56.0836 155.536C56.2265 155.395 56.3067 155.204 56.3067 155.005C56.3092 154.905 56.2912 154.806 56.2538 154.714C56.2163 154.621 56.1603 154.537 56.089 154.467C56.0176 154.397 55.9326 154.341 55.8389 154.304C55.7453 154.268 55.6451 154.25 55.5443 154.252H55.545ZM58.916 155.076H57.6846V156.402H56.9563V157.512H57.6846V159.554C57.6846 160.201 57.8302 160.664 58.0836 160.915C58.3371 161.166 58.8119 161.309 59.4258 161.309C59.6321 161.315 59.8385 161.303 60.0426 161.273H60.1154V160.162L59.6785 160.198C59.3872 160.198 59.1687 160.162 59.0959 160.054C58.9874 159.947 58.9502 159.732 58.9502 159.407V157.548H60.1111V156.437H58.9539L58.916 155.076ZM65.9515 154.357H67.2208V161.341H65.953V154.361L65.9515 154.357ZM79.8798 159.591C79.6943 159.802 79.4877 159.995 79.263 160.166C79.0654 160.284 78.8386 160.346 78.6075 160.345C78.4374 160.343 78.2694 160.307 78.1141 160.239C77.9587 160.17 77.8193 160.071 77.7045 159.947C77.4504 159.66 77.3404 159.338 77.3404 158.908C77.3404 158.478 77.4489 158.156 77.7045 157.869C77.8147 157.739 77.9538 157.636 78.1111 157.567C78.2684 157.499 78.4395 157.467 78.6112 157.475C79.0103 157.475 79.445 157.726 79.8077 158.156L80.6415 157.365C80.0975 156.684 79.4086 156.362 78.574 156.362C77.8851 156.362 77.3047 156.613 76.7971 157.114C76.3221 157.606 76.0608 158.262 76.0689 158.941C76.0689 159.66 76.3231 160.302 76.7971 160.768C77.0227 161.011 77.2977 161.203 77.604 161.332C77.9102 161.462 78.2409 161.526 78.574 161.52C79.4807 161.52 80.206 161.126 80.7136 160.41L79.8798 159.586V159.591ZM84.9934 157.115C84.8026 156.867 84.5524 156.669 84.2652 156.54C83.9361 156.389 83.5763 156.315 83.2136 156.324C82.5247 156.324 81.9443 156.575 81.5088 157.076C81.0967 157.597 80.8789 158.242 80.892 158.903C80.892 159.655 81.1105 160.264 81.5809 160.73C82.0514 161.196 82.6325 161.449 83.3942 161.449C84.2281 161.449 84.9177 161.127 85.4617 160.446L85.4981 160.41L84.6643 159.619C84.5915 159.726 84.483 159.798 84.373 159.907C84.2701 160.014 84.1462 160.099 84.0089 160.158C83.8202 160.26 83.607 160.31 83.3921 160.302C83.0762 160.306 82.7681 160.205 82.5182 160.014C82.2997 159.835 82.1919 159.583 82.154 159.262H85.4908V158.796C85.499 158.478 85.4496 158.162 85.3452 157.861C85.2921 157.584 85.1666 157.324 84.9811 157.109L84.9934 157.115ZM82.2735 158.264C82.329 158.047 82.4415 157.849 82.5997 157.689C82.6854 157.604 82.7879 157.539 82.9008 157.495C83.0136 157.452 83.1343 157.433 83.2551 157.438C83.5464 157.438 83.7991 157.51 83.9441 157.689C84.0897 157.833 84.1625 158.048 84.1982 158.264H82.2735ZM89.8173 156.795C89.4532 156.473 88.9106 156.329 88.2581 156.329C87.8591 156.34 87.4658 156.426 87.0988 156.581C86.7725 156.76 86.4434 157.012 86.2649 157.372L87.066 158.124C87.3923 157.587 87.7549 157.405 88.2625 157.405C88.4998 157.398 88.7318 157.475 88.9179 157.62C89.0006 157.683 89.0667 157.765 89.1109 157.859C89.1552 157.952 89.1761 158.054 89.1721 158.158V158.408C88.88 158.311 88.5736 158.263 88.2654 158.265C87.6488 158.265 87.141 158.408 86.7419 158.696C86.3429 158.984 86.1594 159.415 86.1594 159.914C86.1594 160.38 86.305 160.738 86.6305 161.024C86.956 161.31 87.3588 161.418 87.827 161.418C88.2953 161.418 88.7337 161.239 89.1692 160.915V161.309H90.4021V158.157C90.4021 157.582 90.2207 157.118 89.8195 156.796L89.8173 156.795ZM87.6071 159.446C87.7527 159.339 87.9333 159.302 88.1897 159.302C88.5116 159.313 88.8298 159.373 89.1327 159.481V159.947C88.8326 160.208 88.4445 160.349 88.0448 160.341C87.8263 160.341 87.6457 160.305 87.535 160.197C87.4243 160.09 87.3537 159.982 87.3537 159.838C87.3665 159.759 87.3957 159.683 87.4394 159.615C87.4831 159.547 87.5404 159.489 87.6078 159.444L87.6071 159.446ZM95.2208 156.867C94.8567 156.473 94.387 156.292 93.7701 156.292C93.2623 156.292 92.8635 156.435 92.5737 156.723V156.435H91.34V161.343H92.6093V158.622C92.6093 158.263 92.6822 157.941 92.8635 157.727C92.9523 157.622 93.0639 157.539 93.1901 157.483C93.3162 157.427 93.4536 157.4 93.5917 157.405C93.7161 157.399 93.8402 157.422 93.9541 157.472C94.0679 157.522 94.1683 157.597 94.2471 157.692C94.4175 157.921 94.5068 158.199 94.5013 158.483V161.349H95.7648V158.479C95.7284 157.798 95.5471 157.261 95.2208 156.867ZM64.3938 156.795C64.0297 156.473 63.4872 156.329 62.8347 156.329C62.4352 156.34 62.0413 156.425 61.6739 156.58C61.3476 156.759 61.0184 157.011 60.84 157.371L61.6411 158.123C61.9673 157.586 62.33 157.404 62.8376 157.404C63.0749 157.398 63.3069 157.474 63.493 157.62C63.5756 157.683 63.6418 157.764 63.686 157.858C63.7302 157.951 63.7512 158.054 63.7471 158.157V158.408C63.4551 158.31 63.1487 158.262 62.8405 158.264C62.2239 158.264 61.7161 158.408 61.317 158.695C60.9179 158.983 60.7344 159.414 60.7344 159.913C60.7344 160.379 60.8801 160.737 61.2056 161.024C61.5311 161.31 61.9338 161.418 62.4021 161.418C62.8703 161.418 63.3087 161.239 63.7442 160.914V161.308H64.9771V158.157C64.9771 157.582 64.7587 157.118 64.3945 156.796L64.3938 156.795ZM62.1457 159.446C62.2914 159.339 62.472 159.302 62.7283 159.302C63.0502 159.313 63.3684 159.373 63.6714 159.481V159.947C63.3712 160.208 62.9832 160.349 62.5834 160.341C62.3649 160.341 62.1843 160.305 62.0737 160.197C61.963 160.09 61.8923 159.982 61.8923 159.838C61.9465 159.69 62.0333 159.555 62.1465 159.444L62.1457 159.446ZM71.7592 161.45C71.0416 161.45 70.34 161.24 69.7432 160.847C69.1463 160.454 68.6811 159.894 68.4063 159.24C68.1314 158.585 68.0594 157.865 68.1992 157.17C68.339 156.475 68.6845 155.836 69.1918 155.335C69.6991 154.834 70.3456 154.493 71.0494 154.354C71.7532 154.216 72.4828 154.287 73.1458 154.558C73.8088 154.829 74.3756 155.288 74.7743 155.877C75.173 156.467 75.3858 157.159 75.3858 157.868C75.3824 158.817 74.9992 159.725 74.3199 160.396C73.6405 161.068 72.7201 161.446 71.7592 161.45ZM71.7592 155.504C71.2927 155.504 70.8365 155.639 70.4483 155.895C70.0601 156.15 69.7573 156.513 69.5782 156.939C69.3991 157.364 69.3518 157.832 69.4423 158.284C69.5327 158.736 69.7569 159.151 70.0864 159.477C70.4159 159.803 70.8359 160.025 71.2933 160.116C71.7507 160.206 72.225 160.16 72.6561 159.984C73.0872 159.808 73.4558 159.51 73.7152 159.127C73.9747 158.745 74.1133 158.295 74.1136 157.834C74.1143 157.528 74.0537 157.225 73.9355 156.942C73.8173 156.66 73.6437 156.403 73.4247 156.186C73.2057 155.97 72.9455 155.799 72.6592 155.682C72.3729 155.565 72.0661 155.505 71.7563 155.506" fill="#DBE8D9"/>
</g>
<path d="M143.145 134.23C143.145 134.694 142.985 135.08 142.665 135.39C142.35 135.694 141.868 135.846 141.217 135.846H140.145V138.174H139.417V132.598H141.217C141.846 132.598 142.324 132.75 142.649 133.054C142.98 133.358 143.145 133.75 143.145 134.23ZM141.217 135.246C141.622 135.246 141.921 135.158 142.113 134.982C142.305 134.806 142.401 134.555 142.401 134.23C142.401 133.542 142.006 133.198 141.217 133.198H140.145V135.246H141.217ZM144.778 134.502C144.906 134.251 145.087 134.056 145.322 133.918C145.562 133.779 145.853 133.71 146.194 133.71V134.462H146.002C145.186 134.462 144.778 134.904 144.778 135.79V138.174H144.05V133.79H144.778V134.502ZM151.034 135.814C151.034 135.952 151.026 136.099 151.01 136.254H147.506C147.533 136.686 147.68 137.024 147.946 137.27C148.218 137.51 148.546 137.63 148.93 137.63C149.245 137.63 149.506 137.558 149.714 137.414C149.928 137.264 150.077 137.067 150.162 136.822H150.946C150.829 137.243 150.594 137.587 150.242 137.854C149.89 138.115 149.453 138.246 148.93 138.246C148.514 138.246 148.141 138.152 147.81 137.966C147.485 137.779 147.229 137.515 147.042 137.174C146.856 136.827 146.762 136.427 146.762 135.974C146.762 135.52 146.853 135.123 147.034 134.782C147.216 134.44 147.469 134.179 147.794 133.998C148.125 133.811 148.504 133.718 148.93 133.718C149.346 133.718 149.714 133.808 150.034 133.99C150.354 134.171 150.6 134.422 150.77 134.742C150.946 135.056 151.034 135.414 151.034 135.814ZM150.282 135.662C150.282 135.384 150.221 135.147 150.098 134.95C149.976 134.747 149.808 134.595 149.594 134.494C149.386 134.387 149.154 134.334 148.898 134.334C148.53 134.334 148.216 134.451 147.954 134.686C147.698 134.92 147.552 135.246 147.514 135.662H150.282ZM153.547 138.246C153.211 138.246 152.91 138.19 152.643 138.078C152.377 137.96 152.166 137.8 152.011 137.598C151.857 137.39 151.771 137.152 151.755 136.886H152.507C152.529 137.104 152.63 137.283 152.811 137.422C152.998 137.56 153.241 137.63 153.539 137.63C153.817 137.63 154.035 137.568 154.195 137.446C154.355 137.323 154.435 137.168 154.435 136.982C154.435 136.79 154.35 136.648 154.179 136.558C154.009 136.462 153.745 136.368 153.387 136.278C153.062 136.192 152.795 136.107 152.587 136.022C152.385 135.931 152.209 135.8 152.059 135.63C151.915 135.454 151.843 135.224 151.843 134.942C151.843 134.718 151.91 134.512 152.043 134.326C152.177 134.139 152.366 133.992 152.611 133.886C152.857 133.774 153.137 133.718 153.451 133.718C153.937 133.718 154.329 133.84 154.627 134.086C154.926 134.331 155.086 134.667 155.107 135.094H154.379C154.363 134.864 154.27 134.68 154.099 134.542C153.934 134.403 153.71 134.334 153.427 134.334C153.166 134.334 152.958 134.39 152.803 134.502C152.649 134.614 152.571 134.76 152.571 134.942C152.571 135.086 152.617 135.206 152.707 135.302C152.803 135.392 152.921 135.467 153.059 135.526C153.203 135.579 153.401 135.64 153.651 135.71C153.966 135.795 154.222 135.88 154.419 135.966C154.617 136.046 154.785 136.168 154.923 136.334C155.067 136.499 155.142 136.715 155.147 136.982C155.147 137.222 155.081 137.438 154.947 137.63C154.814 137.822 154.625 137.974 154.379 138.086C154.139 138.192 153.862 138.246 153.547 138.246ZM160.175 135.814C160.175 135.952 160.167 136.099 160.151 136.254H156.647C156.674 136.686 156.82 137.024 157.087 137.27C157.359 137.51 157.687 137.63 158.071 137.63C158.386 137.63 158.647 137.558 158.855 137.414C159.068 137.264 159.218 137.067 159.303 136.822H160.087C159.97 137.243 159.735 137.587 159.383 137.854C159.031 138.115 158.594 138.246 158.071 138.246C157.655 138.246 157.282 138.152 156.951 137.966C156.626 137.779 156.37 137.515 156.183 137.174C155.996 136.827 155.903 136.427 155.903 135.974C155.903 135.52 155.994 135.123 156.175 134.782C156.356 134.44 156.61 134.179 156.935 133.998C157.266 133.811 157.644 133.718 158.071 133.718C158.487 133.718 158.855 133.808 159.175 133.99C159.495 134.171 159.74 134.422 159.911 134.742C160.087 135.056 160.175 135.414 160.175 135.814ZM159.423 135.662C159.423 135.384 159.362 135.147 159.239 134.95C159.116 134.747 158.948 134.595 158.735 134.494C158.527 134.387 158.295 134.334 158.039 134.334C157.671 134.334 157.356 134.451 157.095 134.686C156.839 134.92 156.692 135.246 156.655 135.662H159.423ZM163.272 133.71C163.805 133.71 164.237 133.872 164.568 134.198C164.899 134.518 165.064 134.982 165.064 135.59V138.174H164.344V135.694C164.344 135.256 164.235 134.923 164.016 134.694C163.797 134.459 163.499 134.342 163.12 134.342C162.736 134.342 162.429 134.462 162.2 134.702C161.976 134.942 161.864 135.291 161.864 135.75V138.174H161.136V133.79H161.864V134.414C162.008 134.19 162.203 134.016 162.448 133.894C162.699 133.771 162.973 133.71 163.272 133.71ZM167.141 134.39V136.974C167.141 137.187 167.186 137.339 167.277 137.43C167.368 137.515 167.525 137.558 167.749 137.558H168.285V138.174H167.629C167.224 138.174 166.92 138.08 166.717 137.894C166.514 137.707 166.413 137.4 166.413 136.974V134.39H165.845V133.79H166.413V132.686H167.141V133.79H168.285V134.39H167.141ZM173.167 135.814C173.167 135.952 173.159 136.099 173.143 136.254H169.639C169.666 136.686 169.812 137.024 170.079 137.27C170.351 137.51 170.679 137.63 171.063 137.63C171.378 137.63 171.639 137.558 171.847 137.414C172.06 137.264 172.21 137.067 172.295 136.822H173.079C172.962 137.243 172.727 137.587 172.375 137.854C172.023 138.115 171.586 138.246 171.063 138.246C170.647 138.246 170.274 138.152 169.943 137.966C169.618 137.779 169.362 137.515 169.175 137.174C168.988 136.827 168.895 136.427 168.895 135.974C168.895 135.52 168.986 135.123 169.167 134.782C169.348 134.44 169.602 134.179 169.927 133.998C170.258 133.811 170.636 133.718 171.063 133.718C171.479 133.718 171.847 133.808 172.167 133.99C172.487 134.171 172.732 134.422 172.903 134.742C173.079 135.056 173.167 135.414 173.167 135.814ZM172.415 135.662C172.415 135.384 172.354 135.147 172.231 134.95C172.108 134.747 171.94 134.595 171.727 134.494C171.519 134.387 171.287 134.334 171.031 134.334C170.663 134.334 170.348 134.451 170.087 134.686C169.831 134.92 169.684 135.246 169.647 135.662H172.415ZM173.856 135.966C173.856 135.518 173.947 135.126 174.128 134.79C174.309 134.448 174.557 134.184 174.872 133.998C175.192 133.811 175.549 133.718 175.944 133.718C176.285 133.718 176.603 133.798 176.896 133.958C177.189 134.112 177.413 134.318 177.568 134.574V132.254H178.304V138.174H177.568V137.35C177.424 137.611 177.211 137.827 176.928 137.998C176.645 138.163 176.315 138.246 175.936 138.246C175.547 138.246 175.192 138.15 174.872 137.958C174.557 137.766 174.309 137.496 174.128 137.15C173.947 136.803 173.856 136.408 173.856 135.966ZM177.568 135.974C177.568 135.643 177.501 135.355 177.368 135.11C177.235 134.864 177.053 134.678 176.824 134.55C176.6 134.416 176.352 134.35 176.08 134.35C175.808 134.35 175.56 134.414 175.336 134.542C175.112 134.67 174.933 134.856 174.8 135.102C174.667 135.347 174.6 135.635 174.6 135.966C174.6 136.302 174.667 136.595 174.8 136.846C174.933 137.091 175.112 137.28 175.336 137.414C175.56 137.542 175.808 137.606 176.08 137.606C176.352 137.606 176.6 137.542 176.824 137.414C177.053 137.28 177.235 137.091 177.368 136.846C177.501 136.595 177.568 136.304 177.568 135.974ZM184.459 135.302C184.662 135.334 184.846 135.416 185.011 135.55C185.182 135.683 185.315 135.848 185.411 136.046C185.512 136.243 185.563 136.454 185.563 136.678C185.563 136.96 185.491 137.216 185.347 137.446C185.203 137.67 184.992 137.848 184.715 137.982C184.443 138.11 184.12 138.174 183.747 138.174H181.667V132.598H183.667C184.046 132.598 184.368 132.662 184.635 132.79C184.902 132.912 185.102 133.08 185.235 133.294C185.368 133.507 185.435 133.747 185.435 134.014C185.435 134.344 185.344 134.619 185.163 134.838C184.987 135.051 184.752 135.206 184.459 135.302ZM182.395 135.006H183.619C183.96 135.006 184.224 134.926 184.411 134.766C184.598 134.606 184.691 134.384 184.691 134.102C184.691 133.819 184.598 133.598 184.411 133.438C184.224 133.278 183.955 133.198 183.603 133.198H182.395V135.006ZM183.683 137.574C184.046 137.574 184.328 137.488 184.531 137.318C184.734 137.147 184.835 136.91 184.835 136.606C184.835 136.296 184.728 136.054 184.515 135.878C184.302 135.696 184.016 135.606 183.659 135.606H182.395V137.574H183.683ZM190.349 133.79L187.709 140.238H186.957L187.821 138.126L186.053 133.79H186.861L188.237 137.342L189.597 133.79H190.349Z" fill="#DBE8D9"/>
<g clip-path="url(#clip4_1343:4524)">
<path d="M295.462 14.3922L295.389 11.3948L286.364 11.3372C286.928 21.4988 286.928 25.168 286.928 42.3284C290.31 43.7963 294.035 45.3207 295.502 46.3925L302.553 38.5463C300.579 38.3771 297.251 37.2488 295.389 36.1758C295.389 26.0706 295.389 22.9103 295.502 19.4667L295.462 14.3922Z" fill="#F74700"/>
<path d="M169.814 36.1759L161.353 42.3285C164.735 43.7965 168.18 45.3208 169.645 46.3926L176.696 38.5464C174.722 38.3772 171.676 37.249 169.814 36.1759Z" fill="#B53A25"/>
<path d="M104.885 17.8863L110.496 10.2106L110.414 10.153L95.4656 16.8145C96.0305 23.4748 96.0305 29.1761 96.0305 40.58C99.8096 41.7083 105.901 44.0788 110.811 46.3929L117.411 38.5467C113.519 37.9826 107.372 36.6275 104.494 34.9339C104.494 27.7082 104.494 23.7005 104.889 17.8851L104.885 17.8863Z" fill="#F74700"/>
<path d="M75.4212 38.6202L74.3665 38.2641C71.2637 37.4744 68.2186 36.4577 65.6808 34.9334C65.6808 27.7077 65.8061 23.6862 66.1994 17.872H66.2207L71.7773 10.279L71.6032 10.1537L56.6558 16.814C57.2194 23.4743 57.2194 29.1756 57.2194 40.5795C60.3785 41.3693 64.8341 44.0783 68.9514 46.3924C68.9514 46.3924 74.0283 40.3526 75.2696 38.8847L75.4212 38.6202Z" fill="#F74700"/>
<path d="M211.388 39.7384L201.967 38.4397C198.527 37.5935 194.974 36.5768 192.21 34.9396C192.21 27.7704 192.21 23.7626 192.605 18.0613L192.644 18.0676L199.261 10.1537L183.187 16.8153C183.75 23.4756 183.75 29.1769 183.75 40.5808C186.908 41.3705 192.944 44.7013 195.313 46.3937L211.388 39.7384Z" fill="#F74700"/>
<path d="M277.989 27.3655H271.069H264.189C264.245 24.1475 264.358 21.3257 264.583 17.8821L264.625 17.8946L270.119 10.1537L255.17 16.8153C255.735 23.4756 255.735 29.1769 255.735 40.5808C259.513 41.709 265.606 44.0795 270.516 46.3937L277.116 38.5475C273.224 37.9833 267.076 36.6282 264.199 34.9346V29.8526L271.363 32.6757C273.766 30.606 275.008 29.4777 277.995 27.3692" fill="#F74700"/>
<path d="M30.1982 11.3952L44.1298 13.0875L46.0488 3.49132L29.1748 1.80273L30.1944 11.4466L30.1982 11.3952Z" fill="#B53A25"/>
<path d="M47.91 50.1195C47.3451 39.9579 47.3451 32.6758 47.3451 21.2732C44.186 20.4834 37.5872 17.1526 35.2185 15.4578C35.2185 15.4578 31.978 19.0656 29.8899 21.3935V23.8179C32.8686 24.718 35.9025 25.7886 38.3213 27.4208C38.3213 36.4529 38.3213 41.0849 37.7563 51.2389L47.91 50.1195Z" fill="#B53A25"/>
<path d="M286.893 42.3863C290.26 43.8455 294.032 45.3285 295.497 46.3978L302.548 38.5516C300.683 38.3912 297.377 37.184 295.473 36.1698L286.893 42.3863Z" fill="#B53A25"/>
<path d="M180.813 92.7655L178.921 84.0769L169.126 85.7479C167.233 80.8464 166.398 78.0609 165.174 73.1594C167.956 71.4332 173.967 67.5897 176.528 65.4736C181.037 66.5868 185.6 67.9244 189.273 67.9244L186.935 77.0029C183.373 76.2232 178.252 74.2738 174.91 72.8259L178.082 82.1827L186.6 79.5652C188.103 84.0781 189.105 88.2539 190.107 93.6054C186.546 96.001 183.262 99.3418 181.259 101.127C175.359 100.014 172.131 99.4008 165.953 99.4008C166.844 95.4457 168.458 92.2716 169.961 89.8735L180.813 92.7655Z" fill="#B53A25"/>
<path d="M207.359 66.5839H212.257L211.478 72.0997H207.192C207.081 76.7794 207.081 81.9579 207.081 91.0377C208.919 92.0957 211.924 93.2101 213.871 93.3769L206.914 101.119C205.468 100.061 202.072 98.5567 198.732 97.1075C198.732 86.7479 198.732 78.8942 198.622 72.0985H195.95C196.952 69.6477 197.453 69.0347 198.455 66.5827C198.4 64.2999 198.289 62.0698 198.177 59.8986L207.638 61.013C207.528 63.0751 207.415 64.8578 207.359 66.5839Z" fill="#B53A25"/>
<path d="M198.732 97.1075C198.732 86.7479 198.732 78.8942 198.622 72.0985H195.95C196.952 69.6477 197.453 69.0347 198.455 66.5827C198.4 64.2999 198.289 62.0698 198.177 59.8986L207.638 61.013C207.528 63.0739 207.417 64.8565 207.36 66.5827H212.258L211.479 72.0985H207.194C207.082 76.7781 207.082 81.9567 207.082 91.0364" fill="#F74700"/>
<path d="M170.391 85.5297L179.139 81.8567L178.085 82.1801L174.914 72.8233L176.194 65.738C173.481 67.8967 167.844 71.5045 165.171 73.1568C166.395 78.0583 167.23 80.8438 169.123 85.7453L170.391 85.5297Z" fill="#F74700"/>
<path d="M180.813 92.7657L169.96 89.8699C168.457 92.2655 166.844 95.4396 165.952 99.3971C172.13 99.3971 175.358 100.01 181.257 101.123C183.234 99.3683 186.458 96.0889 189.965 93.7021L180.813 92.7657Z" fill="#F74700"/>
<path d="M158.927 69.2921L158.813 82.4448C155.768 84.5909 154.527 85.7204 152.101 87.8089L144.938 84.9858V90.0666C147.819 91.7602 153.957 93.1153 157.855 93.6794L151.255 101.526C146.348 99.2115 140.255 96.841 136.474 95.7115C136.474 84.3038 136.474 78.6063 135.91 71.946L150.859 65.2856C153.23 66.978 155.428 67.6562 158.927 69.2921ZM151.818 82.5012V75.6152C149.788 74.5998 147.926 73.8602 145.332 73.019C145.107 76.4614 144.994 79.287 144.938 82.5012H151.818Z" fill="#F74700"/>
<path d="M145.697 73.0191L145.688 73.137C148.096 73.9342 149.884 74.6475 151.818 75.6153V82.5013H158.734L158.813 82.4449L158.927 69.2922C155.589 67.7315 153.434 67.0358 151.186 65.5101L145.697 73.0191Z" fill="#B53A25"/>
<path d="M124.435 102.085L124.516 102.038C124.404 89.0705 124.516 84.5413 124.849 70.6842H127.859L130.256 64.3265H125.017L125.67 58.9186C129.07 57.8386 131.751 56.0399 134.313 55.6593C134.203 55.5949 127.429 51.4847 125.983 49.6421C124.533 50.8495 119.557 52.4395 116.214 54.0947C116.381 57.3365 116.549 60.7686 116.66 64.3279H116.605L114.208 70.6856H116.883C116.915 71.7958 116.945 72.8602 116.974 73.8916H115.853C115.965 81.7515 115.965 97.2809 115.965 109.262C119.351 110.938 118.963 110.219 120.43 111.444L128.456 104.005C126.48 103.81 126.299 103.465 124.435 102.242V102.085Z" fill="#B53A25"/>
<path d="M125.607 59.859L128.676 58.1667L134.133 61.7158L137.95 55.8814C137.948 55.8473 137.935 55.7223 137.93 55.6942L126.957 48.5692C123.837 50.5322 117.964 53.2175 115.461 54.2806L125.607 59.859Z" fill="#B53A25"/>
<path d="M125.032 64.341L125.607 59.7963L126.86 48.6394C125.832 49.4986 121.385 51.483 119.112 52.6459V52.6029L115.402 54.2626C115.514 56.7772 115.628 59.3577 115.685 61.9954C115.649 62.0355 115.647 62.9877 115.662 64.3353H111.396L109.198 70.6992H115.774C115.814 72.5235 115.849 73.9082 115.849 73.9082C115.963 81.7756 115.962 97.32 115.962 109.313L124.445 102.286V102.13L124.526 102.083C124.414 89.1032 124.526 84.5695 124.86 70.6992H130.274L132.747 64.341H125.032Z" fill="#F74700"/>
<path d="M30.1935 11.4466L29.1739 1.80273H29.1251C26.5309 3.94888 23.3718 6.43098 20.5522 8.18099C21.1158 18.3426 20.8904 34.6004 20.3254 45.2697H30.4228C30.1547 40.1738 29.9593 34.3008 29.8892 28.4327V18.1683L30.1935 11.4466Z" fill="#F74700"/>
<path d="M135.205 17.3359C135.433 10.8172 135.455 5.86174 135.686 1.79761L126.097 2.92584C126.661 13.0799 126.549 28.1017 126.549 45.2633H135.127V30.0234L135.205 17.3359Z" fill="#F74700"/>
<path d="M151.197 28.8941C149.281 28.0467 147.136 27.0312 145.389 26.1287L150.012 24.3736V14.2735C145.727 12.8619 144.26 12.017 141.157 10.153C141.157 10.153 137.227 14.4878 135.249 16.7167L135.235 18.221C137.943 18.7225 139.127 18.9556 141.553 19.6313V22.6274C141.553 23.1903 137.683 26.2791 135.144 28.5356L135.132 29.8744L135.258 29.9734C138.514 31.1568 140.995 32.1697 142.739 32.9582C142.739 35.7813 142.683 43.0621 142.683 45.4339L151.201 46.4493C150.91 42.1044 150.91 33.8621 151.197 28.8941Z" fill="#B53A25"/>
<path d="M104.885 17.8862C108.439 19.0708 110.696 19.9747 113.741 21.8375L118.48 14.1655C115.023 12.5472 112.834 11.8652 110.496 10.2142L104.885 17.8862Z" fill="#B53A25"/>
<path d="M83.2239 36.1762C83.1312 26.0823 83.1662 23.7005 83.1662 15.9671C80.0785 15.1936 74.2501 11.9982 71.7787 10.2795L66.2146 17.8926L66.2221 17.9202C69.6894 18.547 71.8689 19.4909 74.7061 20.7157C74.7061 25.8554 74.567 30.4235 74.3666 38.2659L75.4213 38.6219L75.2885 38.9165C77.4869 42.5156 80.5195 45.3813 81.9274 46.3942L88.9771 38.548C87.0594 38.2647 85.084 37.2492 83.2239 36.1762Z" fill="#B53A25"/>
<path d="M161.353 42.3284C161.353 31.8296 161.353 23.8693 161.242 16.9821H158.534C159.548 14.4988 160.057 13.8782 161.071 11.3949C161.015 9.07949 160.902 6.82178 160.79 4.62549L170.378 5.75372C170.267 7.8422 170.153 9.64862 170.097 11.3949H175.059L174.27 16.9821H169.927C169.815 21.7244 169.815 26.9745 169.815 36.1758L161.353 42.3284Z" fill="#F74700"/>
<path d="M192.622 18.0942L193.174 18.1606C196.438 18.7723 199.756 19.5872 202.369 20.7091C202.369 26.0143 202.369 30.1913 201.973 38.4336L211.387 39.7386C210.824 29.577 210.824 23.7065 210.824 15.9731C207.665 15.1821 201.628 11.8513 199.26 10.1589L192.622 18.0942Z" fill="#B53A25"/>
<path d="M228.697 16.9233C229.025 9.66631 228.91 3.78823 229.042 0.106445L220.129 2.92953C220.298 13.0836 220.186 32.8477 220.186 40.5823C223.345 41.3721 229.381 44.7028 231.75 46.3952L246.701 39.7386V39.7211L237.25 38.6819V38.6605C233.714 38.0337 231.519 37.081 228.651 35.8425C228.651 33.0846 228.651 25.795 228.707 18.2308L228.697 16.9233Z" fill="#F74700"/>
<path d="M246.7 39.7151C246.138 33.0623 246.138 27.3597 246.138 15.9671C242.977 15.1761 238.522 12.4671 234.405 10.153C234.405 10.153 230.547 14.7235 228.729 16.901V18.2298C231.937 19.0196 235.035 20.0901 237.68 21.6145C237.68 28.7737 237.547 32.9143 237.253 38.6784L246.7 39.7151Z" fill="#B53A25"/>
<path d="M264.598 17.939L264.958 18.0531C267.367 18.8504 269.083 19.4621 271.017 20.4349V27.3221L277.986 27.3748C278.013 27.3547 278.111 27.2758 278.132 27.257L278.176 14.1657C274.838 12.6038 272.389 11.6586 270.14 10.1279L264.598 17.939Z" fill="#B53A25"/>
<path d="M298.825 10.2659L295.553 14.33L295.473 14.419V19.4221L295.875 19.6289C297.619 20.3641 299.321 21.1956 300.973 22.1198L307.737 14.3864C305.086 13.0877 301.588 11.6197 298.825 10.2659Z" fill="#B53A25"/>
<path d="M60.291 85.9782L68.7386 74.7411L70.1428 68.7715C67.7503 69.6014 65.453 70.974 63.3787 72.2188L60.4764 67.3299C63.41 66.5 65.4205 65.7002 68.2915 64.6158L76.1065 69.1501L72.9487 77.9603L66.5691 84.7923C69.5666 84.7923 72.6293 84.8237 75.4051 84.4087L73.8092 89.1974H62.1086L60.291 85.9782Z" fill="#677662"/>
<path d="M97.0703 68.5491C97.0703 72.9229 97.1029 80.3329 97.4223 86.0756L88.3308 89.8363C86.9905 88.8786 83.5771 86.9945 81.7909 86.5482C81.7909 80.0985 81.7596 72.7888 81.4402 69.0218L90.5317 65.261C91.8707 66.2187 95.2841 68.1016 97.0703 68.5491ZM92.0949 85.341C92.3179 80.6801 92.2853 74.2317 92.2853 71.2306C90.7233 70.5599 88.7129 70.081 86.7676 69.7263C86.5446 73.0458 86.5759 79.3037 86.5759 83.3578C88.1392 84.288 90.1484 84.8684 92.0949 85.341Z" fill="#677662"/>
<path d="M227.079 85.9782L235.533 74.7411L236.936 68.7715C234.543 69.6014 232.247 70.974 230.172 72.2188L227.269 67.3299C230.204 66.5 232.214 65.7002 235.084 64.6158L242.899 69.1501L239.742 77.9603L233.362 84.7923C236.361 84.7923 239.424 84.8237 242.198 84.4087L240.603 89.1974H228.898L227.079 85.9782Z" fill="#677662"/>
<path d="M249.888 89.8739C249.888 87.3843 249.664 75.9228 249.664 71.6142L252.504 69.7614H248.229L249.059 65.261H254.8L254.449 69.73C254.482 76.7213 254.545 86.1708 254.8 89.2359L249.888 89.8739Z" fill="#677662"/>
</g>
<defs>
<clipPath id="clip0_1343:4524">
<rect width="68.5469" height="12.1615" fill="white" transform="translate(106.821 151.552)"/>
</clipPath>
<clipPath id="clip1_1343:4524">
<rect width="75.1805" height="12.1615" fill="white" transform="translate(226.225 151.552)"/>
</clipPath>
<clipPath id="clip2_1343:4524">
<rect width="28.7455" height="12.1615" fill="white" transform="translate(186.423 149.34)"/>
</clipPath>
<clipPath id="clip3_1343:4524">
<rect width="72.9693" height="12.1615" fill="white" transform="translate(22.7954 151.552)"/>
</clipPath>
<clipPath id="clip4_1343:4524">
<rect width="287.475" height="111.444" fill="white" transform="translate(20.2625)"/>
</clipPath>
</defs>
</svg>
