<svg width="286" height="174" viewBox="0 0 286 174" fill="none" xmlns="http://www.w3.org/2000/svg">
<path d="M273 75.4156L272.922 72.4439L263.966 72.3867C264.527 82.4613 264.527 86.0992 264.527 103.113C267.883 104.568 271.578 106.079 273.033 107.142L280.031 99.3629C278.071 99.1952 274.769 98.0766 272.922 97.0127C272.922 86.994 272.922 83.8608 273.033 80.4467L273 75.4156Z" fill="white"/>
<path d="M148.327 97.0122L139.927 103.112C143.283 104.568 146.7 106.079 148.154 107.142L155.15 99.3625C153.196 99.1947 150.174 98.0761 148.327 97.0122Z" fill="#FFB1C7"/>
<path d="M83.9 78.8791L89.4646 71.2691L89.3838 71.2119L74.5493 77.8165C75.1086 84.4198 75.1086 90.0723 75.1086 101.379C78.8586 102.497 84.903 104.847 89.7753 107.142L96.3244 99.3626C92.4626 98.8033 86.361 97.4598 83.5072 95.7807C83.5072 88.6169 83.5072 84.6435 83.8975 78.8779L83.9 78.8791Z" fill="white"/>
<path d="M54.6626 99.4362L53.6161 99.0832C50.5386 98.3002 47.5158 97.2924 44.9976 95.7811C44.9976 88.6172 45.1219 84.6301 45.5134 78.8657H45.5345L51.0482 71.3377L50.8767 71.2134L36.0435 77.8167C36.6028 84.4201 36.6028 90.0725 36.6028 101.379C39.7375 102.162 44.1586 104.848 48.2441 107.142C48.2441 107.142 53.283 101.154 54.5135 99.6984L54.6626 99.4362Z" fill="white"/>
<path d="M189.579 100.545L180.233 99.2573C176.818 98.4184 173.292 97.4103 170.55 95.7871C170.55 88.6792 170.55 84.706 170.942 79.0534L170.98 79.0595L177.547 71.2134L161.595 77.818C162.154 84.4213 162.154 90.0737 162.154 101.38C165.289 102.163 171.278 105.465 173.629 107.143L189.579 100.545Z" fill="white"/>
<path d="M255.668 88.2779H248.802H241.973C242.028 85.0875 242.14 82.2898 242.363 78.8757L242.404 78.888L247.857 71.2134H247.851L233.024 77.8167C233.583 84.4201 233.583 90.0725 233.583 101.379C237.332 102.497 243.378 104.848 248.25 107.142L254.799 99.3629C250.937 98.8036 244.836 97.4602 241.982 95.7811V90.7438L249.089 93.5427C251.475 91.4907 252.707 90.372 255.67 88.2815" fill="white"/>
<path d="M9.7914 72.4435L23.6166 74.1213L25.5196 64.6072L8.77344 62.9331L9.7914 72.4944C9.7914 72.477 9.7914 72.4559 9.7914 72.4435Z" fill="#FFB1C7"/>
<path d="M27.3643 110.837C26.805 100.762 26.805 93.5423 26.805 82.2373C23.6691 81.4543 17.1213 78.152 14.7709 76.4717L9.4834 82.3566V84.7603C12.4404 85.6527 15.4495 86.7141 17.8496 88.3323C17.8496 97.2808 17.8496 101.879 17.2891 111.947L27.3643 110.837Z" fill="#FFB1C7"/>
<path d="M264.503 103.17C267.843 104.617 271.588 106.087 273.039 107.147L280.036 99.3683C278.185 99.2092 274.905 98.0123 273.017 97.0068L264.503 103.17Z" fill="white" fill-opacity="0.5"/>
<path d="M159.24 153.118L157.363 144.504L147.644 146.16C145.766 141.301 144.938 138.539 143.722 133.68C146.484 131.968 152.449 128.158 154.988 126.06C159.463 127.163 163.991 128.489 167.635 128.489L165.316 137.49C161.782 136.717 156.701 134.784 153.384 133.349L156.531 142.626L164.983 140.031C166.474 144.505 167.468 148.645 168.463 153.951C164.928 156.326 161.67 159.638 159.681 161.408C153.827 160.304 150.624 159.696 144.494 159.696C145.378 155.775 146.98 152.628 148.471 150.251L159.24 153.118Z" fill="white"/>
<path d="M185.583 127.161H190.442L189.669 132.629H185.419C185.308 137.269 185.308 142.403 185.308 151.405C187.131 152.454 190.113 153.559 192.046 153.724L185.143 161.4C183.707 160.351 180.339 158.86 177.025 157.423C177.025 147.152 177.025 139.366 176.914 132.628H174.263C175.258 130.198 175.755 129.591 176.749 127.16C176.694 124.896 176.584 122.685 176.474 120.533L185.862 121.638C185.748 123.682 185.637 125.449 185.583 127.161Z" fill="#FFB1C7"/>
<path d="M177.023 157.423C177.023 147.152 177.023 139.366 176.912 132.628H174.261C175.255 130.198 175.752 129.591 176.747 127.16C176.692 124.896 176.581 122.685 176.472 120.533L185.86 121.638C185.749 123.681 185.639 125.448 185.584 127.16H190.444L189.671 132.628H185.419C185.308 137.268 185.308 142.402 185.308 151.404" fill="white"/>
<path d="M148.899 145.943L157.577 142.304L156.532 142.625L153.385 133.348L154.655 126.324C151.963 128.464 146.37 132.041 143.717 133.679C144.933 138.539 145.761 141.3 147.639 146.16L148.899 145.943Z" fill="white"/>
<path d="M159.242 153.118L148.473 150.247C146.981 152.622 145.379 155.769 144.496 159.692C150.626 159.692 153.829 160.3 159.683 161.404C161.644 159.664 164.844 156.412 168.324 154.046L159.242 153.118Z" fill="#FFB1C7"/>
<path d="M137.523 129.846L137.41 142.886C134.388 145.014 133.158 146.133 130.75 148.204L123.644 145.405V150.442C126.503 152.121 132.593 153.465 136.461 154.024L129.912 161.803C125.043 159.509 118.997 157.159 115.246 156.039C115.246 144.729 115.246 139.08 114.687 132.477L129.518 125.874C131.87 127.551 134.053 128.224 137.523 129.846ZM130.471 142.942V136.115C128.456 135.108 126.609 134.375 124.033 133.541C123.81 136.954 123.698 139.755 123.643 142.942H130.471Z" fill="white"/>
<path d="M124.39 133.54L124.381 133.657C126.77 134.447 128.545 135.148 130.472 136.114V142.941H137.333L137.411 142.885L137.524 129.845C134.213 128.298 132.074 127.608 129.843 126.095L124.39 133.54Z" fill="#FFB1C7"/>
<path d="M9.79186 72.4944L8.77887 62.9331H8.7304C6.15627 65.0609 3.02282 67.5217 0.223728 69.2568C0.78305 79.3314 0.559322 95.45 0 106.028H10.0181C9.75209 100.976 9.55943 95.1529 9.48859 89.3351V79.1586L9.79186 72.4944Z" fill="white"/>
<path d="M113.985 78.3334C114.212 71.8706 114.233 66.9576 114.462 62.9282L104.947 64.0468C105.508 74.1139 105.396 89.0071 105.396 106.022H113.903V90.9124L113.985 78.3334Z" fill="white"/>
<path d="M129.86 89.7926C127.957 88.9525 125.83 87.9458 124.096 87.0509L128.685 85.3109V75.2972C124.431 73.8977 122.976 73.06 119.897 71.2119C119.897 71.2119 115.998 75.5097 114.034 77.7195L114.02 79.211C116.708 79.7081 117.882 79.9393 120.29 80.6092V83.5796C120.29 84.1376 116.449 87.2 113.931 89.4372L113.918 90.7646L114.043 90.8627C117.274 92.036 119.735 93.0402 121.466 93.822C121.466 96.6209 121.41 103.839 121.41 106.191L129.862 107.198C129.576 102.89 129.576 94.7181 129.86 89.7926Z" fill="#FFB1C7"/>
<path d="M83.8999 78.8793C87.4274 80.0538 89.6659 80.9499 92.6887 82.7967L97.3895 75.1904C93.959 73.5859 91.7876 72.9098 89.4683 71.2729L83.8999 78.8793Z" fill="#FFB1C7"/>
<path d="M62.4052 97.0127C62.3132 87.0052 62.348 84.6438 62.348 76.9766C59.2842 76.2098 53.5033 73.0417 51.0485 71.3315L45.5273 78.8794L45.536 78.9068C48.9752 79.5282 51.138 80.4641 53.9532 81.6783C53.9532 86.774 53.8152 91.303 53.6164 99.0783L54.6629 99.4313L54.5386 99.7234C56.7187 103.292 59.7279 106.133 61.1262 107.137L68.1227 99.358C66.2111 99.0833 64.2522 98.0766 62.4052 97.0127Z" fill="#FFB1C7"/>
<path d="M139.928 103.112C139.928 92.7032 139.928 84.811 139.816 77.9828H137.128C138.136 75.5207 138.64 74.9055 139.648 72.4434C139.592 70.1478 139.479 67.9094 139.367 65.7319L148.883 66.8505C148.771 68.9211 148.658 70.7121 148.602 72.4434H153.528L152.745 77.9828H148.434C148.322 82.6845 148.322 87.8896 148.322 97.0122L139.928 103.112Z" fill="white"/>
<path d="M170.954 79.0854L171.501 79.1513C174.732 79.7578 178.031 80.5657 180.624 81.678C180.624 86.9378 180.624 91.079 180.232 99.2508L189.579 100.538C189.02 90.4638 189.02 84.6435 189.02 76.9763C185.886 76.192 179.897 72.8898 177.546 71.2119L170.954 79.0854Z" fill="#FFB1C7"/>
<path d="M206.759 77.9244C207.084 70.7295 206.971 64.9017 207.101 61.2515L198.258 64.0504C198.425 74.1175 198.314 93.7124 198.314 101.381C201.448 102.164 207.437 105.466 209.788 107.144L224.62 100.544V100.527L215.242 99.4967V99.4756C211.733 98.8604 209.555 97.9096 206.709 96.6816C206.709 93.9473 206.709 86.7201 206.765 79.2207L206.759 77.9244Z" fill="white"/>
<path d="M224.619 100.521C224.061 93.9251 224.061 88.2714 224.061 76.9763C220.926 76.192 216.503 73.5062 212.418 71.2119C212.418 71.2119 208.591 75.7434 206.786 77.9022V79.2197C209.969 80.0027 213.043 81.0641 215.668 82.5754C215.668 89.6733 215.544 93.7785 215.244 99.4931L224.619 100.521Z" fill="#FFB1C7"/>
<path d="M242.379 78.9318L242.737 79.0449C245.127 79.8353 246.83 80.4418 248.75 81.4063V88.2346L255.663 88.2868C255.691 88.2669 255.788 88.1886 255.81 88.1699L255.855 75.1907C252.544 73.6421 250.112 72.705 247.881 71.1875L242.379 78.9318Z" fill="#FFB1C7"/>
<path d="M276.342 71.3232L273.095 75.3526L273.017 75.4408V80.4011L273.415 80.6061C275.144 81.3352 276.83 82.1596 278.469 83.0757L285.18 75.4085C282.554 74.1209 279.085 72.6655 276.342 71.3232Z" fill="#FFB1C7"/>
<path d="M218.344 27.441C218.182 27.364 218.021 27.2894 217.862 27.2173H228.998C229.279 27.2173 229.55 27.1056 229.749 26.9065C229.948 26.7075 230.06 26.4374 230.06 26.1559C230.06 25.8744 229.948 25.6044 229.749 25.4055C229.55 25.2064 229.279 25.0945 228.998 25.0945H218.002C218.115 25.0423 218.23 24.9901 218.344 24.9354C222.719 22.8499 228.506 18.3731 231.225 8.88895C231.293 8.62128 231.253 8.33773 231.115 8.09834C230.978 7.85894 230.752 7.68252 230.488 7.60643C230.222 7.53033 229.937 7.56055 229.693 7.69067C229.45 7.8208 229.267 8.04061 229.182 8.30356C227.185 15.2722 223.26 20.2088 217.514 22.9779C213.202 25.056 209.412 25.0771 209.359 25.0771H207.837C207.782 25.0785 207.726 25.0843 207.67 25.0945H201.011C201.129 24.7392 201.37 24.4373 201.69 24.2419C202.639 23.7037 203.679 23.5882 204.725 23.5086C207.842 23.2725 210.417 22.0172 212.347 19.5153C213.236 18.3632 213.704 17.052 213.867 15.6202C213.929 15.0721 213.991 14.5228 214.021 13.9734C214.012 13.764 213.984 13.5558 213.934 13.352C211.953 14.0679 209.943 14.3724 207.968 14.8434C207.202 15.0286 206.424 15.2374 205.717 15.5742C202.753 16.9861 200.857 19.2879 200.14 22.5181C200.077 22.8027 200.083 23.1022 200.008 23.3881C199.929 23.9572 199.944 24.5352 200.052 25.0995H191.569C192.559 24.3229 193.424 23.3976 194.132 22.3565C194.979 21.1459 195.747 19.8285 196.493 18.5533C197.634 16.6058 198.712 14.7664 200.033 13.2737C202.161 10.8688 204.928 9.52404 207.606 9.57997H213.978C214.209 10.4409 214.743 11.1898 215.482 11.6897C216.22 12.1896 217.113 12.4071 217.998 12.3025C218.883 12.1979 219.703 11.7781 220.304 11.1199C220.904 10.4617 221.25 9.60904 221.274 8.7178C221.298 7.82656 221.001 6.95627 220.437 6.26601C219.873 5.57575 219.079 5.11164 218.201 4.9585C217.322 4.80537 216.417 4.97344 215.653 5.432C214.889 5.89057 214.314 6.60899 214.036 7.45593H207.641C204.332 7.38509 200.981 8.99707 198.443 11.8656C196.985 13.5136 195.803 15.5307 194.661 17.4808C193.936 18.7236 193.186 19.9975 192.388 21.1385C190.721 23.521 188.813 24.6968 185.906 25.0995H182.404C182.112 24.2603 181.529 23.5535 180.761 23.1075C179.993 22.6615 179.089 22.5059 178.216 22.6689C177.343 22.8319 176.556 23.3028 176.001 23.9959C175.445 24.6891 175.157 25.5587 175.187 26.4466C175.218 27.3345 175.566 28.182 176.169 28.8351C176.77 29.4883 177.587 29.9037 178.471 30.006C179.353 30.1083 180.243 29.8907 180.979 29.3927C181.715 28.8947 182.247 28.1493 182.48 27.2919H185.436L185.487 27.2857C185.535 27.2857 185.58 27.2745 185.629 27.2695C188.691 27.6349 190.669 28.8069 192.388 31.2628C193.186 32.4037 193.936 33.6839 194.661 34.9218C195.803 36.8718 196.985 38.8877 198.443 40.5358C200.929 43.3483 204.202 44.9479 207.443 44.9479H207.641H214.037C214.316 45.7959 214.89 46.5153 215.656 46.9745C216.421 47.4337 217.326 47.6023 218.206 47.449C219.085 47.2959 219.88 46.8313 220.445 46.1403C221.01 45.4494 221.307 44.5781 221.282 43.6859C221.259 42.7937 220.913 41.9401 220.312 41.2812C219.709 40.6223 218.89 40.2022 218.003 40.0975C217.117 39.9929 216.222 40.2108 215.484 40.7114C214.744 41.212 214.21 41.9619 213.979 42.8239H207.607C204.919 42.8773 202.162 41.535 200.034 39.1313C198.713 37.6399 197.635 35.798 196.494 33.8504C195.749 32.5765 194.976 31.2591 194.133 30.0473C193.403 28.967 192.505 28.011 191.472 27.2161H200.022C199.949 27.7208 199.946 28.2332 200.013 28.7386C200.088 29.0207 200.081 29.3202 200.145 29.6086C200.862 32.84 202.755 35.1393 205.722 36.5524C206.445 36.8727 207.2 37.1172 207.973 37.282C209.943 37.7567 211.95 38.06 213.939 38.7734C213.989 38.5697 214.017 38.3615 214.026 38.152C213.991 37.6014 213.934 37.0533 213.872 36.5052C213.709 35.0734 213.24 33.7622 212.352 32.6101C210.421 30.1107 207.847 28.8529 204.73 28.6168C203.682 28.5372 202.644 28.4216 201.695 27.8835C201.434 27.7276 201.226 27.4962 201.099 27.2198H207.438C207.568 27.2739 207.706 27.3017 207.845 27.3018H209.37C209.42 27.3018 213.209 27.3229 217.521 29.401C223.267 32.1688 227.192 37.1067 229.19 44.0742C229.253 44.2956 229.388 44.4904 229.571 44.6291C229.755 44.7679 229.98 44.8431 230.21 44.8435C230.31 44.844 230.408 44.8302 230.504 44.8025C230.638 44.7642 230.763 44.6998 230.873 44.6129C230.981 44.5262 231.073 44.4187 231.14 44.2966C231.208 44.1747 231.251 44.0405 231.267 43.9019C231.282 43.7633 231.271 43.6229 231.232 43.4888C228.506 34.0033 222.719 29.5265 218.344 27.441ZM217.571 7.02217C217.885 7.02193 218.194 7.11503 218.455 7.28969C218.717 7.46433 218.921 7.71271 219.041 8.00339C219.162 8.29405 219.194 8.61395 219.133 8.92264C219.071 9.23131 218.919 9.51488 218.697 9.73751C218.475 9.96011 218.191 10.1117 217.883 10.1732C217.575 10.2347 217.254 10.2033 216.963 10.0829C216.672 9.96254 216.424 9.75863 216.25 9.497C216.074 9.23535 215.981 8.92773 215.981 8.61303C215.981 8.19143 216.149 7.78717 216.447 7.48893C216.746 7.19069 217.15 7.02283 217.571 7.02217ZM217.571 42.195C217.885 42.1947 218.194 42.2878 218.455 42.4626C218.717 42.6372 218.921 42.8855 219.041 43.1762C219.162 43.4669 219.194 43.7868 219.133 44.0954C219.071 44.4042 218.919 44.6878 218.697 44.9104C218.475 45.133 218.191 45.2846 217.883 45.3461C217.575 45.4075 217.254 45.3762 216.963 45.2558C216.672 45.1354 216.424 44.9315 216.25 44.6699C216.074 44.4082 215.981 44.1005 215.981 43.7858C215.98 43.5767 216.021 43.3692 216.1 43.1757C216.18 42.9821 216.297 42.8061 216.445 42.6578C216.593 42.5094 216.768 42.3917 216.961 42.3112C217.155 42.2308 217.362 42.1891 217.571 42.1888V42.195ZM178.908 27.9021C178.594 27.9024 178.285 27.8093 178.023 27.6345C177.762 27.4599 177.558 27.2115 177.438 26.9206C177.317 26.6299 177.285 26.31 177.347 26.0013C177.408 25.6926 177.559 25.4089 177.782 25.1864C178.004 24.9639 178.288 24.8123 178.597 24.751C178.906 24.6896 179.225 24.7213 179.516 24.8418C179.807 24.9624 180.055 25.1665 180.231 25.4282C180.405 25.6901 180.498 25.9978 180.498 26.3125C180.497 26.734 180.33 27.1379 180.032 27.4358C179.733 27.7338 179.329 27.9015 178.908 27.9021Z" fill="#3349C2"/>
<path d="M53.9541 43.486C53.9156 43.6201 53.9038 43.7605 53.9196 43.8991C53.9353 44.0377 53.9782 44.1719 54.0458 44.2938C54.1136 44.4159 54.2046 44.5234 54.3138 44.6101C54.4231 44.697 54.5482 44.7614 54.6825 44.7997C54.7778 44.8274 54.8765 44.8412 54.9758 44.8407C55.2063 44.8403 55.4304 44.7651 55.6144 44.6263C55.7984 44.4876 55.9324 44.2928 55.9963 44.0714C57.9937 37.1039 61.9189 32.166 67.665 29.3982C71.9767 27.3201 75.7664 27.299 75.8161 27.299H77.3412C77.4808 27.2989 77.6189 27.271 77.7477 27.217H84.0867C83.9599 27.4934 83.7523 27.7248 83.4913 27.8807C82.5417 28.4188 81.5026 28.5344 80.456 28.6139C77.3387 28.8501 74.7646 30.1054 72.8343 32.6072C71.9382 33.7594 71.4746 35.0706 71.3167 36.5024C71.2546 37.0505 71.1924 37.5986 71.1626 38.1491C71.1714 38.3587 71.2006 38.5667 71.2496 38.7706C73.2308 38.0547 75.2407 37.7514 77.2157 37.2791C77.9892 37.1143 78.7435 36.8699 79.4667 36.5496C82.4311 35.1365 84.3265 32.8359 85.0437 29.6057C85.1071 29.3211 85.1009 29.0216 85.1755 28.7357C85.2426 28.2304 85.2401 27.7181 85.168 27.2132H93.7169C92.6831 28.0052 91.7833 28.9582 91.0521 30.0358C90.2044 31.2476 89.4363 32.565 88.6905 33.8389C87.5495 35.7865 86.4719 37.6259 85.1506 39.1198C83.0227 41.5235 80.2671 42.8658 77.5774 42.8123H71.1924C70.9607 41.9514 70.427 41.2026 69.6887 40.7026C68.9505 40.2027 68.0569 39.9852 67.1714 40.0899C66.2859 40.1945 65.4677 40.6142 64.8662 41.2724C64.2649 41.9307 63.9204 42.7834 63.8959 43.6745C63.8714 44.5658 64.1685 45.4361 64.7327 46.1263C65.2972 46.8166 66.091 47.2808 66.9694 47.4339C67.8478 47.587 68.752 47.419 69.5167 46.9604C70.2813 46.5018 70.8555 45.7834 71.134 44.9364H77.5314H77.729C80.9706 44.9364 84.2408 43.3368 86.7291 40.5242C88.1871 38.8762 89.3691 36.8603 90.5114 34.9103C91.236 33.6674 91.9868 32.3922 92.7847 31.2513C94.5037 28.7954 96.4812 27.6234 99.5438 27.258C99.5923 27.258 99.6383 27.2704 99.6855 27.2741L99.7365 27.2804H102.693C102.927 28.1381 103.46 28.8834 104.197 29.3813C104.933 29.879 105.824 30.0963 106.706 29.9935C107.589 29.8907 108.406 29.4747 109.008 28.821C109.611 28.1674 109.958 27.3194 109.989 26.4311C110.019 25.5427 109.729 24.6731 109.173 23.98C108.617 23.2869 107.83 22.8164 106.956 22.6538C106.082 22.4913 105.179 22.6475 104.41 23.0942C103.642 23.5408 103.059 24.2483 102.768 25.088H99.2667C96.3594 24.6853 94.4515 23.5095 92.7847 21.127C91.9868 19.986 91.2373 18.7071 90.5114 17.4692C89.3691 15.5192 88.1871 13.502 86.7291 11.8541C84.1898 8.98556 80.8389 7.37357 77.5314 7.44441H71.1328C70.8541 6.59645 70.2796 5.87707 69.5142 5.41782C68.7488 4.95859 67.8436 4.79014 66.9642 4.94332C66.0848 5.09649 65.29 5.56104 64.7249 6.25203C64.1599 6.94301 63.8624 7.81426 63.8871 8.7065C63.9115 9.59872 64.2565 10.4523 64.8585 11.1112C65.4607 11.7701 66.28 12.1902 67.1664 12.2949C68.0529 12.3995 68.9474 12.1815 69.6865 11.6809C70.4254 11.1803 70.9595 10.4305 71.1912 9.56845H77.5625C80.241 9.51253 83.0078 10.8573 85.1357 13.2622C86.4569 14.7536 87.5346 16.5943 88.6768 18.5418C89.4226 19.817 90.1945 21.1344 91.0384 22.345C91.746 23.3861 92.6106 24.3114 93.6013 25.088H85.122C85.2297 24.5237 85.2445 23.9456 85.1655 23.3765C85.091 23.0944 85.0972 22.7949 85.0338 22.5065C84.3166 19.2751 82.4236 16.9746 79.4567 15.5627C78.7495 15.2259 77.9652 15.0171 77.2057 14.8319C75.2357 14.3584 73.2283 14.0539 71.2396 13.3405C71.1908 13.5444 71.1617 13.7525 71.1526 13.9619C71.1874 14.5112 71.2446 15.0606 71.3068 15.6087C71.4696 17.0405 71.9382 18.3517 72.8269 19.5038C74.7572 22.0032 77.3313 23.261 80.4486 23.4971C81.4964 23.5766 82.5342 23.6922 83.4838 24.2304C83.8035 24.4258 84.0439 24.7277 84.1625 25.083H77.509C77.4536 25.0728 77.3975 25.067 77.3412 25.0656H75.8199C75.7664 25.0656 71.9767 25.0445 67.665 22.9664C61.9189 20.1973 57.9937 15.2607 55.9963 8.29204C55.9612 8.15408 55.8989 8.02455 55.8129 7.91113C55.7269 7.79772 55.619 7.70273 55.4957 7.6318C55.3723 7.56087 55.236 7.51545 55.0946 7.49823C54.9533 7.48101 54.81 7.49236 54.6733 7.53157C54.5364 7.5708 54.4089 7.63709 54.2982 7.72654C54.1874 7.81599 54.0958 7.92678 54.0288 8.05229C53.9617 8.17782 53.9206 8.31554 53.9076 8.45729C53.8948 8.59903 53.9106 8.7419 53.9541 8.87743C56.6724 18.3616 62.4595 22.8384 66.8347 24.9239C66.949 24.9786 67.0634 25.0308 67.1765 25.083H56.1802C55.8987 25.083 55.6287 25.1948 55.4296 25.3939C55.2305 25.5929 55.1187 25.8629 55.1187 26.1444C55.1187 26.4259 55.2305 26.696 55.4296 26.8949C55.6287 27.0941 55.8987 27.2058 56.1802 27.2058H67.3169C67.1578 27.2779 66.9963 27.3524 66.8347 27.4295C62.4595 29.5262 56.6724 34.003 53.9541 43.486ZM69.2037 8.6127C69.2037 8.9274 69.1104 9.23502 68.9355 9.49667C68.7606 9.7583 68.512 9.9622 68.2213 10.0826C67.9305 10.2029 67.6105 10.2344 67.3019 10.1729C66.9933 10.1114 66.7098 9.95978 66.4873 9.73717C66.2648 9.51456 66.1134 9.23098 66.0521 8.92231C65.991 8.61363 66.0227 8.29372 66.1432 8.00305C66.2638 7.71237 66.4679 7.464 66.7298 7.28935C66.9915 7.11469 67.2993 7.02159 67.614 7.02184C68.0356 7.0225 68.4398 7.19036 68.7377 7.4886C69.0358 7.78683 69.2034 8.1911 69.2037 8.6127ZM69.2037 43.7855C69.2037 44.1002 69.1104 44.4079 68.9355 44.6695C68.7606 44.9312 68.512 45.1351 68.2213 45.2554C67.9305 45.3759 67.6105 45.4072 67.3019 45.3458C66.9933 45.2843 66.7098 45.1326 66.4873 44.91C66.2648 44.6874 66.1134 44.4038 66.0521 44.0951C65.991 43.7865 66.0227 43.4666 66.1432 43.1759C66.2638 42.8852 66.4679 42.6368 66.7298 42.4622C66.9915 42.2875 67.2993 42.1944 67.614 42.1946C68.0345 42.1954 68.4377 42.3623 68.7356 42.6592C69.0334 42.9561 69.2017 43.3588 69.2037 43.7793V43.7855ZM104.687 26.3184C104.687 26.0037 104.78 25.696 104.955 25.4341C105.129 25.1723 105.378 24.9683 105.669 24.8477C105.959 24.7272 106.279 24.6955 106.588 24.7569C106.897 24.8181 107.18 24.9698 107.403 25.1922C107.626 25.4148 107.777 25.6985 107.838 26.0072C107.9 26.3159 107.868 26.6358 107.748 26.9265C107.627 27.2173 107.423 27.4658 107.161 27.6404C106.899 27.8152 106.592 27.9082 106.277 27.908C106.067 27.9085 105.859 27.8676 105.665 27.7876C105.472 27.7075 105.296 27.5901 105.147 27.4417C104.999 27.2934 104.881 27.1173 104.801 26.9235C104.721 26.7296 104.68 26.522 104.681 26.3122L104.687 26.3184Z" fill="#3349C2"/>
<path d="M236.902 45.8301C236.615 45.6645 236.377 45.4261 236.211 45.1392C236.045 44.8524 235.958 44.527 235.958 44.1958C235.958 43.8647 235.871 43.5393 235.706 43.2525C235.541 42.9655 235.303 42.7272 235.016 42.5616C234.729 42.3958 234.405 42.3084 234.073 42.3081C233.742 42.3079 233.417 42.3949 233.129 42.5602C232.842 42.7254 232.517 42.8124 232.186 42.8124C231.854 42.8124 231.529 42.7254 231.241 42.5602C230.954 42.3944 230.63 42.3069 230.298 42.3066C229.967 42.3064 229.642 42.3934 229.355 42.5588C229.068 42.7241 228.829 42.9621 228.664 43.2488C228.498 43.5356 228.41 43.8608 228.41 44.1921C228.41 44.5233 228.323 44.8488 228.158 45.1358C227.992 45.4226 227.754 45.6609 227.467 45.8264C227.179 45.9917 226.941 46.2298 226.776 46.5167C226.609 46.8034 226.522 47.1289 226.522 47.4601C226.522 47.7914 226.609 48.1169 226.776 48.4036C226.941 48.6904 227.179 48.9286 227.467 49.0939C227.754 49.2596 227.991 49.4978 228.158 49.7848C228.323 50.0716 228.41 50.397 228.41 50.7282C228.41 51.0593 228.497 51.3847 228.662 51.6716C228.828 51.9584 229.066 52.1968 229.352 52.3625C229.639 52.5283 229.965 52.6156 230.296 52.6159C230.626 52.6161 230.952 52.5291 231.239 52.3638C231.526 52.1987 231.852 52.1117 232.182 52.1117C232.513 52.1117 232.839 52.1987 233.126 52.3638C233.413 52.5296 233.737 52.617 234.069 52.6173C234.4 52.6175 234.725 52.5306 235.013 52.3652C235.3 52.1998 235.538 51.9619 235.704 51.6752C235.87 51.3884 235.957 51.0632 235.957 50.732C235.957 50.4006 236.045 50.0752 236.211 49.7884C236.376 49.5014 236.615 49.2633 236.902 49.0976C237.189 48.9319 237.426 48.6938 237.592 48.4071C237.758 48.1202 237.845 47.795 237.845 47.4639C237.845 47.1328 237.758 46.8074 237.592 46.5207C237.426 46.2339 237.189 45.9957 236.902 45.8301ZM234.595 48.2984C234.448 48.3831 234.326 48.5049 234.242 48.6514C234.156 48.798 234.111 48.9642 234.111 49.1336C234.111 49.3032 234.067 49.4696 233.982 49.6164C233.898 49.7632 233.776 49.8851 233.629 49.9697C233.482 50.0545 233.316 50.099 233.146 50.0987C232.977 50.0986 232.81 50.0537 232.663 49.9688C232.517 49.884 232.35 49.8392 232.181 49.8392C232.012 49.8392 231.846 49.884 231.699 49.9688C231.552 50.0535 231.386 50.098 231.217 50.0979C231.046 50.0977 230.88 50.0531 230.733 49.9684C230.586 49.8836 230.465 49.7618 230.38 49.615C230.296 49.4682 230.251 49.3018 230.251 49.1324C230.251 48.9629 230.206 48.7965 230.122 48.6496C230.037 48.5028 229.915 48.3809 229.769 48.296C229.622 48.2111 229.5 48.0893 229.416 47.9425C229.331 47.7958 229.286 47.6294 229.286 47.4601C229.286 47.2907 229.331 47.1244 229.416 46.9777C229.5 46.831 229.622 46.7091 229.769 46.6243C229.915 46.5396 230.037 46.4178 230.122 46.2712C230.206 46.1247 230.251 45.9584 230.251 45.7891C230.251 45.6196 230.296 45.4531 230.38 45.3064C230.466 45.1596 230.588 45.0378 230.734 44.9532C230.881 44.8685 231.048 44.824 231.218 44.8242C231.387 44.8243 231.553 44.869 231.7 44.9539C231.847 45.0388 232.013 45.0836 232.182 45.0836C232.351 45.0836 232.518 45.0388 232.665 44.9539C232.811 44.8693 232.978 44.8248 233.147 44.8249C233.317 44.8249 233.484 44.8697 233.63 44.9544C233.777 45.0392 233.899 45.161 233.983 45.3078C234.068 45.4544 234.113 45.621 234.113 45.7904C234.113 45.9599 234.157 46.1263 234.242 46.2732C234.326 46.42 234.448 46.5419 234.595 46.6268C234.742 46.7116 234.863 46.8335 234.948 46.9802C235.032 47.1269 235.077 47.2932 235.077 47.4626C235.077 47.632 235.032 47.7983 234.948 47.945C234.863 48.0918 234.742 48.2136 234.595 48.2984Z" fill="white"/>
<path d="M232.183 48.9698C233.016 48.9698 233.691 48.2948 233.691 47.4622C233.691 46.6296 233.016 45.9546 232.183 45.9546C231.35 45.9546 230.675 46.6296 230.675 47.4622C230.675 48.2948 231.35 48.9698 232.183 48.9698Z" fill="white"/>
<path d="M249.771 22.8921C249.182 22.5517 248.693 22.0625 248.353 21.4735C248.013 20.8846 247.833 20.2165 247.833 19.5364C247.833 16.5536 244.602 14.6806 242.015 16.1733C241.425 16.5137 240.756 16.6929 240.075 16.6929C239.394 16.6929 238.725 16.5137 238.135 16.1733C237.545 15.8322 236.877 15.6524 236.196 15.6518C235.514 15.6513 234.845 15.83 234.254 16.1702C233.665 16.5102 233.174 16.9998 232.833 17.5894C232.493 18.179 232.313 18.8479 232.313 19.529C232.311 20.2094 232.131 20.8776 231.791 21.4666C231.45 22.0556 230.96 22.5445 230.371 22.8847C229.781 23.225 229.291 23.7148 228.95 24.3045C228.61 24.8944 228.43 25.5635 228.43 26.2448C228.43 26.926 228.61 27.5951 228.95 28.1848C229.291 28.7747 229.781 29.2645 230.371 29.6048C230.96 29.9452 231.449 30.4344 231.789 31.0234C232.129 31.6124 232.309 32.2804 232.309 32.9605C232.309 33.6406 232.488 34.3088 232.827 34.898C233.168 35.4873 233.656 35.9768 234.244 36.3177C234.833 36.6585 235.501 36.8389 236.181 36.8404C236.861 36.8418 237.529 36.6645 238.12 36.3262C238.71 35.9855 239.379 35.8062 240.06 35.8062C240.741 35.8062 241.41 35.9855 242 36.3262C242.589 36.6669 243.259 36.8463 243.939 36.8467C244.62 36.8471 245.29 36.6682 245.879 36.3282C246.47 35.9881 246.959 35.4989 247.3 34.9095C247.642 34.3201 247.821 33.6513 247.822 32.9705C247.823 32.29 248.004 31.6217 248.344 31.0327C248.685 30.4437 249.174 29.9548 249.764 29.6148C250.355 29.2752 250.846 28.786 251.188 28.1963C251.53 27.6065 251.71 26.9371 251.71 26.2556C251.711 25.574 251.532 24.9042 251.192 24.3137C250.851 23.7232 250.361 23.2329 249.771 22.8921ZM246.081 28.3346C245.715 28.5453 245.411 28.8485 245.199 29.2141C244.988 29.5796 244.878 29.9942 244.878 30.4164C244.876 30.8377 244.764 31.2515 244.553 31.6161C244.342 31.9808 244.04 32.2835 243.674 32.4942C243.309 32.7049 242.895 32.816 242.474 32.8165C242.052 32.817 241.638 32.7067 241.273 32.4969C240.908 32.286 240.492 32.1749 240.071 32.1749C239.648 32.1749 239.233 32.286 238.868 32.4969C238.502 32.7074 238.087 32.8178 237.666 32.8174C237.245 32.8169 236.829 32.7055 236.464 32.4943C236.1 32.2832 235.797 31.9797 235.585 31.6143C235.374 31.2489 235.263 30.8345 235.263 30.4127C235.263 29.9903 235.153 29.5754 234.941 29.2095C234.731 28.8436 234.427 28.5397 234.061 28.3284C233.696 28.1172 233.393 27.8137 233.181 27.4482C232.97 27.0827 232.86 26.6681 232.86 26.246C232.86 25.8239 232.97 25.4093 233.181 25.0438C233.393 24.6783 233.696 24.3747 234.061 24.1636C234.427 23.9528 234.731 23.6495 234.943 23.284C235.154 22.9186 235.265 22.5039 235.265 22.0818C235.266 21.6602 235.376 21.2464 235.588 20.8814C235.799 20.5167 236.102 20.2137 236.468 20.003C236.832 19.7922 237.247 19.6811 237.668 19.6809C238.09 19.6806 238.504 19.7911 238.869 20.0013C239.235 20.2122 239.65 20.3233 240.072 20.3233C240.494 20.3233 240.909 20.2122 241.274 20.0013C241.64 19.7905 242.055 19.6796 242.476 19.68C242.899 19.6802 243.313 19.7916 243.678 20.0028C244.044 20.214 244.347 20.5177 244.558 20.8833C244.768 21.249 244.879 21.6636 244.879 22.0855C244.879 22.5076 244.989 22.9223 245.201 23.288C245.412 23.6536 245.715 23.9574 246.081 24.1686C246.446 24.3798 246.749 24.6836 246.961 25.0491C247.172 25.4148 247.283 25.8295 247.283 26.2516C247.283 26.6737 247.172 27.0884 246.961 27.4541C246.749 27.8196 246.446 28.1233 246.081 28.3346Z" fill="white"/>
<path d="M240.069 22.5186C239.332 22.5186 238.611 22.7372 237.997 23.1469C237.384 23.5566 236.906 24.1389 236.624 24.8202C236.341 25.5015 236.268 26.2512 236.412 26.9744C236.555 27.6978 236.911 28.3621 237.433 28.8836C237.954 29.405 238.619 29.7602 239.342 29.904C240.065 30.0479 240.815 29.9741 241.496 29.6918C242.177 29.4096 242.76 28.9317 243.169 28.3186C243.579 27.7054 243.798 26.9845 243.798 26.2471C243.798 25.2582 243.405 24.3099 242.705 23.6105C242.007 22.9113 241.058 22.5186 240.069 22.5186ZM240.069 27.7199C239.778 27.7199 239.494 27.6335 239.251 27.4717C239.009 27.3098 238.82 27.0798 238.708 26.8106C238.597 26.5416 238.568 26.2455 238.625 25.9598C238.681 25.674 238.821 25.4117 239.027 25.2056C239.234 24.9997 239.496 24.8595 239.782 24.8026C240.068 24.7458 240.364 24.775 240.632 24.8864C240.902 24.9979 241.132 25.1866 241.293 25.4288C241.456 25.6711 241.542 25.9558 241.542 26.2471C241.542 26.6378 241.387 27.0124 241.111 27.2885C240.835 27.5647 240.459 27.7199 240.069 27.7199Z" fill="white"/>
<path d="M236.902 3.52442C236.615 3.35878 236.376 3.12055 236.211 2.83365C236.045 2.54675 235.958 2.22132 235.958 1.89006C235.958 1.55891 235.871 1.23357 235.706 0.946695C235.541 0.659822 235.302 0.421538 235.016 0.255784C234.729 0.0900297 234.403 0.00264288 234.073 0.00241059C233.742 0.00217832 233.417 0.0891084 233.129 0.25446C232.842 0.42028 232.517 0.507583 232.185 0.507583C231.854 0.507583 231.529 0.42028 231.241 0.25446C230.954 0.0885948 230.629 0.00116858 230.298 0.000976878C229.966 0.000785174 229.641 0.0878346 229.353 0.253368C229.068 0.418902 228.829 0.657083 228.664 0.943957C228.497 1.23083 228.41 1.55628 228.41 1.88758C228.41 2.21867 228.323 2.54395 228.158 2.83066C227.991 3.11736 227.754 3.35535 227.467 3.52069C227.179 3.68621 226.941 3.92441 226.776 4.21132C226.61 4.49822 226.522 4.82371 226.522 5.15505C226.522 5.48638 226.61 5.81187 226.776 6.09877C226.941 6.38567 227.179 6.62388 227.467 6.7894C227.754 6.95493 227.992 7.19316 228.158 7.48007C228.323 7.76699 228.41 8.09248 228.41 8.42376C228.409 8.75496 228.496 9.08053 228.661 9.36775C228.825 9.65496 229.063 9.8937 229.35 10.06C229.636 10.2262 229.961 10.3142 230.292 10.3149C230.624 10.3157 230.949 10.2293 231.236 10.0643C231.524 9.8985 231.848 9.81118 232.18 9.81118C232.51 9.81118 232.836 9.8985 233.123 10.0643C233.41 10.2302 233.736 10.3176 234.067 10.3178C234.399 10.318 234.724 10.231 235.01 10.0654C235.297 9.89989 235.536 9.66171 235.701 9.37483C235.868 9.08796 235.955 8.7625 235.955 8.43122C235.955 8.1001 236.043 7.77494 236.208 7.48831C236.375 7.20169 236.612 6.96367 236.899 6.7981C237.188 6.63288 237.426 6.39462 237.593 6.10736C237.759 5.8201 237.848 5.49401 237.848 5.16198C237.848 4.82994 237.761 4.50372 237.594 4.21621C237.429 3.92871 237.189 3.69008 236.902 3.52442ZM234.595 5.99273C234.448 6.07752 234.326 6.19943 234.241 6.34624C234.156 6.49306 234.111 6.6596 234.111 6.82918C234.111 6.99865 234.067 7.16517 233.982 7.31195C233.898 7.45873 233.776 7.58061 233.629 7.66528C233.482 7.74996 233.316 7.79447 233.146 7.7943C232.977 7.79414 232.81 7.74933 232.663 7.66438C232.517 7.57985 232.35 7.53536 232.181 7.53536C232.012 7.53536 231.846 7.57985 231.699 7.66438C231.552 7.74878 231.387 7.79326 231.218 7.7934C231.049 7.79353 230.882 7.74931 230.736 7.66515C230.589 7.58098 230.467 7.45982 230.383 7.31378C230.297 7.16773 230.252 7.00192 230.251 6.83291C230.251 6.66348 230.206 6.49706 230.122 6.35028C230.037 6.2035 229.915 6.0815 229.769 5.99646C229.622 5.91164 229.5 5.78976 229.416 5.64306C229.331 5.49635 229.286 5.32999 229.286 5.16064C229.286 4.99129 229.331 4.82492 229.416 4.67823C229.5 4.53152 229.622 4.40964 229.769 4.32482C229.915 4.24017 230.037 4.11843 230.122 3.97182C230.206 3.82522 230.251 3.65891 230.251 3.48962C230.251 3.32011 230.296 3.15361 230.38 3.00688C230.466 2.86015 230.588 2.73834 230.734 2.65369C230.881 2.56905 231.048 2.52455 231.218 2.52468C231.387 2.5248 231.553 2.56956 231.7 2.65442C231.847 2.73931 232.013 2.78401 232.182 2.78401C232.351 2.78401 232.518 2.73931 232.665 2.65442C232.811 2.56976 232.978 2.52526 233.148 2.5254C233.317 2.52553 233.484 2.5703 233.63 2.6552C233.777 2.7401 233.899 2.86215 233.983 3.00906C234.068 3.15596 234.113 3.32257 234.113 3.4921C234.113 3.66139 234.157 3.8277 234.242 3.97431C234.326 4.12092 234.448 4.24265 234.595 4.3273C234.74 4.41253 234.861 4.5342 234.944 4.68028C235.027 4.82634 235.071 4.99171 235.071 5.16002C235.071 5.32831 235.027 5.49369 234.944 5.63976C234.861 5.78582 234.74 5.9075 234.595 5.99273Z" fill="white"/>
<path d="M232.183 6.6641C233.016 6.6641 233.691 5.98913 233.691 5.15651C233.691 4.3239 233.016 3.64893 232.183 3.64893C231.35 3.64893 230.675 4.3239 230.675 5.15651C230.675 5.98913 231.35 6.6641 232.183 6.6641Z" fill="white"/>
<path d="M48.2797 49.0978C48.5667 49.2634 48.8049 49.5017 48.9707 49.7885C49.1366 50.0754 49.2241 50.4008 49.2243 50.7321C49.2249 51.0628 49.3124 51.3875 49.478 51.6736C49.6437 51.9598 49.8816 52.1974 50.1679 52.3627C50.4543 52.528 50.7791 52.6152 51.1098 52.6153C51.4405 52.6155 51.7654 52.5289 52.052 52.364C52.339 52.1988 52.6643 52.1118 52.9954 52.1118C53.3265 52.1118 53.6518 52.1988 53.9388 52.364C54.226 52.5313 54.5523 52.6198 54.8846 52.6204C55.217 52.621 55.5436 52.5339 55.8315 52.3677C56.1194 52.2017 56.3583 51.9624 56.524 51.6743C56.6896 51.3862 56.7763 51.0595 56.7752 50.7271C56.7744 50.3959 56.8608 50.0702 57.0257 49.7829C57.1907 49.4956 57.4283 49.2567 57.7148 49.0903C58.0019 48.925 58.2403 48.6869 58.4061 48.4001C58.5719 48.1133 58.6592 47.7879 58.6592 47.4566C58.6592 47.1253 58.5719 46.7998 58.4061 46.5131C58.2403 46.2263 58.0019 45.9883 57.7148 45.8228C57.4291 45.6569 57.1919 45.4188 57.027 45.1324C56.8622 44.8461 56.7753 44.5214 56.7752 44.191C56.7749 43.8597 56.6875 43.5345 56.5217 43.2477C56.3559 42.9611 56.1175 42.7231 55.8306 42.5577C55.5436 42.3923 55.2182 42.3054 54.887 42.3057C54.5558 42.3059 54.2305 42.3933 53.9437 42.5591C53.6566 42.7244 53.3311 42.8113 52.9997 42.8113C52.6685 42.8113 52.343 42.7244 52.0557 42.5591C51.7688 42.3938 51.4434 42.3068 51.1122 42.307C50.7811 42.3073 50.4558 42.3947 50.1692 42.5604C49.8824 42.7261 49.6444 42.9645 49.479 43.2514C49.3137 43.5382 49.2267 43.8636 49.2268 44.1947C49.2268 44.5259 49.1395 44.8513 48.974 45.1383C48.8084 45.4251 48.5703 45.6634 48.2834 45.829C47.9962 45.9942 47.7575 46.2322 47.5915 46.519C47.4254 46.8057 47.3378 47.1311 47.3374 47.4623C47.337 47.7936 47.4239 48.1193 47.5893 48.4064C47.7547 48.6935 47.9928 48.932 48.2797 49.0978ZM50.5828 46.627C50.7298 46.5423 50.8517 46.4204 50.9363 46.2735C51.021 46.1267 51.0655 45.96 51.0651 45.7905C51.0651 45.6211 51.1097 45.4547 51.1945 45.3079C51.2793 45.1611 51.4011 45.0393 51.5477 44.9546C51.6945 44.8698 51.8609 44.8252 52.0304 44.8251C52.1999 44.8249 52.3663 44.8694 52.5131 44.9541C52.6597 45.039 52.8261 45.0837 52.9954 45.0837C53.1648 45.0837 53.3311 45.039 53.4776 44.9541C53.6244 44.8692 53.7909 44.8244 53.9604 44.8243C54.1299 44.8242 54.2965 44.8687 54.4434 44.9533C54.5903 45.038 54.7122 45.1598 54.7971 45.3065C54.882 45.4533 54.9268 45.6197 54.9269 45.7893C54.927 45.9585 54.9716 46.1248 55.0563 46.2714C55.1409 46.418 55.2626 46.5397 55.4092 46.6245C55.5561 46.7091 55.6781 46.8309 55.7629 46.9776C55.8478 47.1244 55.8924 47.2908 55.8924 47.4603C55.8924 47.6298 55.8478 47.7964 55.7629 47.943C55.6781 48.0898 55.5561 48.2116 55.4092 48.2961C55.2625 48.381 55.1407 48.5029 55.056 48.6498C54.9714 48.7966 54.9268 48.9632 54.9269 49.1326C54.9272 49.302 54.8827 49.4685 54.7981 49.6153C54.7136 49.7621 54.5918 49.884 54.4451 49.9688C54.2985 50.0535 54.1322 50.0981 53.9628 50.0983C53.7933 50.0983 53.6268 50.0538 53.4801 49.969C53.3333 49.8841 53.1668 49.8395 52.9972 49.8395C52.8277 49.8395 52.6612 49.8841 52.5144 49.969C52.3677 50.054 52.2013 50.0988 52.0317 50.099C51.8623 50.0991 51.6958 50.0546 51.549 49.97C51.4022 49.8852 51.2803 49.7634 51.1955 49.6167C51.1108 49.4699 51.0662 49.3033 51.0663 49.1338C51.066 48.9644 51.0211 48.7982 50.9362 48.6516C50.8514 48.505 50.7295 48.3834 50.5828 48.2986C50.4363 48.2138 50.3146 48.0919 50.23 47.9453C50.1453 47.7985 50.1008 47.6322 50.1008 47.4628C50.1008 47.2935 50.1453 47.1271 50.23 46.9804C50.3146 46.8336 50.4363 46.7118 50.5828 46.627Z" fill="white"/>
<path d="M52.9964 48.9698C53.8291 48.9698 54.5041 48.2948 54.5041 47.4622C54.5041 46.6296 53.8291 45.9546 52.9964 45.9546C52.1638 45.9546 51.4888 46.6296 51.4888 47.4622C51.4888 48.2948 52.1638 48.9698 52.9964 48.9698Z" fill="white"/>
<path d="M35.4117 29.6123C36.0011 29.9523 36.4908 30.4413 36.8316 31.0302C37.1723 31.6192 37.3521 32.2875 37.3531 32.968C37.3539 33.6488 37.5337 34.3176 37.8747 34.907C38.2156 35.4965 38.7057 35.9856 39.2957 36.3257C39.8856 36.6657 40.5547 36.8446 41.2356 36.8442C41.9166 36.8438 42.5854 36.6644 43.1751 36.3237C43.765 35.983 44.4342 35.8037 45.1153 35.8037C45.7964 35.8037 46.4656 35.983 47.0555 36.3237C47.6455 36.6637 48.3147 36.8426 48.9957 36.8421C49.6768 36.8416 50.3457 36.662 50.9354 36.3212C51.5249 35.9803 52.0145 35.4904 52.3547 34.9005C52.695 34.3105 52.874 33.6415 52.8737 32.9605C52.8741 32.2804 53.0534 31.6124 53.3935 31.0234C53.7336 30.4344 54.2226 29.9451 54.8115 29.6048C55.4012 29.2641 55.8909 28.7743 56.2314 28.1846C56.572 27.5947 56.7512 26.9257 56.7512 26.2447C56.7512 25.5637 56.572 24.8946 56.2314 24.3049C55.8909 23.715 55.4012 23.2252 54.8115 22.8847C54.2221 22.5445 53.7325 22.0554 53.3918 21.4666C53.051 20.8776 52.8711 20.2094 52.87 19.529C52.8697 18.8479 52.69 18.179 52.3492 17.5894C52.0083 16.9997 51.5182 16.5102 50.928 16.1701C50.338 15.83 49.6688 15.6512 48.9877 15.6517C48.3065 15.6522 47.6376 15.8322 47.0481 16.1732C46.4582 16.5137 45.789 16.6929 45.1078 16.6929C44.4267 16.6929 43.7575 16.5137 43.1676 16.1732C40.5811 14.6818 37.3482 16.5461 37.3494 19.5364C37.3489 20.2165 37.1697 20.8845 36.8296 21.4735C36.4896 22.0625 36.0005 22.5517 35.4117 22.8921C34.8215 23.2324 34.3316 23.7222 33.9909 24.312C33.6501 24.9018 33.4707 25.571 33.4707 26.2522C33.4707 26.9333 33.6501 27.6024 33.9909 28.1923C34.3316 28.7822 34.8215 29.2718 35.4117 29.6123ZM39.0957 24.1673C39.4613 23.9561 39.7648 23.6524 39.9757 23.2867C40.1868 22.9211 40.2978 22.5064 40.2977 22.0843C40.2973 21.6623 40.408 21.2477 40.6188 20.8821C40.8295 20.5164 41.1328 20.2128 41.4981 20.0015C41.8635 19.7903 42.2779 19.679 42.6999 19.6787C43.122 19.6784 43.5366 19.7892 43.9022 20C44.2679 20.2109 44.6826 20.322 45.1047 20.322C45.5268 20.322 45.9416 20.2109 46.3073 20C46.6727 19.7897 47.0868 19.6792 47.5084 19.6796C47.9299 19.6798 48.344 19.791 48.7091 20.0016C49.0742 20.2124 49.3775 20.5154 49.5885 20.8802C49.7996 21.2451 49.911 21.659 49.9118 22.0805C49.9118 22.5026 50.0229 22.9172 50.2342 23.2828C50.4454 23.6482 50.7492 23.9515 51.115 24.1623C51.4804 24.3734 51.7839 24.677 51.9948 25.0425C52.2059 25.4081 52.3169 25.8227 52.3169 26.2447C52.3169 26.6668 52.2059 27.0813 51.9948 27.447C51.7839 27.8125 51.4804 28.116 51.115 28.3271C50.7492 28.5384 50.4456 28.8423 50.2346 29.2082C50.0237 29.5741 49.9127 29.9891 49.913 30.4114C49.913 30.8332 49.802 31.2476 49.5911 31.613C49.3803 31.9784 49.0772 32.2819 48.712 32.4931C48.3467 32.7042 47.9324 32.8156 47.5106 32.8161C47.0887 32.8166 46.6742 32.706 46.3085 32.4957C45.9428 32.2847 45.5281 32.1737 45.106 32.1737C44.6839 32.1737 44.2691 32.2847 43.9034 32.4957C43.538 32.7059 43.1239 32.8164 42.7023 32.8161C42.2808 32.8157 41.8668 32.7047 41.5016 32.494C41.1365 32.2833 40.8332 31.9803 40.6222 31.6154C40.411 31.2506 40.2997 30.8366 40.2989 30.4152C40.2987 29.9936 40.1877 29.5793 39.977 29.2142C39.7662 28.849 39.4632 28.5458 39.0982 28.3346C38.7323 28.1236 38.4285 27.8201 38.2171 27.4544C38.0057 27.0888 37.8943 26.674 37.8941 26.2517C37.8938 25.8294 38.0047 25.4144 38.2156 25.0485C38.4267 24.6826 38.7301 24.3787 39.0957 24.1673Z" fill="white"/>
<path d="M41.3813 26.2471C41.3813 26.9845 41.6 27.7054 42.0098 28.3186C42.4194 28.9317 43.0018 29.4096 43.6831 29.6918C44.3645 29.9741 45.1143 30.0479 45.8375 29.904C46.5609 29.7602 47.2253 29.405 47.7468 28.8836C48.2682 28.3621 48.6234 27.6978 48.7672 26.9744C48.9112 26.2512 48.8374 25.5015 48.5551 24.8202C48.2728 24.1389 47.7949 23.5566 47.1818 23.1469C46.5685 22.7372 45.8476 22.5186 45.1102 22.5186C44.1212 22.5186 43.1728 22.9113 42.4734 23.6105C41.7741 24.3099 41.3813 25.2582 41.3813 26.2471ZM43.6385 26.2471C43.6385 25.9558 43.7249 25.6711 43.8867 25.4288C44.0486 25.1866 44.2786 24.9979 44.5477 24.8864C44.8168 24.775 45.113 24.7458 45.3986 24.8026C45.6844 24.8595 45.9469 24.9997 46.1529 25.2056C46.3588 25.4117 46.4991 25.674 46.5559 25.9598C46.6127 26.2455 46.5837 26.5416 46.4722 26.8106C46.3607 27.0798 46.1719 27.3098 45.9296 27.4717C45.6874 27.6335 45.4026 27.7199 45.1114 27.7199C44.9179 27.72 44.7263 27.682 44.5475 27.6081C44.3687 27.5341 44.2063 27.4256 44.0694 27.2889C43.9327 27.1521 43.8242 26.9896 43.7503 26.8109C43.6763 26.6322 43.6383 26.4405 43.6385 26.2471Z" fill="white"/>
<path d="M48.2795 6.7934C48.5663 6.95896 48.8046 7.19698 48.9703 7.4836C49.1361 7.77023 49.2237 8.0954 49.2242 8.42651C49.2237 8.75768 49.3103 9.08314 49.4755 9.37019C49.6407 9.65724 49.8786 9.89574 50.1651 10.0618C50.4517 10.2278 50.7769 10.3154 51.1081 10.3159C51.4392 10.3164 51.7648 10.2297 52.0519 10.0646C52.3386 9.89876 52.664 9.81145 52.9953 9.81145C53.3265 9.81145 53.6519 9.89876 53.9386 10.0646C54.2261 10.2321 54.5529 10.3205 54.8858 10.321C55.2185 10.3214 55.5455 10.2338 55.8335 10.0671C56.1215 9.90043 56.3603 9.66051 56.5257 9.37172C56.691 9.08292 56.777 8.75554 56.775 8.42278C56.7748 8.0915 56.8619 7.76602 57.0275 7.47909C57.1932 7.19218 57.4314 6.95396 57.7184 6.78842C58.0054 6.6229 58.2438 6.38471 58.4096 6.09779C58.5753 5.81089 58.6626 5.4854 58.6626 5.15407C58.6626 4.82273 58.5753 4.49724 58.4096 4.21034C58.2438 3.92344 58.0054 3.68523 57.7184 3.51971C57.4318 3.3541 57.1938 3.11603 57.0281 2.82939C56.8625 2.54275 56.7753 2.21762 56.775 1.8866C56.775 1.55531 56.6878 1.22985 56.522 0.942979C56.3563 0.656106 56.118 0.417924 55.831 0.252391C55.544 0.0868579 55.2185 -0.000191388 54.8871 3.15949e-07C54.5558 0.00019202 54.2304 0.0876183 53.9436 0.253483C53.6566 0.419303 53.331 0.506606 52.9996 0.506606C52.6681 0.506606 52.3426 0.419303 52.0556 0.253483C51.7686 0.0881317 51.4432 0.00120554 51.1121 0.00143782C50.781 0.00167011 50.4557 0.0890531 50.1689 0.254807C49.8823 0.420562 49.6443 0.658846 49.4789 0.945717C49.3134 1.23259 49.2264 1.55795 49.2267 1.88908C49.2267 2.22034 49.1395 2.54578 48.974 2.83267C48.8084 3.11957 48.5701 3.35782 48.2833 3.52344C47.996 3.68881 47.7574 3.92686 47.5913 4.21367C47.4254 4.50049 47.3378 4.82594 47.3374 5.15735C47.337 5.48874 47.4238 5.81441 47.5892 6.1016C47.7547 6.38878 47.9927 6.62737 48.2795 6.7934ZM50.5827 4.32135C50.7295 4.2369 50.8513 4.1152 50.9361 3.96855C51.0207 3.8219 51.0652 3.65549 51.065 3.48615C51.0647 3.31661 51.1092 3.15002 51.1939 3.0031C51.2785 2.8562 51.4003 2.73416 51.5471 2.64926C51.6938 2.56436 51.8603 2.51958 52.0299 2.51945C52.1995 2.51931 52.3661 2.5638 52.513 2.64847C52.6595 2.73337 52.8258 2.77807 52.9953 2.77807C53.1645 2.77807 53.331 2.73337 53.4775 2.64847C53.6242 2.5636 53.7907 2.51886 53.9603 2.51874C54.1298 2.5186 54.2964 2.56309 54.4433 2.64775C54.5901 2.73238 54.7121 2.8542 54.797 3.00093C54.8819 3.14767 54.9267 3.31415 54.9268 3.48367C54.9268 3.65296 54.9713 3.81926 55.0559 3.96587C55.1407 4.11248 55.2624 4.23423 55.409 4.31887C55.556 4.40344 55.6779 4.52523 55.7628 4.67196C55.8476 4.81869 55.8923 4.9852 55.8923 5.15469C55.8923 5.32419 55.8476 5.49068 55.7628 5.63743C55.6779 5.78416 55.556 5.90595 55.409 5.99051C55.2625 6.07556 55.1408 6.19756 55.0562 6.34434C54.9715 6.49111 54.9269 6.65753 54.9268 6.82695C54.9269 6.99635 54.8825 7.16282 54.798 7.3096C54.7134 7.45639 54.5917 7.57831 54.445 7.6631C54.2984 7.74788 54.1319 7.79255 53.9625 7.79262C53.7931 7.79267 53.6267 7.7481 53.48 7.6634C53.3331 7.57876 53.1665 7.53421 52.9971 7.53421C52.8276 7.53421 52.661 7.57876 52.5142 7.6634C52.3679 7.74784 52.2021 7.79239 52.0332 7.79262C51.8643 7.79284 51.6984 7.74872 51.5518 7.66466C51.4054 7.58061 51.2835 7.45957 51.1985 7.31364C51.1135 7.16772 51.0683 7.00205 51.0675 6.83317C51.0672 6.6636 51.0225 6.49705 50.9377 6.35024C50.8528 6.20342 50.7307 6.08151 50.584 5.99672C50.4364 5.91226 50.3137 5.79036 50.2285 5.64334C50.1432 5.49631 50.0982 5.32938 50.0981 5.1594C50.098 4.98943 50.1427 4.82242 50.2277 4.67527C50.3129 4.52813 50.4353 4.40604 50.5827 4.32135Z" fill="white"/>
<path d="M52.9964 6.6641C53.8291 6.6641 54.5041 5.98913 54.5041 5.15651C54.5041 4.3239 53.8291 3.64893 52.9964 3.64893C52.1638 3.64893 51.4888 4.3239 51.4888 5.15651C51.4888 5.98913 52.1638 6.6641 52.9964 6.6641Z" fill="white"/>
<path d="M124.957 31.1213C124.575 31.1561 124.191 31.1735 123.818 31.1735H121.304L123.186 29.0607C123.832 28.3435 124.37 27.7209 124.785 27.2113C125.152 26.7711 125.484 26.3036 125.78 25.8131C126.005 25.4403 126.176 25.0379 126.288 24.6174C126.379 24.2443 126.423 23.8617 126.422 23.4777C126.438 22.8968 126.334 22.3189 126.116 21.78C125.926 21.3277 125.628 20.9295 125.246 20.6204C124.872 20.3236 124.438 20.1097 123.975 19.9928C123.105 19.7666 122.11 19.7442 120.982 19.9704C120.466 20.0659 119.966 20.2333 119.497 20.4675L119.34 20.5483L118.849 22.5854H119.611L119.707 22.522C119.884 22.4064 120.072 22.3086 120.268 22.2299C120.499 22.1346 120.737 22.0544 120.978 21.99C121.226 21.9242 121.477 21.8747 121.731 21.8421C121.96 21.8105 122.191 21.7939 122.422 21.7924C123.198 21.7924 123.762 21.9552 124.098 22.2759C124.263 22.4342 124.394 22.6259 124.479 22.8383C124.565 23.0506 124.604 23.2788 124.595 23.5076C124.593 23.739 124.557 23.9689 124.488 24.1899C124.389 24.4836 124.251 24.7634 124.08 25.0226C123.814 25.4325 123.523 25.8264 123.21 26.2021C122.838 26.6619 122.362 27.2187 121.791 27.8576L118.503 31.5998V31.9727L118.845 33.1484H126.227L126.532 31.4755V30.6826L126.017 30.8703C125.675 30.9988 125.32 31.0832 124.957 31.1213Z" fill="white"/>
<path d="M140.494 21.925C140.161 21.3113 139.681 20.7892 139.098 20.405C138.514 20.0247 137.795 19.832 136.958 19.832C136.122 19.832 135.402 20.0247 134.818 20.405C134.235 20.7883 133.757 21.3118 133.429 21.9275C133.074 22.5985 132.828 23.3217 132.701 24.0702C132.409 25.7203 132.409 27.4089 132.701 29.059C132.828 29.8075 133.074 30.5308 133.429 31.2017C133.757 31.8177 134.235 32.3413 134.818 32.7242C135.401 33.1045 136.122 33.2972 136.958 33.2972C137.795 33.2972 138.515 33.1045 139.1 32.7242C139.683 32.3398 140.162 31.8178 140.495 31.2042C140.856 30.5339 141.106 29.8094 141.234 29.059C141.523 27.4087 141.523 25.7206 141.234 24.0702C141.106 23.3196 140.856 22.595 140.494 21.925ZM139.608 26.5646C139.604 27.1228 139.562 27.6799 139.484 28.2325C139.415 28.7709 139.267 29.2963 139.047 29.7923C138.859 30.2231 138.574 30.6054 138.216 30.9109C137.889 31.1831 137.47 31.3148 136.953 31.3148C136.436 31.3148 136.003 31.1831 135.684 30.9121C135.331 30.6062 135.053 30.2237 134.87 29.7935C134.654 29.2953 134.509 28.7688 134.44 28.23C134.281 27.1238 134.281 26.0005 134.44 24.8942C134.509 24.3554 134.654 23.8291 134.87 23.3307C135.053 22.9006 135.331 22.518 135.684 22.2121C136.003 21.9412 136.419 21.8094 136.953 21.8094C137.488 21.8094 137.889 21.9412 138.215 22.2133C138.573 22.5185 138.859 22.901 139.047 23.3319C139.267 23.8279 139.415 24.3534 139.484 24.8917C139.562 25.446 139.604 26.0048 139.608 26.5646Z" fill="white"/>
<path d="M153.514 31.1213C153.131 31.1561 152.748 31.1735 152.374 31.1735H149.861L151.741 29.0607C152.389 28.3435 152.927 27.7209 153.342 27.2113C153.709 26.7711 154.041 26.3036 154.337 25.8131C154.562 25.4403 154.733 25.0379 154.845 24.6174C154.935 24.2442 154.981 23.8615 154.979 23.4777C154.994 22.8968 154.89 22.319 154.674 21.78C154.482 21.3281 154.184 20.93 153.803 20.6204C153.428 20.3239 152.996 20.11 152.532 19.9928C151.662 19.7666 150.668 19.7442 149.539 19.9704C149.021 20.0655 148.519 20.2328 148.048 20.4675L147.891 20.5483L147.401 22.5854H148.163L148.259 22.522C148.435 22.4064 148.623 22.3086 148.819 22.2299C149.288 22.0369 149.78 21.9065 150.284 21.8421C150.512 21.8105 150.743 21.7938 150.975 21.7924C151.75 21.7924 152.313 21.9552 152.65 22.2759C152.815 22.4342 152.946 22.6259 153.032 22.8383C153.116 23.0506 153.156 23.2788 153.147 23.5076C153.145 23.739 153.109 23.9689 153.04 24.1899C152.941 24.4838 152.804 24.7637 152.633 25.0226C152.367 25.4328 152.076 25.8266 151.763 26.2021C151.39 26.6619 150.914 27.2187 150.344 27.8576L147.056 31.5998V31.9727L147.399 33.1484H154.779L155.084 31.4755V30.6826L154.569 30.8703C154.23 30.9985 153.874 31.0829 153.514 31.1213Z" fill="white"/>
<path d="M165.629 32.534C165.538 31.9934 165.479 31.4481 165.449 30.9009C165.42 30.3615 165.405 29.8047 165.405 29.2454V19.9551H164.441L162.411 21.1482L161.942 23.1032H162.679L163.598 22.5315V29.1932C163.598 29.7562 163.583 30.3217 163.554 30.8748C163.523 31.4311 163.464 31.9854 163.373 32.5353V33.1567H165.639V32.5962L165.629 32.534Z" fill="white"/>
<path d="M102.472 164.166L102.552 164.119C102.441 151.263 102.552 146.772 102.883 133.034H105.869L108.248 126.731H103.05L103.697 121.37C107.071 120.299 109.731 118.515 112.273 118.138C112.164 118.074 105.443 113.999 104.008 112.172C102.569 113.369 97.6316 114.946 94.314 116.587C94.4795 119.801 94.6463 123.204 94.757 126.733H94.7022L92.3242 133.036H94.9785C95.0096 134.136 95.0395 135.191 95.0681 136.214H93.9556C94.0676 144.007 94.0676 159.404 94.0676 171.283C97.4275 172.943 97.0418 172.231 98.4976 173.445L106.462 166.07C104.501 165.876 104.321 165.535 102.472 164.323V164.166Z" fill="#FFB1C7"/>
<path d="M103.634 122.302L106.679 120.624L112.094 124.143L115.881 118.359C115.88 118.325 115.866 118.201 115.862 118.173L104.973 111.109C101.877 113.055 96.0498 115.717 93.5659 116.771L103.634 122.302Z" fill="#FFB1C7"/>
<path d="M102.907 126.676L103.478 122.17L104.721 111.109C103.702 111.961 99.2882 113.928 97.0336 115.081V115.038L93.3523 116.684C93.4632 119.177 93.5765 121.735 93.6327 124.35C93.5966 124.39 93.5953 125.335 93.6102 126.671H89.3768L87.1958 132.98H93.7211C93.761 134.789 93.7959 136.161 93.7959 136.161C93.9082 143.961 93.908 159.373 93.908 171.263L102.325 164.297V164.142L102.405 164.095C102.294 151.226 102.405 146.732 102.736 132.98H108.109L110.563 126.676H102.907Z" fill="white"/>
</svg>
